<svg width="89" height="128" viewBox="0 0 89 128" fill="none" xmlns="http://www.w3.org/2000/svg">
<g clip-path="url(#clip0_413_1410)">
<rect width="89" height="128" rx="6" fill="#FFF3DA"/>
<ellipse cx="40" cy="133.5" rx="86" ry="52.5" fill="#FFC20E"/>
<ellipse cx="42.5" cy="90.5" rx="21.5" ry="6.5" fill="#838383" fill-opacity="0.2"/>
<path d="M35.1436 119V110.48H38.1676C39.0876 110.48 39.8556 110.672 40.4716 111.056C41.0876 111.432 41.5476 111.944 41.8516 112.592C42.1636 113.232 42.3196 113.944 42.3196 114.728C42.3196 115.592 42.1476 116.344 41.8036 116.984C41.4676 117.624 40.9876 118.12 40.3636 118.472C39.7396 118.824 39.0076 119 38.1676 119H35.1436ZM40.9516 114.728C40.9516 114.128 40.8396 113.6 40.6156 113.144C40.3996 112.68 40.0836 112.32 39.6676 112.064C39.2596 111.8 38.7596 111.668 38.1676 111.668H36.4876V117.812H38.1676C38.7676 117.812 39.2716 117.676 39.6796 117.404C40.0956 117.132 40.4116 116.764 40.6276 116.3C40.8436 115.836 40.9516 115.312 40.9516 114.728ZM43.0391 117.164C43.0391 116.764 43.1511 116.416 43.3751 116.12C43.6071 115.816 43.9231 115.584 44.3231 115.424C44.7231 115.256 45.1871 115.172 45.7151 115.172C45.9951 115.172 46.2791 115.192 46.5671 115.232C46.8631 115.272 47.1231 115.336 47.3471 115.424V115.028C47.3471 114.588 47.2151 114.244 46.9511 113.996C46.6871 113.748 46.3071 113.624 45.8111 113.624C45.4591 113.624 45.1271 113.688 44.8151 113.816C44.5031 113.936 44.1711 114.108 43.8191 114.332L43.3751 113.444C43.7911 113.164 44.2071 112.956 44.6231 112.82C45.0471 112.684 45.4911 112.616 45.9551 112.616C46.7951 112.616 47.4551 112.84 47.9351 113.288C48.4231 113.728 48.6671 114.356 48.6671 115.172V117.512C48.6671 117.664 48.6911 117.772 48.7391 117.836C48.7951 117.9 48.8871 117.936 49.0151 117.944V119C48.8951 119.024 48.7871 119.04 48.6911 119.048C48.5951 119.056 48.5151 119.06 48.4511 119.06C48.1711 119.06 47.9591 118.992 47.8151 118.856C47.6711 118.72 47.5871 118.56 47.5631 118.376L47.5271 118.016C47.2551 118.368 46.9071 118.64 46.4831 118.832C46.0591 119.024 45.6311 119.12 45.1991 119.12C44.7831 119.12 44.4111 119.036 44.0831 118.868C43.7551 118.692 43.4991 118.456 43.3151 118.16C43.1311 117.864 43.0391 117.532 43.0391 117.164ZM47.0351 117.548C47.1311 117.444 47.2071 117.34 47.2631 117.236C47.3191 117.132 47.3471 117.04 47.3471 116.96V116.24C47.1231 116.152 46.8871 116.088 46.6391 116.048C46.3911 116 46.1471 115.976 45.9071 115.976C45.4271 115.976 45.0351 116.072 44.7311 116.264C44.4351 116.456 44.2871 116.72 44.2871 117.056C44.2871 117.24 44.3351 117.416 44.4311 117.584C44.5351 117.752 44.6791 117.888 44.8631 117.992C45.0551 118.096 45.2911 118.148 45.5711 118.148C45.8591 118.148 46.1351 118.092 46.3991 117.98C46.6631 117.868 46.8751 117.724 47.0351 117.548ZM50.2619 120.476C50.3819 120.492 50.4979 120.508 50.6099 120.524C50.7299 120.548 50.8259 120.56 50.8979 120.56C51.0339 120.56 51.1499 120.516 51.2459 120.428C51.3499 120.348 51.4539 120.196 51.5579 119.972C51.6619 119.748 51.7899 119.424 51.9419 119L49.3619 112.724H50.7419L52.6619 117.656L54.3659 112.724H55.6379L52.7939 120.452C52.7059 120.684 52.5779 120.896 52.4099 121.088C52.2419 121.288 52.0339 121.444 51.7859 121.556C51.5379 121.668 51.2459 121.724 50.9099 121.724C50.8139 121.724 50.7139 121.716 50.6099 121.7C50.5059 121.684 50.3899 121.66 50.2619 121.628V120.476Z" fill="#172752"/>
</g>
<defs>
<clipPath id="clip0_413_1410">
<rect width="89" height="128" fill="white"/>
</clipPath>
</defs>
</svg>
