<svg width="40" height="40" viewBox="0 0 40 40" fill="none" xmlns="http://www.w3.org/2000/svg">
<path d="M37.3363 30.1321L32.2307 30.284L32.7514 35.3184L27.9021 33.7309L26.653 38.6373L22.6432 35.5043L19.7757 39.6909L17.0897 35.3864L12.9508 38.3494L11.9135 33.395L6.99973 34.7766L7.73428 29.7702L2.64085 29.4043L5.06043 24.9478L0.400879 22.8765L4.21287 19.5096L0.548193 15.9847L5.2925 14.1114L3.06665 9.55886L8.17016 9.40491L7.65154 4.37256L12.5008 5.96004L13.7499 1.05365L17.7577 4.18662L20.6252 0L23.3112 4.30458L27.4501 1.34156L28.4894 6.29593L33.4012 4.91438L32.6666 9.92074L37.76 10.2866L35.3405 14.7431L40 16.8145L36.19 20.1814L39.8527 23.7062L35.1084 25.5796L37.3363 30.1321Z" fill="#FF8C45"/>
<path d="M20.2014 34.3668C28.2961 34.3668 34.8581 27.8654 34.8581 19.8455C34.8581 11.8257 28.2961 5.32431 20.2014 5.32431C12.1067 5.32431 5.54468 11.8257 5.54468 19.8455C5.54468 27.8654 12.1067 34.3668 20.2014 34.3668Z" fill="#FFD105"/>
</svg>
