<svg width="89" height="128" viewBox="0 0 89 128" fill="none" xmlns="http://www.w3.org/2000/svg">
<g clip-path="url(#clip0_413_1416)">
<rect width="89" height="128" rx="6" fill="#FFF3DA"/>
<ellipse cx="40" cy="133.5" rx="86" ry="52.5" fill="#58FF9B"/>
<ellipse cx="42.5" cy="90.5" rx="21.5" ry="6.5" fill="#838383" fill-opacity="0.2"/>
<path d="M21 40.3024C22.8006 49.2479 30.7862 55.987 40.3586 55.9697C51.4935 55.9488 60.4705 46.6584 60.0081 35.6502C59.5877 25.6041 51.4848 17.52 41.3606 17C44.4574 19.9206 46.3386 24.0892 46.1845 28.6893C45.92 36.5897 39.5512 43.0774 31.5779 43.5558C27.5807 43.7967 23.8814 42.5401 21 40.3024Z" fill="#FFD105"/>
<path d="M28.1458 117.812V119H22.3018V110.48H28.0378V111.668H23.6458V114.092H27.4498V115.208H23.6458V117.812H28.1458ZM30.9756 119L28.5876 112.724H29.9556L31.7436 117.776L33.5316 112.724H34.8036L32.4156 119H30.9756ZM38.384 119.12C37.896 119.12 37.452 119.036 37.052 118.868C36.66 118.692 36.32 118.456 36.032 118.16C35.744 117.856 35.52 117.512 35.36 117.128C35.208 116.736 35.132 116.32 35.132 115.88C35.132 115.288 35.268 114.748 35.54 114.26C35.812 113.764 36.192 113.368 36.68 113.072C37.168 112.768 37.74 112.616 38.396 112.616C39.052 112.616 39.616 112.768 40.088 113.072C40.568 113.368 40.94 113.76 41.204 114.248C41.468 114.736 41.6 115.26 41.6 115.82C41.6 115.916 41.596 116.008 41.588 116.096C41.58 116.176 41.572 116.244 41.564 116.3H36.536C36.56 116.668 36.66 116.992 36.836 117.272C37.02 117.544 37.252 117.76 37.532 117.92C37.812 118.072 38.112 118.148 38.432 118.148C38.784 118.148 39.116 118.06 39.428 117.884C39.748 117.708 39.964 117.476 40.076 117.188L41.204 117.512C41.068 117.816 40.86 118.092 40.58 118.34C40.308 118.58 39.984 118.772 39.608 118.916C39.232 119.052 38.824 119.12 38.384 119.12ZM36.5 115.424H40.292C40.268 115.064 40.164 114.748 39.98 114.476C39.804 114.196 39.576 113.98 39.296 113.828C39.024 113.668 38.72 113.588 38.384 113.588C38.056 113.588 37.752 113.668 37.472 113.828C37.2 113.98 36.976 114.196 36.8 114.476C36.624 114.748 36.524 115.064 36.5 115.424ZM48.3048 119H46.9848V115.484C46.9848 114.9 46.8888 114.472 46.6968 114.2C46.5128 113.928 46.2368 113.792 45.8688 113.792C45.6128 113.792 45.3568 113.856 45.1008 113.984C44.8528 114.112 44.6288 114.288 44.4288 114.512C44.2288 114.728 44.0848 114.98 43.9968 115.268V119H42.6768V112.724H43.8768V113.984C44.0368 113.704 44.2448 113.464 44.5008 113.264C44.7648 113.056 45.0608 112.896 45.3888 112.784C45.7168 112.672 46.0648 112.616 46.4328 112.616C46.8088 112.616 47.1168 112.684 47.3568 112.82C47.6048 112.956 47.7968 113.144 47.9328 113.384C48.0768 113.616 48.1728 113.888 48.2208 114.2C48.2768 114.504 48.3048 114.828 48.3048 115.172V119ZM49.8369 119V112.724H51.1569V119H49.8369ZM49.8369 111.692V110.24H51.1569V111.692H49.8369ZM58.3712 119H57.0512V115.484C57.0512 114.9 56.9552 114.472 56.7632 114.2C56.5792 113.928 56.3032 113.792 55.9352 113.792C55.6792 113.792 55.4232 113.856 55.1672 113.984C54.9192 114.112 54.6952 114.288 54.4952 114.512C54.2952 114.728 54.1512 114.98 54.0632 115.268V119H52.7432V112.724H53.9432V113.984C54.1032 113.704 54.3112 113.464 54.5672 113.264C54.8312 113.056 55.1272 112.896 55.4552 112.784C55.7832 112.672 56.1312 112.616 56.4992 112.616C56.8752 112.616 57.1832 112.684 57.4232 112.82C57.6712 112.956 57.8632 113.144 57.9992 113.384C58.1432 113.616 58.2392 113.888 58.2872 114.2C58.3432 114.504 58.3712 114.828 58.3712 115.172V119ZM62.3873 119.06C61.9633 119.06 61.5753 118.976 61.2233 118.808C60.8713 118.632 60.5673 118.396 60.3113 118.1C60.0633 117.804 59.8673 117.464 59.7233 117.08C59.5873 116.696 59.5193 116.292 59.5193 115.868C59.5193 115.42 59.5913 115 59.7353 114.608C59.8793 114.216 60.0793 113.872 60.3353 113.576C60.5993 113.272 60.9073 113.036 61.2593 112.868C61.6113 112.7 62.0033 112.616 62.4353 112.616C62.9393 112.616 63.3793 112.736 63.7553 112.976C64.1393 113.216 64.4553 113.528 64.7033 113.912V112.724H65.8673V118.82C65.8673 119.428 65.7193 119.944 65.4233 120.368C65.1353 120.792 64.7393 121.116 64.2353 121.34C63.7313 121.564 63.1633 121.676 62.5313 121.676C61.8353 121.676 61.2593 121.556 60.8033 121.316C60.3473 121.076 59.9593 120.748 59.6393 120.332L60.3833 119.636C60.6233 119.972 60.9313 120.228 61.3073 120.404C61.6913 120.58 62.0993 120.668 62.5313 120.668C62.8913 120.668 63.2233 120.6 63.5273 120.464C63.8393 120.336 64.0873 120.132 64.2713 119.852C64.4553 119.58 64.5473 119.236 64.5473 118.82V117.86C64.3233 118.236 64.0153 118.532 63.6233 118.748C63.2313 118.956 62.8193 119.06 62.3873 119.06ZM62.8193 117.992C63.0193 117.992 63.2113 117.96 63.3953 117.896C63.5793 117.824 63.7473 117.732 63.8993 117.62C64.0593 117.5 64.1953 117.368 64.3073 117.224C64.4193 117.072 64.4993 116.912 64.5473 116.744V115.1C64.4433 114.828 64.2953 114.592 64.1033 114.392C63.9113 114.184 63.6953 114.024 63.4553 113.912C63.2153 113.8 62.9713 113.744 62.7233 113.744C62.4353 113.744 62.1753 113.808 61.9433 113.936C61.7193 114.056 61.5273 114.22 61.3673 114.428C61.2073 114.628 61.0833 114.856 60.9953 115.112C60.9073 115.368 60.8633 115.632 60.8633 115.904C60.8633 116.192 60.9113 116.46 61.0073 116.708C61.1113 116.956 61.2513 117.18 61.4273 117.38C61.6033 117.572 61.8113 117.724 62.0513 117.836C62.2913 117.94 62.5473 117.992 62.8193 117.992Z" fill="#172752"/>
</g>
<defs>
<clipPath id="clip0_413_1416">
<rect width="89" height="128" fill="white"/>
</clipPath>
</defs>
</svg>
