<svg width="215" height="169" viewBox="0 0 215 169" fill="none" xmlns="http://www.w3.org/2000/svg">
<path d="M107.17 146.457C69.4114 146.457 38.6943 115.879 38.6943 78.2919C38.6943 40.7047 69.4114 10.1272 107.17 10.1272C144.929 10.1272 175.646 40.7096 175.646 78.2919C175.646 115.879 144.929 146.457 107.17 146.457Z" fill="white"/>
<path d="M58.9326 4.50483C60.0204 4.50483 60.9022 3.62698 60.9022 2.5441C60.9022 1.46122 60.0204 0.583374 58.9326 0.583374C57.8447 0.583374 56.9629 1.46122 56.9629 2.5441C56.9629 3.62698 57.8447 4.50483 58.9326 4.50483Z" fill="#457C9D"/>
<path d="M187.188 114.247C188.276 114.247 189.158 113.369 189.158 112.286C189.158 111.203 188.276 110.325 187.188 110.325C186.1 110.325 185.219 111.203 185.219 112.286C185.219 113.369 186.1 114.247 187.188 114.247Z" fill="#457C9D"/>
<path d="M15.2847 78.2919C15.2847 79.3752 16.1661 80.2526 17.2543 80.2526C18.3426 80.2526 19.224 79.3752 19.224 78.2919C19.224 77.2086 18.3426 76.3312 17.2543 76.3312C16.1661 76.3312 15.2847 77.2086 15.2847 78.2919Z" fill="#457C9D"/>
<path d="M70.1894 117.59C71.2772 117.59 72.1591 116.712 72.1591 115.629C72.1591 114.546 71.2772 113.668 70.1894 113.668C69.1016 113.668 68.2197 114.546 68.2197 115.629C68.2197 116.712 69.1016 117.59 70.1894 117.59Z" fill="#457C9D"/>
<path d="M49.8376 76.993C50.9254 76.993 51.8073 76.1151 51.8073 75.0323C51.8073 73.9494 50.9254 73.0715 49.8376 73.0715C48.7498 73.0715 47.8679 73.9494 47.8679 75.0323C47.8679 76.1151 48.7498 76.993 49.8376 76.993Z" fill="#457C9D"/>
<path d="M178.93 34.9402C178.93 35.597 179.467 36.1313 180.127 36.1313C180.787 36.1313 181.323 35.597 181.323 34.9402C181.323 34.2833 180.787 33.749 180.127 33.749C179.467 33.749 178.93 34.2833 178.93 34.9402Z" fill="#457C9D"/>
<path d="M198.696 61.2777C198.696 61.9345 199.233 62.4688 199.893 62.4688C200.552 62.4688 201.089 61.9345 201.089 61.2777C201.089 60.6208 200.552 60.0865 199.893 60.0865C199.233 60.0865 198.696 60.6208 198.696 61.2777Z" fill="#457C9D"/>
<path d="M27.925 37.6607C27.925 38.3176 28.4618 38.8519 29.1216 38.8519C29.7815 38.8519 30.3182 38.3176 30.3182 37.6607C30.3182 37.0039 29.7815 36.4696 29.1216 36.4696C28.4618 36.4696 27.925 37.0039 27.925 37.6607Z" fill="#457C9D"/>
<path d="M31.5295 96.8894C31.5295 97.5462 32.0663 98.0805 32.7261 98.0805C33.386 98.0805 33.9227 97.5462 33.9227 96.8894C33.9227 96.2325 33.386 95.6982 32.7261 95.6982C32.0663 95.6982 31.5295 96.2325 31.5295 96.8894Z" fill="#457C9D"/>
<path d="M12.1184 118.85C12.1184 119.506 12.6551 120.041 13.315 120.041C13.9748 120.041 14.5116 119.506 14.5116 118.85C14.5116 118.193 13.9748 117.658 13.315 117.658C12.6551 117.658 12.1184 118.188 12.1184 118.85Z" fill="#457C9D"/>
<path d="M199.893 88.0661C199.893 88.723 200.429 89.2573 201.089 89.2573C201.749 89.2573 202.286 88.723 202.286 88.0661C202.286 87.4093 201.749 86.875 201.089 86.875C200.429 86.875 199.893 87.4044 199.893 88.0661Z" fill="#457C9D"/>
<path d="M181.328 128.374C181.328 129.031 181.865 129.565 182.525 129.565C183.185 129.565 183.722 129.031 183.722 128.374C183.722 127.717 183.185 127.183 182.525 127.183C181.86 127.183 181.328 127.717 181.328 128.374Z" fill="#457C9D"/>
<path d="M153.728 8.00474C153.728 8.66158 154.265 9.19588 154.925 9.19588C155.585 9.19588 156.121 8.66158 156.121 8.00474C156.121 7.3479 155.585 6.8136 154.925 6.8136C154.26 6.8136 153.728 7.3479 153.728 8.00474Z" fill="#457C9D"/>
<path d="M80.2151 22.6416C80.2151 23.2985 80.7518 23.8328 81.4117 23.8328C82.0715 23.8328 82.6082 23.2985 82.6082 22.6416C82.6082 21.9848 82.0715 21.4505 81.4117 21.4505C80.7469 21.4456 80.2151 21.9799 80.2151 22.6416Z" fill="#457C9D"/>
<path d="M193.097 14.2888C193.097 14.9456 193.634 15.4799 194.294 15.4799C194.954 15.4799 195.49 14.9456 195.49 14.2888C195.49 13.632 194.954 13.0977 194.294 13.0977C193.634 13.0977 193.097 13.632 193.097 14.2888Z" fill="#457C9D"/>
<path d="M149.178 75.1106C149.178 75.7674 149.715 76.3017 150.375 76.3017C151.035 76.3017 151.571 75.7674 151.571 75.1106C151.571 74.4537 151.035 73.9194 150.375 73.9194C149.71 73.9194 149.178 74.4537 149.178 75.1106Z" fill="#457C9D"/>
<path d="M169.417 148.236C160.75 141.962 136.159 137.432 107.175 137.432C78.191 137.432 53.5947 141.957 44.933 148.236H41.5994V153.216C41.5994 161.932 70.9623 169 107.18 169C143.397 169 172.76 161.936 172.76 153.216V148.236H169.417Z" fill="#516BB2"/>
<path d="M107.17 164.015C143.389 164.015 172.75 156.95 172.75 148.236C172.75 139.521 143.389 132.457 107.17 132.457C70.9509 132.457 41.5896 139.521 41.5896 148.236C41.5896 156.95 70.9509 164.015 107.17 164.015Z" fill="#7E97CD"/>
<path d="M107.17 162.098C141.624 162.098 169.555 155.635 169.555 147.662C169.555 139.69 141.624 133.226 107.17 133.226C72.7159 133.226 44.7854 139.69 44.7854 147.662C44.7854 155.635 72.7159 162.098 107.17 162.098Z" fill="#516BB2"/>
<path d="M107.17 158.25C138.834 158.25 164.502 153.124 164.502 146.8C164.502 140.476 138.834 135.349 107.17 135.349C75.5062 135.349 49.8376 140.476 49.8376 146.8C49.8376 153.124 75.5062 158.25 107.17 158.25Z" fill="#7E97CD"/>
<path d="M153.364 155.206C153.359 155.197 153.359 155.187 153.354 155.177C153.329 155.084 153.3 154.991 153.26 154.897V154.893C153.172 154.692 153.044 154.491 152.881 154.295C152.576 153.927 152.138 153.564 151.567 153.221C151.207 153.005 150.867 152.795 150.537 152.594C148.134 151.123 143.25 149.927 140.743 149.687C138.311 149.452 134.588 149.025 134.174 149.074C134.155 149.074 134.145 149.079 134.135 149.079H134.022C134.027 148.937 134.027 148.795 134.012 148.662C134.012 148.662 133.815 148.594 133.455 148.466L133.48 148.461C132.805 148.226 131.732 147.858 130.486 147.432C133.47 146.79 136.05 146.153 137.986 145.55C145.298 143.261 146.14 139.569 143.21 137.045C143.205 137.045 143.205 137.04 143.2 137.04C143.082 136.937 142.954 136.834 142.826 136.736C142.816 136.726 142.806 136.722 142.797 136.717C142.673 136.624 142.54 136.53 142.408 136.442C142.383 136.427 142.358 136.413 142.334 136.398C142.211 136.32 142.083 136.236 141.95 136.163C141.905 136.138 141.856 136.114 141.812 136.089C141.694 136.025 141.58 135.962 141.457 135.898C141.393 135.869 141.329 135.839 141.265 135.805C141.152 135.751 141.044 135.697 140.93 135.648C140.842 135.609 140.748 135.57 140.655 135.535C140.561 135.496 140.467 135.457 140.369 135.418C140.266 135.378 140.162 135.344 140.054 135.305C139.96 135.271 139.867 135.236 139.773 135.202C139.571 135.133 139.364 135.07 139.148 135.006C138.631 134.859 138.079 134.727 137.508 134.624C136.705 134.477 135.849 134.374 134.947 134.325C134.874 134.32 134.8 134.32 134.721 134.315L134.79 134.29L133.002 133.977L85.4937 133.638L79.9688 134.408H79.9737C79.9294 134.413 79.8802 134.418 79.8358 134.423C78.3093 134.589 76.9306 134.913 75.7438 135.354C75.5469 135.427 75.3548 135.506 75.1677 135.584C74.4242 135.903 73.7643 136.266 73.2128 136.668C73.2079 136.668 73.2079 136.673 73.2079 136.673C73.2079 136.673 73.203 136.673 73.203 136.677C73.203 136.677 73.203 136.677 73.198 136.677C73.0602 136.78 72.9321 136.883 72.8041 136.986C72.7746 137.011 72.745 137.035 72.7155 137.06C72.5973 137.163 72.484 137.266 72.3806 137.369C72.3757 137.373 72.3708 137.378 72.3659 137.378C72.2477 137.501 72.1344 137.623 72.031 137.746L72.0261 137.751C71.9227 137.878 71.8291 138.006 71.7454 138.133C70.145 140.55 71.6321 143.569 77.9499 145.55C79.3336 145.986 81.062 146.412 83.0366 146.834C83.0366 146.834 83.0415 146.834 83.0464 146.834C83.4256 146.912 83.8146 146.996 84.2085 147.074C84.2134 147.074 84.2134 147.074 84.2184 147.074C84.6911 147.167 85.1786 147.265 85.6759 147.358C84.4203 147.79 83.4354 148.133 82.7953 148.358C82.5097 148.457 82.2979 148.535 82.1502 148.584L80.4366 148.682H80.2249C80.2199 148.677 80.2052 148.677 80.1855 148.677C79.7571 148.633 75.6503 149.094 73.2128 149.329C70.7064 149.569 66.2303 150.731 63.8273 152.201C63.4974 152.402 63.1576 152.613 62.7981 152.829C62.2269 153.172 61.7887 153.53 61.4834 153.902C61.3209 154.098 61.1929 154.295 61.1042 154.5C61.1042 154.5 61.1042 154.505 61.0993 154.505C61.0599 154.598 61.0304 154.687 61.0057 154.78C61.0008 154.79 60.9959 154.804 60.9959 154.814C60.9713 154.917 60.9565 155.02 60.9516 155.123C60.8876 156.25 61.9167 157.128 62.8228 157.765C63.4826 158.231 64.6398 158.461 66.3583 158.461C67.9636 158.461 69.9875 158.26 72.2034 157.883C75.5666 157.304 80.1658 154.878 81.4854 154.177L83.4403 153.559C83.7555 153.731 84.1741 153.961 84.5532 154.167C85.1441 154.491 85.9024 154.618 86.6411 154.525C89.9255 154.098 99.636 152.785 110.011 151.138C111.533 151.368 112.99 151.579 114.305 151.726C123.11 153.197 129.496 154.559 129.496 154.559C129.925 154.412 130.353 154.187 130.772 153.907L132.027 154.304L132.894 154.579C134.214 155.28 138.813 157.706 142.176 158.285C144.392 158.667 146.416 158.863 148.021 158.863C149.74 158.863 150.897 158.638 151.557 158.167C152.463 157.53 153.492 156.652 153.428 155.525C153.403 155.412 153.388 155.309 153.364 155.206Z" fill="#7E97CD"/>
<path d="M106.244 117.624L80.0032 122.869L108.79 135.138L133.037 122.707L115.3 118.247L106.244 117.624Z" fill="#271B26"/>
<path d="M85.3212 148.613L82.7114 142.55L80.4462 142.741H80.2443C80.0474 142.628 75.8914 143.305 73.4588 143.638C71.0361 143.976 66.7028 145.589 64.3786 147.633C64.0585 147.912 63.7286 148.207 63.3839 148.506C62.2415 149.496 61.6407 150.569 61.5964 151.697C61.5324 153.26 62.532 154.481 63.4085 155.373C64.0487 156.025 65.1665 156.339 66.8308 156.339C68.3869 156.339 70.3418 156.059 72.4838 155.53C75.7387 154.726 80.1902 151.353 81.4606 150.373L85.3212 148.613Z" fill="#63301A"/>
<path d="M81.8791 149.334C80.6038 150.309 76.1572 153.687 72.9023 154.491C70.7554 155.02 68.8005 155.299 67.2494 155.299C65.5899 155.299 64.4672 154.986 63.827 154.334C62.9505 153.447 61.9559 152.226 62.0149 150.657C62.0248 150.437 62.0593 150.216 62.1134 149.996C61.7983 150.545 61.621 151.113 61.6013 151.692C61.5373 153.255 62.5369 154.476 63.4134 155.368C64.0536 156.02 65.1713 156.334 66.8357 156.334C68.3918 156.334 70.3467 156.054 72.4887 155.525C75.7436 154.721 80.1951 151.349 81.4655 150.368L85.3261 148.608L85.0208 147.903L81.8791 149.334Z" fill="#4B2012"/>
<path d="M85.3211 148.613L82.7113 142.55L80.4462 142.741H80.2443C80.2394 142.736 80.2246 142.736 80.2049 142.731C80.0178 142.952 78.2155 145.192 79.2742 147.006C79.678 147.697 80.3231 148.706 81.1996 149.123C81.1996 149.123 81.7314 149.54 82.2977 149.986L85.3211 148.613Z" fill="#4B2012"/>
<path d="M127.325 149.162L129.935 143.099L132.2 143.29H132.402C132.599 143.177 136.366 143.8 138.793 144.138C141.216 144.476 145.943 146.138 148.267 148.182C148.587 148.461 148.917 148.755 149.262 149.054C150.404 150.045 151.005 151.118 151.049 152.246C151.113 153.809 150.114 155.03 149.237 155.922C148.597 156.574 147.479 156.888 145.815 156.888C144.259 156.888 142.304 156.608 140.162 156.079C136.907 155.275 132.456 151.902 131.185 150.922L127.325 149.162Z" fill="#63301A"/>
<path d="M130.767 149.883C132.042 150.858 136.488 154.236 139.743 155.04C141.89 155.569 143.845 155.848 145.396 155.848C147.056 155.848 148.178 155.535 148.819 154.883C149.695 153.995 150.69 152.775 150.631 151.206C150.621 150.986 150.586 150.765 150.532 150.545C150.847 151.094 151.025 151.662 151.044 152.241C151.108 153.804 150.109 155.025 149.232 155.917C148.592 156.569 147.474 156.883 145.81 156.883C144.254 156.883 142.299 156.603 140.157 156.074C136.902 155.27 132.451 151.898 131.18 150.917L127.32 149.157L127.625 148.452L130.767 149.883Z" fill="#4B2012"/>
<path d="M127.325 149.162L129.935 143.099L132.2 143.29H132.402C132.406 143.285 132.421 143.285 132.441 143.28C132.628 143.501 134.43 145.741 133.372 147.555C132.968 148.246 132.323 149.255 131.446 149.672C131.446 149.672 130.914 150.089 130.348 150.535L127.325 149.162Z" fill="#4B2012"/>
<path d="M127.901 150.893C127.901 150.893 115.044 146.957 100.857 144.29C94.3129 143.065 87.8622 141.658 82.9824 140.168C82.9774 140.168 82.9725 140.163 82.9725 140.163C81.0619 139.579 79.3926 138.981 78.0533 138.378C70.6226 135.031 70.1007 129.536 73.4541 126.021L73.459 126.016L73.4639 126.011C75.6109 123.771 79.3335 122.345 83.849 122.791C87.7736 123.183 94.5788 125.585 101.876 128.599C101.881 128.599 101.886 128.604 101.891 128.604C101.896 128.604 101.896 128.604 101.896 128.609C102.994 129.06 104.102 129.531 105.21 130.006C106.988 130.771 108.775 131.555 110.533 132.339C121.962 137.457 132.274 142.712 132.274 142.712C132.52 145.452 130.156 149.77 127.901 150.893Z" fill="#131313"/>
<path d="M80.1805 125.33C84.2775 125.32 91.6342 127.354 99.5769 130.055C99.5819 130.055 99.5868 130.06 99.5917 130.06C99.5966 130.06 99.5966 130.06 99.6015 130.065C100.793 130.472 102.005 130.893 103.216 131.325C105.156 132.016 107.106 132.731 109.031 133.457C119.835 137.521 129.787 141.805 132.288 142.888C132.283 142.829 132.288 142.77 132.283 142.716C132.283 142.716 121.972 137.462 110.543 132.344C108.785 131.555 106.998 130.771 105.22 130.011C104.107 129.536 102.999 129.07 101.906 128.614C101.906 128.614 101.901 128.614 101.901 128.609C101.896 128.609 101.891 128.604 101.886 128.604C94.5936 125.59 87.7835 123.188 83.8589 122.796C79.3434 122.345 75.6207 123.776 73.4738 126.016C73.4689 126.021 73.4689 126.021 73.4689 126.021L73.4639 126.026C72.8681 126.648 72.3954 127.339 72.0605 128.065C74.0696 126.408 76.8518 125.335 80.1805 125.33Z" fill="#252525"/>
<path opacity="0.2" d="M120.258 136.922C120.298 136.913 120.342 136.903 120.382 136.888C117.373 135.462 114.01 133.893 110.538 132.339C108.78 131.55 106.993 130.766 105.215 130.006C105.013 129.918 104.816 129.839 104.614 129.751C103.043 130.516 101.482 131.276 99.9314 132.011C95.7803 133.967 91.6637 136.001 87.6504 138.226C86.4342 138.903 85.2671 139.697 84.1001 140.501C88.6107 141.805 94.2636 143.04 100.035 144.138C106.574 141.212 113.36 138.854 120.258 136.922Z" fill="black"/>
<path opacity="0.2" d="M131.766 142.432L113.212 146.952C109.317 146.329 104.073 144.903 99.9313 144.113L96.5386 142.712L122.977 138.123C126.069 139.614 130.122 141.609 131.766 142.432Z" fill="black"/>
<path d="M136.124 138.378C125.183 143.305 92.9194 149.643 86.449 150.849C85.735 150.981 85.0013 150.8 84.4301 150.353C83.7259 149.804 82.8691 149.128 82.8691 149.128C81.9876 148.706 81.3426 147.697 80.9437 147.01C79.8309 145.099 81.8941 142.712 81.8941 142.712C82.0517 142.633 93.1409 136.986 105.023 131.722C105.028 131.722 105.028 131.722 105.033 131.717C114.802 127.384 125.114 123.31 130.324 122.791C132.269 122.599 134.071 122.751 135.661 123.173C136.218 123.32 136.745 123.496 137.247 123.707C143.86 126.442 145.544 134.138 136.124 138.378Z" fill="#131313"/>
<path d="M101.153 135.506C101.158 135.506 101.158 135.501 101.162 135.501C111.956 130.227 123.356 125.227 129.176 124.467C131.348 124.183 133.372 124.3 135.164 124.732C135.789 124.884 136.39 125.07 136.956 125.29C139.724 126.369 141.757 128.246 142.698 130.447C142.619 127.658 140.546 125.065 137.252 123.702C136.75 123.496 136.218 123.315 135.666 123.168C134.076 122.746 132.273 122.594 130.328 122.786C125.114 123.305 114.807 127.379 105.038 131.712C105.033 131.712 105.033 131.712 105.028 131.717C93.1409 136.986 82.0516 142.628 81.899 142.707C81.899 142.707 81.2145 143.501 80.8452 144.54C86.4686 142.221 94.1258 138.942 101.153 135.506Z" fill="#252525"/>
<path d="M129.28 71.2871V67.4441C128.196 66.2186 126.955 65.2677 125.606 64.802L112.306 60.8708L112.321 61.2041C111.227 60.4884 110.435 59.9933 110.307 59.9835L103.644 59.4296C103.482 59.4149 102.881 59.7875 102.034 60.3806L88.7337 64.3118C87.3845 64.7824 86.1387 65.7285 85.0603 66.9539V70.7969C88.8421 79.081 87.3796 88.4925 88.6648 97.5903L90.3341 87.1102L88.4235 121.266C88.4235 121.266 105.141 136.927 125.921 121.756L124.011 87.6004L125.68 98.0805C126.965 88.9827 125.498 79.5712 129.28 71.2871Z" fill="#457C9D"/>
<path d="M89.0882 109.325L88.6746 116.703C92.5745 119.756 107.534 129.575 125.655 117.09L125.242 109.673C107.889 121.335 93.5052 112.644 89.0882 109.325Z" fill="#002858"/>
<path d="M89.8121 96.4237L89.3984 103.821C94.1207 107.267 108.105 115.247 124.936 104.149L124.523 96.7227C108.337 107.124 94.8544 99.9677 89.8121 96.4237Z" fill="#002858"/>
<path d="M121.027 37.7979C121.027 37.7979 124.144 33.6363 127.147 36.2636C130.156 38.891 126.118 47.278 120.426 45.4496L121.027 37.7979Z" fill="#F8D0B7"/>
<path d="M120.8 40.6949L120.495 44.6311C125.399 45.4007 128.043 38.5675 125.773 37.6754C123.942 36.9597 121.736 39.3812 120.8 40.6949Z" fill="#EFBDAC"/>
<path d="M126.591 39.0626C126.591 39.0626 126.581 39.0332 126.566 38.9792C126.551 38.9204 126.522 38.842 126.487 38.744C126.413 38.5479 126.281 38.2685 126.034 38.0724C125.975 38.0234 125.906 37.9842 125.832 37.9499C125.793 37.9352 125.759 37.9156 125.719 37.9058L125.69 37.8959C125.714 37.9057 125.695 37.8959 125.699 37.8959H125.695L125.685 37.891L125.665 37.8861L125.586 37.8665C125.532 37.8518 125.488 37.8469 125.448 37.842C125.409 37.8322 125.365 37.8322 125.31 37.8273C125.261 37.8224 125.217 37.8224 125.168 37.8273C125.118 37.8273 125.069 37.8273 125.02 37.8371C124.621 37.8714 124.198 38.0381 123.799 38.2636C123.597 38.3763 123.405 38.5038 123.213 38.6361C123.026 38.7685 122.839 38.9057 122.666 39.0479C122.317 39.3273 122.001 39.6116 121.726 39.8518C121.179 40.3567 120.815 40.69 120.815 40.69C120.815 40.69 120.859 40.5723 120.962 40.3763C121.061 40.1851 121.218 39.9106 121.435 39.6018C121.543 39.4498 121.662 39.2832 121.804 39.1165C121.942 38.9498 122.095 38.7783 122.267 38.6116C122.607 38.2783 123.006 37.945 123.469 37.6852C123.7 37.5577 123.946 37.445 124.207 37.3666C124.464 37.2881 124.739 37.244 125.005 37.2489C125.074 37.2489 125.138 37.2538 125.207 37.2587C125.271 37.2636 125.335 37.2734 125.399 37.2881C125.463 37.2979 125.522 37.3126 125.591 37.3371C125.655 37.3567 125.719 37.3764 125.764 37.396L125.837 37.4254L125.882 37.445L125.926 37.4646C125.98 37.494 126.034 37.5234 126.084 37.5626C126.177 37.6361 126.261 37.7146 126.33 37.7979C126.468 37.9646 126.537 38.1459 126.581 38.2979C126.625 38.4548 126.635 38.592 126.635 38.7047C126.64 38.8175 126.63 38.9008 126.62 38.9596C126.596 39.0332 126.591 39.0626 126.591 39.0626Z" fill="#EFBDAC"/>
<path d="M90.339 32.5628C90.4473 42.435 97.095 50.6112 107.712 50.4985C118.323 50.3858 125.04 40.3763 125.749 30.5285C126.734 16.8034 117.939 14.6319 107.323 14.7446C96.7109 14.8574 90.2307 22.6905 90.339 32.5628Z" fill="#AC742A"/>
<path d="M152.458 104.419C153.246 104.144 154.019 103.855 154.777 103.566C160.302 101.448 164.882 99.0854 165.975 98.4285C166.098 98.355 166.191 98.2569 166.26 98.1344C166.329 98.0168 166.364 97.8795 166.364 97.7374C166.364 97.1835 165.812 96.7962 165.29 96.9776L162.025 98.1246L166.945 95.6835C167.304 95.507 167.467 95.0904 167.329 94.7178L167.289 94.6051C167.137 94.1933 166.674 93.9826 166.265 94.1492L161.632 95.9825L166.728 93.213C167.009 93.0806 167.176 92.8012 167.176 92.5071C167.176 92.4287 167.166 92.3552 167.142 92.2767C167.009 91.8405 166.526 91.615 166.103 91.7817L160.553 94.3649C161.705 92.0807 160.607 91.6297 159.854 91.4728C159.312 91.3601 157.766 90.8307 156.875 90.9827C155.58 90.8062 153.093 89.1592 151.936 91.9385C151.724 92.4532 151.557 92.9777 151.429 93.5022C150.852 95.8109 151.005 97.9775 151.005 97.9775C150.267 100.311 152.458 104.419 152.458 104.419ZM154.895 92.7963C155.693 92.6248 156.131 92.0169 156.461 91.8111C157.16 92.4042 158.618 93.1493 158.618 93.1493C158.751 93.7081 158.5 94.7276 156.461 94.7374C156.387 94.7374 156.313 94.7374 156.235 94.7325C154.009 94.6492 154.895 92.7963 154.895 92.7963Z" fill="#F8D0B7"/>
<path d="M151.079 95.556C151.65 96.4776 154.585 101.311 154.644 103.615C153.93 103.889 153.196 104.159 152.458 104.419C152.458 104.419 150.262 100.311 151.01 97.9775C151.01 97.9775 150.936 96.9481 151.079 95.556Z" fill="#EFBDAC"/>
<path d="M133.495 77.2919L135.238 100.473L151.01 97.9776C151.01 97.9776 155.309 105.781 153.113 106.487C150.921 107.193 142.215 109.58 133.677 110.286C126.739 110.86 126.345 105.061 126.443 102.87L124.011 87.6004C124.011 87.6004 120.687 72.645 126.512 65.1942C130.373 67.2089 133.174 73.0665 133.495 77.2919Z" fill="#002858"/>
<path d="M63.3347 97.4874C63.3347 97.4874 63.4874 95.3208 62.9113 93.012C62.7832 92.4924 62.6158 91.963 62.4041 91.4483C61.2469 88.6739 58.7651 90.316 57.4651 90.4925C56.5788 90.3405 55.0326 90.8699 54.486 90.9827C53.7326 91.1395 52.6394 91.5954 53.7867 93.8747L48.2372 91.2915C47.8137 91.1248 47.3311 91.3503 47.1982 91.7866C47.1735 91.865 47.1637 91.9385 47.1637 92.0169C47.1637 92.3111 47.3311 92.5905 47.6118 92.7228L52.7083 95.4923L48.0747 93.6591C47.666 93.4973 47.2031 93.7032 47.0504 94.1149L47.011 94.2277C46.8732 94.6002 47.0406 95.0169 47.3951 95.1933L52.3144 97.6344L49.0497 96.4874C48.5228 96.3011 47.9713 96.6933 47.9762 97.2472C47.9762 97.3893 48.0107 97.5266 48.0796 97.6442C48.1485 97.7619 48.2421 97.8648 48.3652 97.9383C49.4584 98.5952 54.0379 100.958 59.5628 103.075C60.3211 103.365 61.0942 103.649 61.8821 103.928C61.8821 103.928 64.0783 99.8206 63.3347 97.4874ZM58.1053 94.2473C58.0265 94.2473 57.9526 94.2522 57.8787 94.2522C55.8401 94.2473 55.589 93.2228 55.7219 92.664C55.7219 92.664 57.1795 91.9189 57.8787 91.3258C58.2087 91.5317 58.6469 92.1346 59.4446 92.3111C59.4446 92.3062 60.3359 94.159 58.1053 94.2473Z" fill="#F8D0B7"/>
<path d="M63.2609 95.0659C62.6897 95.9875 59.7549 100.821 59.6958 103.125C60.4098 103.399 61.1435 103.669 61.8821 103.928C61.8821 103.928 64.0783 99.8207 63.3299 97.4874C63.3348 97.4874 63.4037 96.458 63.2609 95.0659Z" fill="#EFBDAC"/>
<path d="M106.722 71.2479C111.163 71.2479 114.763 68.2895 114.763 64.6402C114.763 60.9909 111.163 58.0326 106.722 58.0326C102.281 58.0326 98.6807 60.9909 98.6807 64.6402C98.6807 68.2895 102.281 71.2479 106.722 71.2479Z" fill="#002858"/>
<path d="M91.3091 38.1166C91.3091 38.1166 88.1035 34.0187 85.1539 36.7098C82.2043 39.4009 86.4194 47.6997 92.0724 45.7487L91.3091 38.1166Z" fill="#F8D0B7"/>
<path d="M91.5996 41.0087L91.9935 44.94C87.1087 45.8125 84.3167 39.0382 86.5671 38.1019C88.3792 37.3372 90.6344 39.7146 91.5996 41.0087Z" fill="#EFBDAC"/>
<path d="M85.7743 39.4989C85.7743 39.4989 85.7841 39.4695 85.7989 39.4107C85.8137 39.3519 85.8383 39.2734 85.8728 39.1754C85.9466 38.9793 86.0697 38.6999 86.311 38.499C86.3701 38.4499 86.4391 38.4058 86.5129 38.3715C86.5523 38.3568 86.5868 38.3372 86.6311 38.3274L86.6606 38.3176C86.641 38.3274 86.6557 38.3176 86.6508 38.3225H86.6557H86.6656L86.6853 38.3176L86.7641 38.298C86.8182 38.2833 86.8625 38.2735 86.9019 38.2686C86.9413 38.2637 86.9856 38.2539 87.0398 38.2539C87.0841 38.249 87.1334 38.249 87.1826 38.249C87.2319 38.249 87.2811 38.249 87.3353 38.2539C87.7341 38.2833 88.1625 38.4401 88.5663 38.6558C88.7731 38.7588 88.9701 38.8862 89.1621 39.0137C89.3542 39.146 89.5413 39.2784 89.7186 39.4156C90.0731 39.6901 90.3981 39.9646 90.6788 40.1999C91.2352 40.6901 91.6095 41.0185 91.6095 41.0185C91.6095 41.0185 91.5602 40.9009 91.4568 40.7097C91.3485 40.5185 91.1909 40.2489 90.9693 39.945C90.8561 39.793 90.733 39.6313 90.5902 39.4695C90.4473 39.3078 90.2898 39.1362 90.1174 38.9744C89.7678 38.646 89.364 38.3225 88.8913 38.0774C88.6549 37.9549 88.4087 37.847 88.1477 37.7735C87.8868 37.7 87.611 37.6607 87.3451 37.6706C87.2811 37.6706 87.2122 37.6804 87.1481 37.6853C87.0841 37.6902 87.0201 37.7049 86.9561 37.7196C86.897 37.7294 86.8281 37.749 86.7641 37.7735C86.7 37.7931 86.636 37.8127 86.5966 37.8372L86.5228 37.8715L86.4784 37.8911L86.4391 37.9156C86.3849 37.9451 86.3356 37.9794 86.2864 38.0137C86.1928 38.0872 86.1091 38.1705 86.0451 38.2539C85.9122 38.4254 85.8432 38.6068 85.8038 38.7637C85.7644 38.9205 85.7595 39.0578 85.7595 39.1656C85.7595 39.2734 85.7694 39.3617 85.7792 39.4205C85.7694 39.4695 85.7743 39.4989 85.7743 39.4989Z" fill="#EFBDAC"/>
<path d="M102.758 51.4005L110.804 51.3123C110.804 51.3123 110.937 61.4198 110.966 61.4198C110.966 61.4198 110.715 66.3559 107.145 66.454C103.575 66.5471 102.669 63.9442 102.669 63.9442C102.699 63.8707 102.758 51.4005 102.758 51.4005Z" fill="#F8D0B7"/>
<path d="M103.147 59.6159C104.319 60.8071 106.215 61.5963 107.904 61.1551C109.09 60.8463 110.055 59.9051 110.907 58.9248C110.858 55.9298 110.799 51.3123 110.799 51.3123L102.753 51.4005C102.753 51.4005 102.733 55.6798 102.708 59.2385C102.861 59.3512 103.009 59.4689 103.147 59.6159Z" fill="#EFBDAC"/>
<path d="M102.782 53.0229L110.828 52.9347C110.828 52.9347 110.947 54.5376 111.055 55.8954C111.07 56.0915 108.765 56.464 108.514 56.5081C106.549 56.8414 104.604 56.6111 102.684 56.1454C102.728 54.7533 102.782 53.0229 102.782 53.0229Z" fill="#EFBDAC"/>
<path d="M89.2703 34.5872C89.4033 29.0236 91.7521 23.7444 97.2525 21.5238C100.049 20.3964 103.127 20.068 106.136 20.0876C109.105 20.1023 112.271 20.2592 115.073 21.3033C120.091 23.1709 118.978 24.8032 120.027 29.803C121.031 34.6117 122.735 34.4009 123.168 35.396C123.622 36.4499 123.577 36.4989 123.548 37.6508C123.479 40.239 123.095 42.837 122.272 45.3026C121.278 48.2927 119.589 51.0769 117.117 53.121C115.713 54.2827 114.088 55.1797 112.365 55.8072C109.519 56.8414 106.8 57.1993 103.807 56.6846C101.778 56.3366 99.7983 55.6993 98.0108 54.6945C95.0415 53.0327 92.8059 50.4299 91.3927 47.4054C90.2059 44.8614 89.5707 42.0821 89.3196 39.3027C89.1817 37.7832 89.1374 36.2342 89.2703 34.7097C89.2654 34.6656 89.2703 34.6264 89.2703 34.5872Z" fill="#F8D0B7"/>
<path d="M96.8144 37.1803C96.5928 37.0235 96.3023 37.2391 96.4648 37.445C97.1246 38.3028 98.2474 39.3273 99.8822 39.4106C101.512 39.4989 102.63 38.5479 103.29 37.7146C103.442 37.5234 103.147 37.2833 102.93 37.4205C101.66 38.2293 99.4095 39.0479 96.8144 37.1803Z" fill="#916019"/>
<path d="M110.42 37.1803C110.198 37.0235 109.908 37.2391 110.07 37.445C110.73 38.3028 111.853 39.3273 113.488 39.4106C115.118 39.4989 116.235 38.5479 116.895 37.7146C117.048 37.5234 116.752 37.2833 116.536 37.4205C115.265 38.2293 113.015 39.0479 110.42 37.1803Z" fill="#916019"/>
<path d="M107.101 36.8617C107.101 36.8617 106.84 40.3518 108.475 40.0038C111.641 39.3371 111.892 46.1261 106.993 43.7684C105.141 42.8811 105.53 36.9646 105.53 36.9646L107.101 36.8617Z" fill="#F48470"/>
<path d="M95.5881 31.7883C95.5881 31.7883 95.6522 31.6804 95.7999 31.5187C95.8737 31.4402 95.9624 31.3373 96.0806 31.2393C96.1938 31.1363 96.3317 31.0285 96.4843 30.9158C96.637 30.8079 96.8093 30.7001 97.0014 30.5922C97.1934 30.4893 97.4002 30.3815 97.6218 30.303C97.8385 30.205 98.0749 30.1364 98.3161 30.0677C98.5574 29.9942 98.8086 29.9599 99.0597 29.9109C99.3108 29.8815 99.5669 29.8521 99.818 29.8423C100.069 29.8374 100.315 29.8423 100.552 29.8521C100.788 29.8766 101.015 29.906 101.231 29.9354C101.443 29.9697 101.64 30.0285 101.827 30.0726C102.009 30.1217 102.177 30.1658 102.315 30.2246C102.457 30.2785 102.58 30.3324 102.679 30.3766C102.881 30.4648 102.989 30.5236 102.989 30.5236C102.989 30.5236 102.861 30.5383 102.644 30.5432C102.536 30.5481 102.403 30.553 102.255 30.5481C102.108 30.5432 101.94 30.553 101.763 30.5628C101.586 30.5726 101.394 30.5628 101.187 30.5775C100.985 30.5922 100.773 30.602 100.552 30.6118C100.335 30.6314 100.109 30.656 99.882 30.6707C99.6555 30.7001 99.429 30.7295 99.1976 30.7589C99.0843 30.7785 98.9711 30.7981 98.8578 30.8177C98.7445 30.8373 98.6313 30.852 98.523 30.8814C98.4146 30.9059 98.3014 30.9305 98.193 30.9501C98.0847 30.9697 97.9764 31.004 97.873 31.0285C97.6612 31.0775 97.4593 31.1363 97.2673 31.1903C97.1688 31.2148 97.0802 31.2491 96.9866 31.2785C96.8931 31.3079 96.8044 31.3324 96.7256 31.3618C96.5582 31.4206 96.4006 31.4746 96.2677 31.5236C96.1298 31.5726 96.0116 31.6265 95.9131 31.6608C95.8146 31.7049 95.7359 31.7344 95.6817 31.7589C95.6177 31.7785 95.5881 31.7883 95.5881 31.7883Z" fill="#916019"/>
<path d="M117.245 31.7883C117.245 31.7883 117.181 31.6804 117.033 31.5187C116.959 31.4402 116.871 31.3373 116.752 31.2393C116.639 31.1363 116.501 31.0285 116.349 30.9158C116.196 30.8079 116.024 30.7001 115.832 30.5922C115.64 30.4893 115.433 30.3815 115.211 30.303C114.994 30.205 114.758 30.1364 114.517 30.0677C114.276 29.9942 114.024 29.9599 113.773 29.9109C113.522 29.8815 113.266 29.8521 113.015 29.8423C112.764 29.8374 112.518 29.8423 112.281 29.8521C112.045 29.8766 111.818 29.906 111.602 29.9354C111.39 29.9697 111.193 30.0285 111.006 30.0726C110.824 30.1217 110.656 30.1658 110.518 30.2246C110.376 30.2785 110.252 30.3324 110.154 30.3766C109.952 30.4648 109.844 30.5236 109.844 30.5236C109.844 30.5236 109.972 30.5383 110.188 30.5432C110.297 30.5481 110.43 30.553 110.577 30.5481C110.725 30.5432 110.893 30.553 111.07 30.5628C111.247 30.5726 111.439 30.5628 111.646 30.5775C111.848 30.5922 112.06 30.602 112.281 30.6118C112.498 30.6314 112.724 30.656 112.951 30.6707C113.177 30.7001 113.404 30.7295 113.635 30.7589C113.749 30.7785 113.862 30.7981 113.975 30.8177C114.088 30.8373 114.202 30.852 114.31 30.8814C114.418 30.9059 114.532 30.9305 114.64 30.9501C114.748 30.9697 114.857 31.004 114.96 31.0285C115.172 31.0775 115.374 31.1363 115.566 31.1903C115.664 31.2148 115.753 31.2491 115.846 31.2785C115.94 31.3079 116.029 31.3324 116.107 31.3618C116.275 31.4206 116.432 31.4746 116.565 31.5236C116.703 31.5726 116.821 31.6265 116.92 31.6608C117.018 31.7049 117.097 31.7344 117.151 31.7589C117.215 31.7785 117.245 31.7883 117.245 31.7883Z" fill="#916019"/>
<path d="M89.4821 42.391C89.4821 42.391 89.4329 41.7243 89.295 40.543C89.2704 40.5724 89.2556 40.592 89.2556 40.592L89.4821 42.391Z" fill="#D0932A"/>
<path d="M110.804 47.5281C110.622 47.5281 110.469 47.6408 110.405 47.8075C109.854 49.1751 108.509 50.1407 106.943 50.1407C105.378 50.1407 104.033 49.1751 103.482 47.8075C103.413 47.6408 103.26 47.5281 103.083 47.5281C102.783 47.5281 102.571 47.832 102.679 48.1065C103.354 49.7976 105.008 50.9986 106.943 50.9986C108.879 50.9986 110.533 49.7976 111.208 48.1065C111.316 47.832 111.099 47.5281 110.804 47.5281Z" fill="#F05B4E"/>
<path d="M91.0185 43.6017C91.0185 43.6017 80.6383 30.4452 89.492 20.5533C89.492 20.5533 91.0333 8.52427 107.588 10.1272C124.144 11.7301 122.376 19.9749 126.808 21.8425C126.808 21.8425 110.277 36.6607 93.2935 24.8914C93.2935 24.8914 93.3526 32.3079 90.5556 34.3127L91.0185 43.6017Z" fill="#D0932A"/>
<path d="M91.1809 33.7098C93.3377 31.1363 93.2934 24.8914 93.2934 24.8914L91.1809 22.8572V33.7098Z" fill="#AC742A"/>
<path d="M93.7612 22.6415C93.7612 22.6415 105.584 31.5236 120.421 24.514C120.416 24.514 106.732 28.558 93.7612 22.6415Z" fill="#AC742A"/>
<path d="M95.6719 19.6906C95.6719 19.6906 104.895 25.161 117.048 21.9601C117.053 21.9552 105.914 23.5679 95.6719 19.6906Z" fill="#AC742A"/>
<path d="M118.771 15.4309C118.771 15.4309 109.548 9.96048 97.3953 13.1614C97.3953 13.1663 108.529 11.5536 118.771 15.4309Z" fill="#AC742A"/>
<path d="M80.85 76.8017L79.1068 99.9824L63.3346 97.4873C63.3346 97.4873 59.0358 105.291 61.232 105.997C63.4233 106.703 72.1292 109.09 80.6678 109.796C87.606 110.369 87.9999 104.57 87.9014 102.379L90.334 87.1102C90.334 87.1102 93.6578 72.1547 87.8325 64.704C83.9719 66.7186 81.1651 72.5763 80.85 76.8017Z" fill="#002858"/>
</svg>
