<svg width="89" height="128" viewBox="0 0 89 128" fill="none" xmlns="http://www.w3.org/2000/svg">
<g clip-path="url(#clip0_413_1409)">
<rect width="89" height="128" rx="6" fill="#FFF3DA"/>
<ellipse cx="40" cy="133.5" rx="86" ry="52.5" fill="#C0FF58"/>
<path d="M47.0868 41.1766L42.6515 41.3086L43.1038 45.682L38.8911 44.303L37.8059 48.5653L34.3225 45.8436L31.8314 49.4806L29.498 45.7411L25.9025 48.3152L25.0014 44.0112L20.7326 45.2114L21.3707 40.8622L16.9459 40.5443L19.0479 36.6728L15 34.8734L18.3116 31.9485L15.128 28.8864L19.2495 27.2589L17.3158 23.304L21.7494 23.1703L21.2988 18.7986L25.5115 20.1776L26.5967 15.9153L30.0783 18.637L32.5695 15L34.9028 18.7395L38.4984 16.1654L39.4012 20.4694L43.6683 19.2693L43.0301 23.6184L47.4549 23.9363L45.353 27.8078L49.4009 29.6072L46.091 32.5321L49.2729 35.5942L45.1514 37.2217L47.0868 41.1766Z" fill="#FF8C45"/>
<path d="M32.2012 44.8553C39.2333 44.8553 44.9339 39.2074 44.9339 32.2403C44.9339 25.2732 39.2333 19.6253 32.2012 19.6253C25.1691 19.6253 19.4685 25.2732 19.4685 32.2403C19.4685 39.2074 25.1691 44.8553 32.2012 44.8553Z" fill="#FFD105"/>
<path d="M74.0002 46.0156C74.0002 40.0094 69.0863 35.1427 63.0258 35.1427C62.8067 35.1427 62.5893 35.1514 62.3737 35.1635C60.6522 29.9477 55.7049 26.1804 49.8654 26.1804C45.4441 26.1804 41.5365 28.3428 39.1505 31.655C38.139 30.9325 36.8996 30.5017 35.5567 30.5017C32.154 30.5017 29.3946 33.2356 29.3946 36.6069C29.3946 36.6173 29.3963 36.6277 29.3963 36.6399C23.7146 37.0515 19.2319 41.7463 19.2319 47.4815C19.2319 53.4876 24.1458 58.3544 30.2063 58.3544C32.2188 58.3544 34.1016 57.816 35.7232 56.8798C36.6401 62.1043 41.235 66.0766 46.7695 66.0766C50.6596 66.0766 54.0868 64.1139 56.0976 61.1334C57.0408 61.7153 58.1523 62.0574 59.3461 62.0574C62.5227 62.0574 65.1348 59.6762 65.4697 56.6175C70.3538 55.5128 74.0002 51.1863 74.0002 46.0156Z" fill="white"/>
<path d="M62.1363 35.2419L62.1964 35.4239L62.3878 35.4131C62.6008 35.4011 62.8131 35.3927 63.0258 35.3927C68.9504 35.3927 73.7502 40.1497 73.7502 46.0156C73.7502 51.0652 70.1889 55.2938 65.4145 56.3737L65.2405 56.413L65.2211 56.5903C64.9002 59.5219 62.3955 61.8074 59.3461 61.8074C58.2008 61.8074 57.1345 61.4793 56.2289 60.9206L56.0246 60.7946L55.8904 60.9936C53.9245 63.9076 50.5736 65.8266 46.7695 65.8266C41.3569 65.8266 36.8655 61.9421 35.9695 56.8366L35.9077 56.4846L35.5982 56.6633C34.0135 57.5782 32.1736 58.1044 30.2063 58.1044C24.2817 58.1044 19.4819 53.3474 19.4819 47.4815C19.4819 41.8804 23.8603 37.2916 29.4144 36.8892L29.6463 36.8724V36.6399C29.6463 36.6233 29.6452 36.6091 29.6447 36.6034L29.6447 36.6026C29.6446 36.6023 29.6446 36.602 29.6446 36.6018C29.6474 33.3731 32.2915 30.7517 35.5567 30.7517C36.8452 30.7517 38.0342 31.1648 39.0052 31.8584L39.2078 32.0032L39.3534 31.8011C41.6941 28.5517 45.5275 26.4304 49.8654 26.4304C55.5951 26.4304 60.4479 30.1265 62.1363 35.2419Z" stroke="black" stroke-opacity="0.1" stroke-width="0.5"/>
<ellipse cx="42.5" cy="90.5" rx="21.5" ry="6.5" fill="#838383" fill-opacity="0.2"/>
<path d="M30.2158 119V112.928L27.7078 117.536H26.9158L24.3958 112.928V119H23.0518V110.48H24.4918L27.3118 115.688L30.1318 110.48H31.5718V119H30.2158ZM36.0397 119.12C35.5437 119.12 35.0997 119.036 34.7077 118.868C34.3157 118.692 33.9757 118.452 33.6877 118.148C33.4077 117.844 33.1917 117.5 33.0397 117.116C32.8877 116.724 32.8117 116.308 32.8117 115.868C32.8117 115.428 32.8877 115.012 33.0397 114.62C33.1917 114.228 33.4077 113.884 33.6877 113.588C33.9757 113.284 34.3157 113.048 34.7077 112.88C35.1077 112.704 35.5517 112.616 36.0397 112.616C36.5277 112.616 36.9677 112.704 37.3597 112.88C37.7597 113.048 38.0997 113.284 38.3797 113.588C38.6677 113.884 38.8877 114.228 39.0397 114.62C39.1917 115.012 39.2677 115.428 39.2677 115.868C39.2677 116.308 39.1917 116.724 39.0397 117.116C38.8877 117.5 38.6677 117.844 38.3797 118.148C38.0997 118.452 37.7597 118.692 37.3597 118.868C36.9677 119.036 36.5277 119.12 36.0397 119.12ZM34.1677 115.88C34.1677 116.28 34.2517 116.64 34.4197 116.96C34.5877 117.28 34.8117 117.532 35.0917 117.716C35.3717 117.9 35.6877 117.992 36.0397 117.992C36.3837 117.992 36.6957 117.9 36.9757 117.716C37.2637 117.524 37.4917 117.268 37.6597 116.948C37.8277 116.62 37.9117 116.26 37.9117 115.868C37.9117 115.468 37.8277 115.108 37.6597 114.788C37.4917 114.468 37.2637 114.216 36.9757 114.032C36.6957 113.84 36.3837 113.744 36.0397 113.744C35.6877 113.744 35.3717 113.84 35.0917 114.032C34.8117 114.224 34.5877 114.48 34.4197 114.8C34.2517 115.112 34.1677 115.472 34.1677 115.88ZM43.9665 113.864C43.4545 113.872 42.9985 113.988 42.5985 114.212C42.2065 114.436 41.9265 114.752 41.7585 115.16V119H40.4385V112.724H41.6625V114.128C41.8785 113.696 42.1625 113.352 42.5145 113.096C42.8665 112.832 43.2385 112.688 43.6305 112.664C43.7105 112.664 43.7745 112.664 43.8225 112.664C43.8785 112.664 43.9265 112.668 43.9665 112.676V113.864ZM50.5548 119H49.2348V115.484C49.2348 114.9 49.1388 114.472 48.9468 114.2C48.7628 113.928 48.4868 113.792 48.1188 113.792C47.8628 113.792 47.6068 113.856 47.3508 113.984C47.1028 114.112 46.8788 114.288 46.6788 114.512C46.4788 114.728 46.3348 114.98 46.2468 115.268V119H44.9268V112.724H46.1268V113.984C46.2868 113.704 46.4948 113.464 46.7508 113.264C47.0148 113.056 47.3108 112.896 47.6388 112.784C47.9668 112.672 48.3148 112.616 48.6828 112.616C49.0588 112.616 49.3668 112.684 49.6068 112.82C49.8548 112.956 50.0468 113.144 50.1828 113.384C50.3268 113.616 50.4228 113.888 50.4708 114.2C50.5268 114.504 50.5548 114.828 50.5548 115.172V119ZM52.0869 119V112.724H53.4069V119H52.0869ZM52.0869 111.692V110.24H53.4069V111.692H52.0869ZM60.6212 119H59.3012V115.484C59.3012 114.9 59.2052 114.472 59.0132 114.2C58.8292 113.928 58.5532 113.792 58.1852 113.792C57.9292 113.792 57.6732 113.856 57.4172 113.984C57.1692 114.112 56.9452 114.288 56.7452 114.512C56.5452 114.728 56.4012 114.98 56.3132 115.268V119H54.9932V112.724H56.1932V113.984C56.3532 113.704 56.5612 113.464 56.8172 113.264C57.0812 113.056 57.3772 112.896 57.7052 112.784C58.0332 112.672 58.3812 112.616 58.7492 112.616C59.1252 112.616 59.4332 112.684 59.6732 112.82C59.9212 112.956 60.1132 113.144 60.2492 113.384C60.3932 113.616 60.4892 113.888 60.5372 114.2C60.5932 114.504 60.6212 114.828 60.6212 115.172V119ZM64.6373 119.06C64.2133 119.06 63.8253 118.976 63.4733 118.808C63.1213 118.632 62.8173 118.396 62.5613 118.1C62.3133 117.804 62.1173 117.464 61.9733 117.08C61.8373 116.696 61.7693 116.292 61.7693 115.868C61.7693 115.42 61.8413 115 61.9853 114.608C62.1293 114.216 62.3293 113.872 62.5853 113.576C62.8493 113.272 63.1573 113.036 63.5093 112.868C63.8613 112.7 64.2533 112.616 64.6853 112.616C65.1893 112.616 65.6293 112.736 66.0053 112.976C66.3893 113.216 66.7053 113.528 66.9533 113.912V112.724H68.1173V118.82C68.1173 119.428 67.9693 119.944 67.6733 120.368C67.3853 120.792 66.9893 121.116 66.4853 121.34C65.9813 121.564 65.4133 121.676 64.7813 121.676C64.0853 121.676 63.5093 121.556 63.0533 121.316C62.5973 121.076 62.2093 120.748 61.8893 120.332L62.6333 119.636C62.8733 119.972 63.1813 120.228 63.5573 120.404C63.9413 120.58 64.3493 120.668 64.7813 120.668C65.1413 120.668 65.4733 120.6 65.7773 120.464C66.0893 120.336 66.3373 120.132 66.5213 119.852C66.7053 119.58 66.7973 119.236 66.7973 118.82V117.86C66.5733 118.236 66.2653 118.532 65.8733 118.748C65.4813 118.956 65.0693 119.06 64.6373 119.06ZM65.0693 117.992C65.2693 117.992 65.4613 117.96 65.6453 117.896C65.8293 117.824 65.9973 117.732 66.1493 117.62C66.3093 117.5 66.4453 117.368 66.5573 117.224C66.6693 117.072 66.7493 116.912 66.7973 116.744V115.1C66.6933 114.828 66.5453 114.592 66.3533 114.392C66.1613 114.184 65.9453 114.024 65.7053 113.912C65.4653 113.8 65.2213 113.744 64.9733 113.744C64.6853 113.744 64.4253 113.808 64.1933 113.936C63.9693 114.056 63.7773 114.22 63.6173 114.428C63.4573 114.628 63.3333 114.856 63.2453 115.112C63.1573 115.368 63.1133 115.632 63.1133 115.904C63.1133 116.192 63.1613 116.46 63.2573 116.708C63.3613 116.956 63.5013 117.18 63.6773 117.38C63.8533 117.572 64.0613 117.724 64.3013 117.836C64.5413 117.94 64.7973 117.992 65.0693 117.992Z" fill="#172752"/>
</g>
<defs>
<clipPath id="clip0_413_1409">
<rect width="89" height="128" fill="white"/>
</clipPath>
</defs>
</svg>
