<svg width="102" height="77" viewBox="0 0 102 77" fill="none" xmlns="http://www.w3.org/2000/svg">
<path d="M89.7883 57.8747C89.7883 57.8747 89.1721 51.8642 90.8905 45.7777C92.6117 39.6911 96.4042 34.9539 99.7135 35.5918C104.168 36.4497 100.957 40.9372 97.9896 44.7841C94.6125 49.1603 92.2642 55.4857 92.3456 56.8051L89.7883 57.8747Z" fill="#172752"/>
<path d="M90.7521 56.7128C90.8254 56.7128 90.8878 56.6531 90.8878 56.5798C90.991 48.5577 95.7391 40.3944 98.9181 37.4054C98.9724 37.3538 98.9751 37.2669 98.9235 37.2126C98.8719 37.1583 98.7851 37.1556 98.7308 37.2072C95.5192 40.2288 90.7195 48.4762 90.6163 56.5771C90.6136 56.6504 90.6733 56.7101 90.7521 56.7128C90.7494 56.7128 90.7494 56.7128 90.7521 56.7128Z" fill="white"/>
<path d="M90.2824 57.8178C90.2824 57.8178 90.5729 51.4625 93.988 48.0392C97.4032 44.6159 99.6755 44.4475 100.471 45.5687C101.511 47.0347 100.734 48.6717 98.5109 50.5205C96.2875 52.3692 92.4895 55.2225 92.4895 57.1554L90.2824 57.8178Z" fill="#172752"/>
<path d="M91.0751 57.6251C91.143 57.6251 91.2 57.5762 91.2082 57.5083C92.1855 50.5938 97.4304 47.1189 99.3661 46.3642C99.4366 46.3371 99.4692 46.2583 99.4421 46.1877C99.4149 46.1172 99.3362 46.0819 99.2656 46.1117C97.2865 46.8827 91.933 50.4282 90.9367 57.4703C90.9258 57.5436 90.9774 57.6142 91.0507 57.6251C91.0616 57.6224 91.067 57.6251 91.0751 57.6251Z" fill="white"/>
<path d="M6.61316 45.3269L23.4474 45.3242L21.7073 52.5754H21.7046C21.5715 53.4495 20.9281 54.302 19.7689 54.9725C17.1519 56.4846 12.906 56.4846 10.289 54.9725C9.04016 54.2531 8.39676 53.3192 8.33704 52.3745L6.61316 45.3269Z" fill="#776443"/>
<path d="M8.41035 47.0698C12.0644 49.1792 17.9908 49.1792 21.6449 47.0698C22.3751 46.6463 22.9588 46.1739 23.3959 45.6663L22.5977 48.8615C22.1851 49.3285 22.0113 49.4941 21.3327 49.885C17.8496 51.8939 12.2056 51.8939 8.72254 49.885C8.04385 49.4914 7.50361 49.0516 7.08825 48.5819L6.66203 45.6717C7.09911 46.1766 7.68279 46.649 8.41035 47.0698Z" fill="#263238"/>
<path d="M21.7046 52.5781C21.5689 53.4522 20.9255 54.3047 19.7662 54.9752C17.8958 56.0557 15.1973 56.3597 12.8517 55.8955C17.0569 56.2158 19.9454 54.3779 20.3771 52.6839C20.8114 50.9872 21.3625 47.3874 21.3625 47.3874L20.8983 45.5088L21.0286 45.3269H23.4448L21.7046 52.5781Z" fill="#263238"/>
<path d="M5.7363 43.1823C5.82317 43.6275 6.01049 44.0673 6.29826 44.4908C6.75162 45.175 7.45746 45.8156 8.41035 46.3667C12.0644 48.4761 17.9908 48.4761 21.6449 46.3667C22.5977 45.8156 23.3036 45.175 23.7569 44.4908C24.042 44.0673 24.2293 43.6275 24.3162 43.1823H24.3189C24.6447 41.5969 23.7515 39.9436 21.6449 38.7274C17.9908 36.6153 12.0644 36.6153 8.41035 38.7274C6.30369 39.9436 5.41052 41.5969 5.7363 43.1823Z" fill="#455A64"/>
<path d="M6.29826 44.4907C6.75163 45.1748 7.45747 45.8155 8.41035 46.3666C12.0644 48.4759 17.9908 48.4759 21.6449 46.3666C22.5977 45.8155 23.3036 45.1748 23.7569 44.4907C24.042 44.0671 24.2293 43.6274 24.3162 43.1821H24.3189L23.9035 46.0354C23.7135 47.1837 22.8584 48.3022 21.3327 49.1818C17.8496 51.1907 12.2056 51.1907 8.72255 49.1818C7.21857 48.313 6.36341 47.2081 6.15981 46.0761L6.13809 45.9295L5.7363 43.1821C5.82318 43.6274 6.0105 44.0671 6.29826 44.4907Z" fill="#776443"/>
<path d="M9.51254 39.3623C12.5585 37.6032 17.4967 37.6032 20.5399 39.3623C22.2638 40.3587 23.0104 41.7025 22.785 43.0001C22.6113 43.9965 21.862 44.9656 20.5399 45.7285C17.4967 47.4877 12.5585 47.4877 9.51254 45.7285C8.19316 44.9656 7.44388 43.9965 7.27014 43.0029C7.0421 41.7025 7.78866 40.3587 9.51254 39.3623Z" fill="#37474F"/>
<path d="M22.2719 44.2057C21.8918 44.7595 21.319 45.2808 20.5426 45.7287C17.4993 47.4879 12.5612 47.4879 9.51521 45.7287C8.73878 45.2808 8.16596 44.7595 7.78589 44.2057C7.80761 43.1524 8.51345 42.1045 9.90613 41.3009C12.7376 39.6666 17.3256 39.6666 20.1517 41.3009C21.5416 42.1045 22.2475 43.1524 22.2719 44.2057Z" fill="#776443"/>
<path d="M7.4086 38.5564C7.89997 39.4985 8.57595 40.3455 9.42839 40.9753C9.96591 41.3744 10.574 41.6784 11.2147 41.8685C11.907 42.0721 12.5368 42.0232 13.2399 42.0558C14.2118 42.1046 15.2054 41.9689 16.0959 41.5617C16.5004 41.3771 16.7773 41.073 17.1546 40.8504C17.5808 40.5979 17.9881 40.321 18.3491 39.979C19.1717 39.1998 19.6359 38.0623 19.9318 36.9846C20.2277 35.9068 20.2603 34.7205 19.7662 33.6943C19.6441 33.4445 19.4676 33.1866 19.1988 33.1215C19.036 33.0807 18.8649 33.1188 18.7048 33.1595C17.8822 33.3685 17.0895 33.6861 16.3511 34.1069C16.9945 33.0617 18.0885 32.3043 19.2939 32.0709C18.9952 31.2048 18.4686 30.4176 17.7844 29.8094C17.665 29.7036 17.5347 29.5977 17.3772 29.5651C17.2361 29.5353 17.0895 29.5678 16.9483 29.6058C15.9493 29.8855 15.029 30.556 14.3123 31.2917C14.7466 30.252 15.6316 29.3859 16.5411 28.7208C15.0235 27.6349 13.3159 26.8178 11.5215 26.3128C11.3939 26.2775 11.2554 26.2422 11.1305 26.2884C11.0491 26.3183 10.9812 26.3834 10.9188 26.4431C9.40395 27.9091 8.11443 28.9081 7.2267 30.8221C8.10086 30.9388 8.88271 31.1777 9.54512 31.574C8.82028 31.6392 8.06285 31.5903 7.32986 31.6229C7.23756 31.6256 7.14255 31.6311 7.06653 31.6799C6.99052 31.7261 6.94165 31.8048 6.89822 31.8835C6.36884 32.8337 6.2521 33.9658 6.31183 35.0517C7.5199 34.8915 8.77141 35.1005 9.86003 35.6462C8.80942 35.6163 7.75337 35.7466 6.74076 36.0344C6.65661 36.5584 6.79777 37.0932 6.98509 37.5927C7.10183 37.9239 7.24571 38.247 7.4086 38.5564Z" fill="#172752"/>
<path opacity="0.1" d="M11.1279 26.291C11.2527 26.2448 11.3912 26.2774 11.5188 26.3154C13.3132 26.8204 15.0208 27.6375 16.5384 28.7234C15.629 29.3885 14.7466 30.2545 14.3096 31.2943C15.0263 30.5586 15.9466 29.888 16.9456 29.6084C17.0841 29.5704 17.2307 29.5378 17.3745 29.5677C17.532 29.6003 17.6623 29.7062 17.7818 29.812C18.4659 30.4201 18.9925 31.2074 19.2912 32.0734C18.0858 32.3069 16.9918 33.0643 16.3484 34.1095C17.0868 33.6914 17.8795 33.3711 18.7021 33.1621C18.865 33.1213 19.0333 33.0833 19.1962 33.1241C19.4676 33.1892 19.6441 33.4471 19.7635 33.6969C20.2576 34.7231 20.2251 35.9094 19.9291 36.9872C19.6332 38.0649 19.169 39.2024 18.3464 39.9816C17.9854 40.3236 17.5781 40.6005 17.1519 40.853C16.7746 41.0756 16.4977 41.3797 16.0932 41.5643C15.7647 41.7136 15.4253 41.8276 15.0751 41.9063C11.7333 37.1854 11.0301 27.8085 11.1279 26.291Z" fill="black"/>
<path d="M15.0778 42.042C15.1023 42.042 15.1294 42.0339 15.1511 42.0203C15.2136 41.9796 15.2326 41.8954 15.1919 41.833C12.8626 38.1708 11.6789 34.0552 11.3505 28.4899C11.345 28.4139 11.2853 28.3542 11.2066 28.3623C11.1306 28.3677 11.0736 28.4302 11.079 28.5062C11.4102 34.1203 12.6074 38.2767 14.9611 41.9796C14.9883 42.0203 15.0317 42.042 15.0778 42.042Z" fill="white"/>
<path d="M18.9274 46.1143C19.3509 46.2881 19.7907 46.4157 20.244 46.4863C20.5969 46.5433 20.977 46.584 21.3327 46.546C21.4222 46.5378 22.1444 46.356 22.1525 46.3695C21.4684 45.4112 20.9444 44.3335 20.6132 43.2041C21.3218 44.138 22.1959 44.9443 23.1814 45.5795C23.3443 45.6827 23.5099 45.7831 23.6972 45.8347C23.9063 45.8917 24.1261 45.8836 24.3406 45.8592C25.3261 45.756 26.2817 45.3678 27.0608 44.7515C25.9532 43.8719 24.984 42.8213 24.1967 41.6458C25.2826 42.4223 26.507 42.9978 27.7965 43.3398C27.8807 43.3616 27.973 43.3833 28.0571 43.3534C28.1386 43.3236 28.1929 43.2503 28.2417 43.1797C28.7304 42.482 29.1105 41.7056 29.3629 40.8884C29.724 39.7129 30.2099 38.532 30.8235 37.5655C29.5095 36.6479 28.0327 35.4236 26.5016 34.9566C26.2654 34.8833 25.964 34.7422 25.6518 34.734C25.4537 34.7286 25.2446 34.9974 24.9514 35.3503C24.4655 35.9394 24.2972 36.3249 23.928 36.9927C24.0121 35.9041 24.2076 35.1358 24.5089 34.4408C22.9968 33.9712 21.881 33.8762 20.6295 34.0635C20.0187 35.0109 19.6169 36.0941 19.4649 37.2126C19.0034 36.2977 19.036 35.22 19.0821 34.1965C18.0261 34.2725 17.0677 34.8969 16.3918 35.7086C15.7158 36.5203 15.2869 37.5112 14.9312 38.5048C14.7602 38.9854 14.6652 39.5799 14.6054 40.0876C14.4806 41.1572 14.8308 42.4114 15.4742 43.2665C16.199 44.233 17.0759 45.1044 18.1211 45.7098C18.379 45.8673 18.6505 46.003 18.9274 46.1143Z" fill="#172752"/>
<path opacity="0.1" d="M28.239 43.1849C28.1902 43.2555 28.1331 43.3288 28.0544 43.3586C27.973 43.3885 27.8807 43.3668 27.7938 43.3451C26.5043 43.003 25.2799 42.4248 24.194 41.6511C24.9813 42.8265 25.9505 43.8772 27.0581 44.7567C26.279 45.3703 25.3261 45.7585 24.3406 45.8644C24.1261 45.8861 23.9063 45.897 23.6972 45.8399C23.5126 45.7884 23.3443 45.6879 23.1814 45.5848C22.1959 44.9495 21.3218 44.1432 20.6132 43.2093C20.9444 44.3414 21.4657 45.4164 22.1525 46.3748C22.1444 46.3612 21.4222 46.5431 21.3327 46.5512C20.977 46.5892 20.5942 46.5458 20.244 46.4915C19.7934 46.4209 19.3509 46.2933 18.9274 46.1196C18.6505 46.0055 18.379 45.8725 18.1211 45.7232C17.0759 45.1178 16.199 44.2464 15.4742 43.2799C15.1783 42.8836 14.9475 42.403 14.7928 41.8981C18.9301 38.2223 27.3241 37.3671 30.8235 37.5762C30.2099 38.5426 29.724 39.7236 29.3629 40.8991C29.1105 41.7081 28.7304 42.4845 28.239 43.1849Z" fill="black"/>
<path d="M14.79 42.0258C14.8199 42.0258 14.8525 42.015 14.8769 41.9933C19.7255 37.9727 28.1521 37.7148 28.5105 37.7039C28.5865 37.7012 28.6435 37.6388 28.6435 37.5655C28.6408 37.4895 28.5756 37.427 28.505 37.4325C28.144 37.4406 19.625 37.7039 14.7059 41.7842C14.6489 41.8331 14.6407 41.9173 14.6869 41.9743C14.714 42.0096 14.752 42.0258 14.79 42.0258Z" fill="white"/>
<path d="M0.670507 49.1927C0.616212 49.2144 0.743805 47.3141 0.779097 47.1186C0.903976 46.4454 1.13745 45.7558 1.65325 45.278C1.79442 45.1477 1.95188 45.0391 2.10934 44.9305C1.50395 44.6971 0.447896 45.3079 -4.1008e-05 45.6744C0.27958 44.3306 0.955563 43.0709 1.92202 42.0963C2.08491 41.9307 2.35366 41.7135 2.55999 41.6022C2.73102 41.5099 3.06765 41.4502 3.26312 41.4529C4.07212 41.4665 4.74809 41.6864 5.53809 41.8628C5.12273 41.5534 4.7671 41.3416 4.25943 41.1869C4.03954 41.119 2.80161 40.7118 2.63329 40.8937C3.47215 39.9842 4.45219 39.1074 5.66297 38.863C6.02947 38.7897 6.4041 38.7761 6.77874 38.768C9.66997 38.7028 12.3522 39.2159 14.3014 41.5045C14.5593 41.8058 14.8172 42.1099 15.0181 42.4519C15.9248 43.9749 15.6316 45.9649 14.6679 47.3847C13.924 48.4815 12.6209 49.2362 11.1522 49.2796C11.5106 48.1503 11.649 47.1512 11.6355 45.9839C11.364 46.5703 11.2364 47.5639 10.9269 48.2941C10.5957 49.0706 10.1369 49.4995 9.33877 49.7764C8.54063 50.0533 7.62575 49.9284 6.90091 49.4941C7.63661 48.6633 8.02482 47.534 7.95152 46.4291C7.51716 47.1838 6.96606 47.9059 6.20321 48.3267C4.55263 49.228 2.42425 48.5086 0.670507 49.1927Z" fill="#172752"/>
<path opacity="0.1" d="M-1.71661e-05 45.6744C0.279604 44.3306 0.955586 43.0709 1.92204 42.0963C2.08493 41.9307 2.34554 41.7217 2.56001 41.6022C2.73104 41.5072 3.06768 41.4502 3.26314 41.4529C4.07214 41.4665 4.74811 41.6864 5.53811 41.8628C5.12275 41.5534 4.76712 41.3416 4.25946 41.1869C4.03956 41.119 2.80163 40.7118 2.63331 40.8937C3.47218 39.9842 4.45221 39.1074 5.663 38.863C6.02949 38.7897 6.40413 38.7761 6.77877 38.768C9.67 38.7028 12.3522 39.2159 14.3014 41.5045C13.4028 41.005 9.98491 40.2313 5.3698 43.7768C2.56273 45.9323 1.25421 47.8896 0.656961 49.095C0.651531 48.7068 0.746544 47.2897 0.77912 47.1214C0.904 46.4481 1.13747 45.7585 1.65328 45.2807C1.79445 45.1504 1.95191 45.0418 2.10936 44.9332C1.50397 44.6971 0.44792 45.3079 -1.71661e-05 45.6744Z" fill="black"/>
<path d="M1.77277 47.4578C1.82163 47.4578 1.8705 47.4334 1.89765 47.3845C3.45321 44.6914 8.67643 40.2419 14.2661 41.64C14.3422 41.659 14.4209 41.6129 14.4399 41.5342C14.4589 41.4582 14.4127 41.3794 14.334 41.3604C8.59499 39.9216 3.23603 44.4797 1.64517 47.2406C1.60445 47.3085 1.62889 47.3981 1.69676 47.4388C1.7239 47.4524 1.74834 47.4578 1.77277 47.4578Z" fill="white"/>
<path d="M44.3241 60.1633L46.9276 58.6593C47.123 58.548 47.3592 58.2901 47.4542 58.0892L74.6725 0.88629C74.7702 0.682682 74.6888 0.427494 74.4961 0.316188L74.0997 0.0854323C73.9042 -0.0258733 73.5893 -0.0258733 73.3939 0.0854323L70.7904 1.58942C70.5949 1.70072 70.3587 1.95862 70.2637 2.15952L43.0454 59.3624C42.9477 59.566 43.0292 59.8212 43.2219 59.9325L43.6183 60.1633C43.8137 60.2746 44.1286 60.2746 44.3241 60.1633Z" fill="#263238"/>
<path d="M70.7524 1.96941L71.1488 2.20017C71.3442 2.31147 71.423 2.56938 71.3252 2.77027L44.1069 59.9732C44.0092 60.1768 43.773 60.2501 43.5803 60.1361L43.1839 59.9053C42.9884 59.794 42.9097 59.5361 43.0074 59.3352L70.223 2.13501C70.3208 1.9314 70.5569 1.8581 70.7524 1.96941Z" fill="#37474F"/>
<path d="M70.2881 2.11073C70.3994 1.94513 70.6112 1.89355 70.7876 1.994L71.1867 2.22475C71.2953 2.28719 71.3659 2.39307 71.393 2.50981L74.7023 0.598607C74.6752 0.481872 74.6019 0.375996 74.4933 0.313556L74.0969 0.0855153C73.9015 -0.0285051 73.5866 -0.0285051 73.3911 0.0855153L70.7876 1.58678C70.6112 1.69266 70.394 1.91799 70.2881 2.11073Z" fill="#455A64"/>
<path d="M43.5341 36.8327V38.0951C43.5341 38.0978 43.5341 38.1005 43.5341 38.1005C43.5368 38.3259 43.6807 38.5485 43.9685 38.7141C44.5793 39.0643 45.5973 39.0453 46.2489 38.6706L58.9377 31.3435C59.068 31.2702 59.1332 31.1724 59.1332 31.0747V29.8042H59.1305C59.1305 29.9019 59.068 29.9997 58.9377 30.0757L46.2489 37.4028C45.5973 37.7775 44.5793 37.7965 43.9685 37.4463C43.6807 37.2807 43.5368 37.0581 43.5341 36.8327Z" fill="#263238"/>
<path d="M43.9685 37.446C44.5793 37.7962 45.5973 37.7772 46.2489 37.4026L58.9377 30.0754C59.1983 29.9261 59.1983 29.6818 58.9377 29.5324L57.6726 28.8022C57.412 28.6529 56.9912 28.6529 56.7333 28.8022L44.0418 36.1293C43.7024 36.3248 43.5314 36.5827 43.5341 36.8325C43.5368 37.0578 43.6807 37.2804 43.9685 37.446Z" fill="#37474F"/>
<path d="M66.5038 45.8106L65.8712 45.4468C65.7409 45.3708 65.6079 45.1943 65.5699 45.0477L60.876 26.085C60.8408 25.9384 60.8706 25.7158 60.9466 25.5855L61.7773 24.1467C61.8534 24.0164 62.019 23.9729 62.1493 24.0462L62.7818 24.4127C62.9121 24.4888 63.0451 24.6652 63.0832 24.8118L68.0512 44.8875C68.0865 45.0341 68.0105 45.2106 67.8802 45.2866L66.9734 45.8106C66.8431 45.8839 66.6314 45.8839 66.5038 45.8106Z" fill="#263238"/>
<path d="M60.8706 25.8298L61.9728 26.4705C61.9837 26.3782 62.0108 26.2886 62.0488 26.2207L62.8795 24.7819C62.9447 24.6706 63.0207 24.6652 63.0641 24.7547C63.0126 24.6217 62.8958 24.4778 62.7818 24.41L62.1493 24.0462C62.019 23.9702 61.8534 24.0136 61.7773 24.1439L60.9466 25.5855C60.9086 25.6506 60.8815 25.7402 60.8706 25.8298Z" fill="#455A64"/>
<path d="M62.8823 24.7817L62.0515 26.2205C61.9755 26.3508 61.9457 26.5735 61.981 26.7201L66.6721 45.68C66.7074 45.8266 66.8431 45.8836 66.9734 45.8076L67.8802 45.2837C68.0105 45.2076 68.0865 45.0312 68.0512 44.8846L63.0832 24.8089C63.0479 24.665 62.9556 24.6514 62.8823 24.7817Z" fill="#37474F"/>
<path d="M40.9198 43.101C44.2236 43.1715 66.5743 43.6493 69.8782 43.7199C70.1035 43.7254 70.4429 43.8204 70.6384 43.9317L71.0374 44.1597C71.2329 44.271 71.2329 44.4529 71.0374 44.5669L65.3636 47.8437C65.1681 47.955 64.8287 48.0445 64.6034 48.0391L42.022 47.5559C41.7966 47.5505 41.4573 47.4554 41.2618 47.3441C41.1342 47.2708 40.9903 47.1894 40.8655 47.1161C40.67 47.0048 40.5125 46.7306 40.5125 46.5053C40.5125 45.7723 40.5125 44.233 40.5125 43.5C40.5098 43.2747 40.6944 43.0955 40.9198 43.101Z" fill="#455A64"/>
<path d="M41.612 47.1408V44.1355C41.612 43.9102 41.7939 43.731 42.0193 43.7364L70.9804 44.3554C71.2058 44.3608 71.2302 44.4559 71.0347 44.5672L65.3609 47.8439C65.1654 47.9552 64.826 48.0448 64.6007 48.0394L42.0193 47.5561C41.7966 47.5507 41.612 47.3661 41.612 47.1408Z" fill="#263238"/>
<path d="M40.5098 43.4973V46.5025C40.5098 46.7279 40.6673 47.0021 40.8627 47.1134C40.9903 47.1867 41.1315 47.2708 41.2591 47.3441C41.4546 47.4554 41.7939 47.5504 42.0192 47.5559C41.7939 47.5504 41.612 47.3658 41.612 47.1405V44.1353C41.612 44.005 41.6745 43.8882 41.7695 43.8176L40.6673 43.1824C40.5723 43.253 40.5098 43.367 40.5098 43.4973Z" fill="#263238"/>
<path d="M43.7866 46.7116L43.7842 46.7092C43.7842 46.7092 43.7842 46.7092 43.7866 46.7116Z" fill="#FAFAFA"/>
<path d="M42.907 46.1988L43.7812 46.7092C43.6834 46.6522 43.621 46.5273 43.6237 46.3508C43.6291 45.9979 43.8735 45.5744 44.1748 45.3952C44.3078 45.3165 44.43 45.3002 44.525 45.3355L43.6834 44.8496C43.583 44.7898 43.4445 44.798 43.2925 44.8849C42.9885 45.0613 42.7414 45.4903 42.7414 45.8405C42.7414 46.0196 42.8039 46.1418 42.907 46.1988Z" fill="#455A64"/>
<path d="M43.6237 46.3509C43.6291 45.998 43.8735 45.5745 44.1748 45.3953C44.3078 45.3166 44.43 45.3003 44.525 45.3356L44.5983 45.3763L44.601 45.379L64.6333 56.9439L63.8569 58.2959L43.7839 46.7092C43.6861 46.6549 43.6237 46.5301 43.6237 46.3509Z" fill="#263238"/>
<path opacity="0.1" d="M43.7292 46.3365C43.7347 45.9836 43.979 45.5601 44.2803 45.3809C44.4133 45.3022 44.5355 45.2859 44.6305 45.3212L44.7038 45.3619L44.7065 45.3646L64.7388 56.9295L63.9624 58.2815L43.8894 46.6948C43.7917 46.6405 43.7292 46.5157 43.7292 46.3365Z" fill="#455275"/>
<path d="M64.2451 56.9847C63.9411 57.1611 63.694 57.5873 63.694 57.9403C63.694 58.2932 63.9411 58.4343 64.2451 58.2579C64.5492 58.0814 64.7962 57.6552 64.7962 57.3023C64.7962 56.9521 64.5492 56.8082 64.2451 56.9847Z" fill="#E0E0E0"/>
<path d="M73.231 3.24832C73.364 3.16959 73.4862 3.1533 73.5812 3.1886L73.6545 3.22932L73.6572 3.23203L93.6895 14.797L92.9131 16.1489L72.8401 4.56227C72.7396 4.50526 72.6772 4.38038 72.6799 4.20392C72.6853 3.851 72.9297 3.42749 73.231 3.24832Z" fill="#172752"/>
<path opacity="0.1" d="M71.9443 3.88504C72.0773 3.80631 72.1995 3.79002 72.2945 3.82532L72.3678 3.86604L72.3705 3.86875L92.4028 15.4337L91.6264 16.7856L71.5534 5.19899C71.4529 5.14198 71.3905 5.0171 71.3932 4.84064C71.3987 4.48772 71.643 4.06421 71.9443 3.88504Z" fill="#172752"/>
<path d="M71.9632 4.05184L72.8373 4.56222C72.7396 4.50521 72.6772 4.38033 72.6799 4.20387C72.6853 3.85095 72.9296 3.42744 73.231 3.24827C73.364 3.16954 73.4862 3.15325 73.5812 3.18855L72.7396 2.7026C72.6391 2.64288 72.5007 2.65102 72.3487 2.73789C72.0446 2.91435 71.7976 3.34329 71.7976 3.69349C71.7976 3.87267 71.86 3.99483 71.9632 4.05184Z" fill="#455A64"/>
<path d="M63.8379 56.4961C79.2605 54.2727 91.0317 41.573 92.0796 26.0255L92.7556 16.0596L72.8373 4.5625L70.7958 13.5511C66.0803 31.303 58.935 40.7803 44.5793 45.3682L63.8379 56.4961Z" fill="#455275"/>
<path d="M43.6318 28.6531C44.6716 28.2377 46.3276 28.2377 47.332 28.6531C47.837 28.8621 48.0895 29.1363 48.084 29.4132L47.6877 35.5785H47.6822C47.6578 35.8038 47.4488 36.0237 47.047 36.1947C46.1945 36.5612 44.7883 36.5612 43.9087 36.1947C43.4961 36.0237 43.2789 35.8011 43.2517 35.5785H43.2463L42.8499 29.4078C42.8527 29.1336 43.1106 28.8621 43.6318 28.6531Z" fill="#FFC20E"/>
<g opacity="0.1">
<path d="M43.6318 28.6531C44.6716 28.2377 46.3276 28.2377 47.332 28.6531C48.3365 29.0684 48.3365 29.7444 47.332 30.1598C46.3276 30.5751 44.6716 30.5751 43.6318 30.1598C42.592 29.7444 42.592 29.0684 43.6318 28.6531Z" fill="black"/>
</g>
<path d="M46.0317 30.4474C46.1566 30.4365 46.276 30.423 46.3927 30.404L46.8651 28.5036L47.3022 26.7444C47.3456 26.568 47.4895 26.4323 47.6605 26.397L48.9962 26.1119C49.0885 26.0956 49.1482 26.0033 49.1292 25.911C49.1102 25.8187 49.0179 25.7617 48.9283 25.7834L47.5927 26.063C47.2913 26.1282 47.047 26.3617 46.9737 26.663L46.5312 28.433L46.0317 30.4474Z" fill="#E6E6E6"/>
<path d="M42.8283 24.1709L43.792 28.5933L44.1666 30.3253C44.2861 30.3525 44.4055 30.3769 44.5331 30.3959L44.1178 28.4983L43.1595 24.1003L42.8283 24.1709Z" fill="#E6E6E6"/>
<path d="M40.6591 26.0549C40.6591 26.0549 41.1939 27.2576 43.5368 26.701C45.8796 26.1445 45.8796 24.912 45.8796 24.912C45.733 24.2387 43.6128 22.8434 42.7224 23.0578C41.8319 23.2669 40.5125 25.3817 40.6591 26.0549Z" fill="#FFC20E"/>
<path opacity="0.1" d="M42.7468 26.8314C42.1658 26.883 41.7396 26.8042 41.4247 26.6821C41.5143 25.9002 41.8237 24.0352 42.7196 23.0579C42.7223 23.0551 42.4319 25.0939 42.7468 26.8314Z" fill="black"/>
<path opacity="0.1" d="M45.6217 25.5446C45.4235 25.8188 45.0706 26.1364 44.4462 26.4025C43.887 24.2361 42.7196 23.0552 42.7196 23.0552C43.8517 23.4027 45.1846 25.0098 45.6217 25.5446Z" fill="black"/>
<path d="M71.4501 19.5966C69.3326 18.9831 67.8232 19.0564 65.7926 22.4987C64.2044 25.1918 60.2517 30.6268 60.2517 30.6268C60.2517 30.6268 51.9825 31.7452 50.6984 31.4928C49.5935 31.2756 48.7194 30.586 47.5846 30.8032C46.2136 31.0693 45.5024 31.2267 44.7938 31.3082C44.5766 31.3326 44.6065 32.1606 45.9584 32.2448C46.9846 32.3072 47.8696 32.2448 47.8696 32.2448L47.7068 35.2853C48.7954 35.1197 49.9899 34.6093 51.0921 34.6175C52.1943 34.6256 60.0182 34.7016 62.714 34.5062C64.2831 33.0456 68.4096 26.1501 68.4096 26.1501L71.4501 19.5966Z" fill="#FFA8A7"/>
<path d="M54.6104 59.3188C54.8493 59.6148 55.1207 59.9568 55.0583 60.2989C54.9959 60.6382 54.7515 61.4527 53.9615 62.1748C53.1743 62.8942 52.5743 64.3439 52.3571 65.3429C52.1372 66.342 51.8304 68.9128 50.4622 69.8169C49.094 70.7236 45.9448 70.9679 46.1023 69.0893C46.2597 67.2107 50.5816 60.2934 50.5816 60.2934L54.6104 59.3188Z" fill="#263238"/>
<path d="M52.7861 60.3833C52.3408 61.2982 51.6377 62.8347 51.1925 64.3143C50.7473 65.7965 50.2125 66.82 49.4089 67.1621C48.6053 67.5041 47.4624 67.3331 47.9809 66.3449C48.4995 65.3567 50.5817 60.2937 50.5817 60.2937L52.7861 60.3833Z" fill="#F28F8F"/>
<path d="M63.5446 35.5242C63.5446 35.5242 58.5413 37.829 55.4356 39.1728C52.3299 40.5166 49.3735 41.8414 48.6731 43.0767C47.9347 44.3825 47.8207 47.632 47.8831 50.7757C47.9456 53.9167 48.1546 59.5716 48.1546 59.5716L57.9576 47.2601L67.1879 42.2215L63.5446 35.5242Z" fill="#455A64"/>
<path d="M64.6605 41.5182L64.4406 40.845C64.4406 40.845 59.144 43.3371 57.298 44.2764C55.452 45.2158 53.4675 46.3858 52.4386 48.3106C51.4097 50.2354 48.0786 57.9182 48.0786 57.9182L55.1398 47.4473L64.6605 41.5182Z" fill="#37474F"/>
<path d="M46.5882 69.2712C46.8271 69.4586 46.7402 70.0802 46.6751 70.5309C46.6126 70.9843 46.8923 71.6114 46.1701 72.2575C45.448 72.9036 44.3268 72.8737 43.3413 73.7588C42.3559 74.6411 40.822 76.2998 38.3245 76.2183C35.8269 76.1369 34.2143 74.9071 33.9455 74.0927C33.6768 73.2782 34.2387 72.7054 35.968 72.2141C37.8059 71.6901 38.3272 71.5326 38.3272 71.5326L46.5882 69.2712Z" fill="#263238"/>
<path d="M45.2417 63.7659C45.2417 63.7659 43.3115 66.6517 42.2581 67.9358C41.2048 69.2198 39.7633 70.3248 38.2267 71.3102C37.8928 71.5247 37.1652 71.8912 36.891 72.0649C36.6467 72.2197 36.5463 72.4504 36.7336 72.7735C37.0974 73.4115 39.223 74.1662 40.7026 73.6178C42.1821 73.0694 43.8816 71.6957 44.8182 71.1799C45.2878 70.922 45.7303 70.6723 46.0561 70.4904C46.3683 70.3139 46.5665 69.9881 46.5746 69.6298C46.5773 69.5293 46.5828 69.4099 46.5909 69.2714C46.6316 68.5249 48.4017 65.935 48.4017 65.935L45.2417 63.7659Z" fill="#FFA8A7"/>
<path d="M78.1176 40.1364C77.8841 42.6204 77.6425 43.994 76.1493 46.1523C74.6562 48.3105 71.3551 49.4752 67.4974 50.4199C64.3048 51.2018 59.611 52.304 58.6907 52.4234C57.7703 52.5429 57.5396 53.0098 57.1948 54.5979C56.85 56.1861 55.5605 58.5669 52.8946 61.2355C50.0767 64.0562 48.399 65.9348 48.399 65.9348C48.399 65.9348 46.2027 66.095 45.0191 63.9693C45.0191 63.9693 52.501 49.467 53.7932 47.6427C55.0854 45.8184 64.6632 41.5155 64.6632 41.5155C64.6632 41.5155 63.4578 38.0378 63.5447 35.5212L78.1176 40.1364Z" fill="#455A64"/>
<path d="M63.8786 38.6216C63.8786 38.6216 64.3211 40.6169 64.6605 41.5182L64.0741 41.787C64.0768 41.787 63.7673 40.0224 63.8786 38.6216Z" fill="#37474F"/>
<path d="M78.1529 21.1387L80.4333 21.8065C80.4333 21.8065 78.6442 23.6526 78.7447 27.437C78.8153 30.1164 79.3908 30.3934 80.6749 31.2566C80.6858 34.6365 78.009 41.1846 78.009 41.1846C78.009 41.1846 74.697 42.618 69.0665 40.495C64.1229 38.63 63.3411 35.6166 63.3411 35.6166L66.5934 34.023L67.4893 31.3462C67.4893 31.3462 65.2821 29.131 66.2866 26.1257C67.2911 23.1205 71.4501 19.594 71.4501 19.594L73.44 19.8356L78.1529 21.1387Z" fill="#FAFAFA"/>
<path d="M65.4641 38.4668C67.9562 39.6477 71.8899 39.6694 73.5568 38.6921C75.2237 37.7148 76.8118 34.7502 76.7222 32.7386C76.6326 30.7269 77.4281 27.3688 78.3782 25.4169L78.9022 25.3164C78.7909 25.9408 78.7257 26.6439 78.7474 27.4394C78.818 30.1188 79.3936 30.3957 80.6776 31.259C80.6885 34.6389 78.009 41.187 78.009 41.187C78.009 41.187 74.697 42.6204 69.0666 40.4974C67.4676 39.892 66.3056 39.1699 65.4641 38.4668Z" fill="#F0F0F0"/>
<path d="M71.4067 28.3407C71.4067 28.3407 69.1154 24.6948 70.766 21.5266C72.0799 19.0019 73.0627 17.6228 73.0627 17.6228" stroke="#455275" stroke-miterlimit="10"/>
<path d="M74.2191 17.3L76.7412 17.5824C80.2541 17.976 83.4222 15.4459 83.8131 11.9329C84.2828 7.72233 81.2531 3.92708 77.0425 3.45742C72.8319 2.98777 69.0367 6.01745 68.567 10.2281C68.1761 13.741 70.7062 16.9091 74.2191 17.3Z" fill="#263238"/>
<path d="M79.2144 1.87736C77.952 3.36505 78.9917 4.58399 80.4767 5.84364C81.9617 7.10601 83.3354 7.9313 84.5977 6.4436C85.8601 4.95862 85.4529 3.10443 83.9652 1.84207C82.4775 0.582413 80.4767 0.389665 79.2144 1.87736Z" fill="#263238"/>
<path d="M82.6051 7.25792L84.0901 8.62617C84.4892 8.22167 84.4783 7.58641 84.0684 7.20906C83.6612 6.8317 83.0042 6.85342 82.6051 7.25792Z" fill="#263238"/>
<path d="M71.9659 6.34595C71.1081 6.73144 69.8864 8.64536 69.5091 12.9021C69.1887 16.51 70.2556 17.5281 70.8149 17.8511C71.3714 18.1715 72.5197 18.1443 73.6382 18.0819L73.4428 19.8356C73.4428 19.8356 71.3252 21.5758 71.3117 22.5776C71.2954 23.5793 73.7224 24.3014 75.2508 23.4952C76.7792 22.6862 78.1556 21.136 78.1556 21.136L78.7148 15.9671C78.7148 15.9671 79.2904 16.6675 80.493 15.8314C81.4866 15.1418 81.94 13.8414 81.3156 13.0487C80.6912 12.2533 79.3664 12.3022 78.7528 13.2686C78.7528 13.2686 76.9937 13.1356 74.8056 11.5963C72.6147 10.0543 71.9659 7.75763 71.9659 6.34595Z" fill="#FFA8A7"/>
<path d="M73.6273 12.4486C73.5839 12.7065 73.7522 12.9481 74.002 12.9861C74.249 13.0268 74.4852 12.8503 74.5286 12.5924C74.5694 12.3345 74.4038 12.0929 74.154 12.0549C73.9042 12.0142 73.6708 12.1907 73.6273 12.4486Z" fill="#263238"/>
<path d="M73.1658 15.4836L72.0772 15.7008C72.1315 16.0103 72.4193 16.2139 72.7179 16.1542C73.0192 16.0945 73.2201 15.7958 73.1658 15.4836Z" fill="#F28F8F"/>
<path d="M70.0737 10.6432L71.0592 10.1111C70.9208 9.83151 70.5896 9.72291 70.3154 9.86951C70.0439 10.0161 69.9353 10.3636 70.0737 10.6432Z" fill="#263238"/>
<path d="M70.166 11.729C70.1226 11.9869 70.2909 12.2286 70.5407 12.2693C70.7877 12.31 71.0239 12.1335 71.0673 11.8756C71.1108 11.6177 70.9424 11.3761 70.6954 11.3381C70.4429 11.2947 70.2067 11.4711 70.166 11.729Z" fill="#263238"/>
<path d="M72.2564 11.4741L71.9524 14.4251L70.5678 13.8197L72.2564 11.4741Z" fill="#F28F8F"/>
<path d="M73.6355 18.0818C74.8083 18.0601 77.2678 17.642 77.7429 16.7407C77.7429 16.7407 77.5529 17.319 76.7737 17.8483C75.9946 18.3777 73.554 18.8012 73.554 18.8012L73.6355 18.0818Z" fill="#F28F8F"/>
<path d="M71.5722 11.865C71.5722 11.865 71.7867 11.6506 72.0772 11.7103C72.3676 11.77 72.783 12.275 72.783 12.275L73.0844 11.9465C73.0844 11.9465 72.6771 11.3872 72.164 11.2786C71.727 11.1863 71.4229 11.39 71.4229 11.39L71.5722 11.865Z" fill="#263238"/>
<path d="M72.7885 11.0967C73.2907 10.4424 73.8526 10.3067 75.1747 10.4397C76.4941 10.5727 77.1782 10.9745 77.4253 11.8432C77.6723 12.7119 77.0696 14.5661 75.2127 14.6421C73.3966 14.7182 72.7396 13.4639 72.6093 12.7228C72.5007 12.1038 72.5224 11.4414 72.7885 11.0967Z" fill="#172752"/>
<path d="M75.0607 14.2377C75.1069 14.2377 75.1503 14.2377 75.1965 14.2349C75.9756 14.2024 76.4262 13.8006 76.6651 13.4694C77.0371 12.9563 77.1321 12.3047 77.0344 11.9545C76.8742 11.3899 76.4914 10.9826 75.134 10.8469C74.8408 10.817 74.5965 10.8035 74.3929 10.8035C73.6653 10.8035 73.3884 10.9881 73.1115 11.3491C72.9785 11.5229 72.8943 11.9925 73.0111 12.6549C73.0572 12.9183 73.3748 14.2377 75.0607 14.2377Z" fill="#FAFAFA"/>
<path d="M71.6999 11.1402C71.7134 10.486 71.0945 9.68238 69.9787 9.43262C69.0855 9.23173 68.1924 9.69595 68.0865 10.5158C67.9562 11.523 68.1191 12.7338 69.4113 13.0948C70.5461 13.4125 71.727 12.7392 71.6999 11.1402Z" fill="#172752"/>
<path d="M69.9569 12.7634C70.318 12.7634 70.6438 12.6331 70.8745 12.3969C71.1569 12.1119 71.3008 11.6775 71.2899 11.1481C71.3008 10.6486 70.7768 10.0296 69.8864 9.82875C69.7778 9.80432 69.6692 9.79346 69.5579 9.79346C69.0882 9.79346 68.5534 10.0351 68.4855 10.5699C68.3335 11.7508 68.6783 12.4702 69.5171 12.7037C69.6665 12.7417 69.8131 12.7634 69.9569 12.7634Z" fill="#FAFAFA"/>
<path d="M79.5673 15.6899C79.5673 15.6899 79.2605 18.9857 78.7691 20.8914C77.7429 24.8631 74.9413 26.7038 71.4039 28.3408C71.4039 28.3408 70.0601 32.9803 70.0954 34.6418C70.1307 36.3032 73.9613 41.2821 73.7414 42.6965" stroke="#455275" stroke-miterlimit="10"/>
<path d="M79.3854 14.5851C79.3935 14.2267 79.684 13.939 80.0451 13.939C80.4089 13.939 80.7048 14.2349 80.7048 14.5987C80.7048 14.9624 80.4089 15.2583 80.0451 15.2583C79.9854 15.2583 79.9283 15.2475 79.8713 15.2339L79.7302 16.4148C79.7166 16.5234 79.6216 16.5994 79.513 16.5886C79.4098 16.5777 79.3311 16.4881 79.3338 16.385L79.3854 14.5851Z" fill="#455275"/>
<path d="M89.1802 59.7292L88.078 59.0912L82.5643 36.8084L83.6665 34.8972L84.7687 35.5352L90.2824 57.818L89.1802 59.7292Z" fill="#263238"/>
<path d="M84.7687 35.5352L83.6665 37.4436L89.1802 59.7292L90.2824 57.818L84.7687 35.5352Z" fill="#37474F"/>
<path d="M63.1239 55.9174C66.4277 55.9879 88.7784 56.4657 92.0823 56.5363C92.3076 56.5418 92.647 56.6368 92.8425 56.7481L93.2415 56.9761C93.437 57.0874 93.437 57.2693 93.2415 57.3833L87.5677 60.6601C87.3722 60.7714 87.0328 60.8609 86.8075 60.8555L64.2261 60.3723C64.0007 60.3669 63.6614 60.2718 63.4659 60.1605C63.3383 60.0872 63.1944 60.0058 63.0696 59.9325C62.8741 59.8212 62.7166 59.547 62.7166 59.3217C62.7166 58.5887 62.7166 57.0494 62.7166 56.3164C62.7139 56.0911 62.8985 55.9119 63.1239 55.9174Z" fill="#455A64"/>
<path d="M63.8161 59.9572V56.9519C63.8161 56.7266 63.998 56.5474 64.2234 56.5529L93.1845 57.1718C93.4099 57.1773 93.4343 57.2723 93.2388 57.3836L87.565 60.6603C87.3695 60.7716 87.0301 60.8612 86.8048 60.8558L64.2234 60.3725C64.0007 60.3698 63.8161 60.1825 63.8161 59.9572Z" fill="#263238"/>
<path d="M62.714 56.3137V59.3189C62.714 59.5443 62.8714 59.8185 63.0669 59.9298C63.1945 60.0031 63.3357 60.0872 63.4633 60.1605C63.6587 60.2718 63.9981 60.3668 64.2234 60.3723C63.9981 60.3668 63.8162 60.1822 63.8162 59.9569V56.9517C63.8162 56.8214 63.8786 56.7046 63.9736 56.634L62.8714 55.9988C62.7764 56.0694 62.714 56.1834 62.714 56.3137Z" fill="#263238"/>
<path d="M66.3762 72.896L68.9796 71.392C69.1751 71.2807 69.4113 71.0228 69.5063 70.8219L96.7246 13.619C96.8223 13.4153 96.7409 13.1602 96.5481 13.0489L96.1518 12.8181C95.9563 12.7068 95.6414 12.7068 95.4459 12.8181L92.8425 14.3221C92.647 14.4334 92.4108 14.6913 92.3158 14.8922L65.0948 72.0951C64.9971 72.2987 65.0785 72.5539 65.2712 72.6652L65.6676 72.896C65.8658 73.0073 66.1807 73.0073 66.3762 72.896Z" fill="#263238"/>
<path d="M92.8425 14.7288L93.2389 14.9596C93.4343 15.0709 93.513 15.3288 93.4153 15.5297L66.197 72.7326C66.0993 72.9362 65.8631 73.0095 65.6704 72.8955L65.274 72.6647C65.0785 72.5534 64.9998 72.2955 65.0975 72.0947L92.3131 14.8917C92.4108 14.6881 92.647 14.6148 92.8425 14.7288Z" fill="#37474F"/>
<path d="M92.3403 14.8429C92.4516 14.6773 92.6633 14.6257 92.8398 14.7262L93.2389 14.9569C93.3474 15.0194 93.418 15.1252 93.4452 15.242L96.7518 13.3335C96.7246 13.2168 96.654 13.1082 96.5454 13.0457L96.1491 12.8177C95.9536 12.7037 95.6387 12.7037 95.4433 12.8177L92.8398 14.319C92.6633 14.4248 92.4461 14.6502 92.3403 14.8429Z" fill="#455A64"/>
<path d="M65.5862 49.5405V49.5595C65.5862 49.5541 65.5862 49.546 65.5889 49.5405H65.5862Z" fill="#263238"/>
<path d="M65.5862 49.5649V50.8273C65.5862 50.83 65.5862 50.8327 65.5862 50.8327C65.5889 51.058 65.7328 51.2807 66.0205 51.4463C66.6314 51.7965 67.6494 51.7775 68.3009 51.4028L80.9898 44.0757C81.1201 44.0024 81.1852 43.9046 81.1852 43.8069V42.5364H81.1825C81.1825 42.6341 81.1201 42.7318 80.9898 42.8079L68.3009 50.135C67.6494 50.5097 66.6314 50.5287 66.0205 50.1785C65.7328 50.0129 65.5889 49.7902 65.5862 49.5649Z" fill="#263238"/>
<path d="M66.0205 50.1787C66.6314 50.5289 67.6494 50.5099 68.3009 50.1352L80.9898 42.8081C81.2504 42.6588 81.2504 42.4144 80.9898 42.2651L79.7247 41.5348C79.4641 41.3855 79.0433 41.3855 78.7854 41.5348L66.0938 48.862C65.7545 49.0575 65.5835 49.3154 65.5862 49.5651C65.5889 49.7905 65.7328 50.0131 66.0205 50.1787Z" fill="#37474F"/>
<path d="M58.9838 48.1371C58.9784 48.1425 58.9947 48.1289 59.0137 48.1181L66.52 43.7826C66.6232 43.7229 66.7915 43.7229 66.8947 43.7826L70.6112 45.9273C70.6302 45.9381 70.6465 45.9517 70.6411 45.9463C70.7307 46.0141 70.7985 46.1417 70.7985 46.2503V46.4268C70.7985 46.5462 70.7144 46.6901 70.6112 46.7498L63.1049 51.0853C63.0533 51.1152 62.9854 51.1288 62.9175 51.1288C62.8497 51.1288 62.7818 51.1125 62.7302 51.0853L59.0137 48.9407C58.9105 48.8809 58.8264 48.737 58.8264 48.6176V48.4411C58.8264 48.3325 58.8943 48.2049 58.9838 48.1371Z" fill="#747D97"/>
<path opacity="0.4" d="M59.011 48.3325L62.7275 50.4772C62.8307 50.5369 62.999 50.5369 63.1021 50.4772L70.6085 46.1417C70.7116 46.082 70.7116 45.987 70.6085 45.9273L66.892 43.7826C66.7888 43.7229 66.6205 43.7229 66.5173 43.7826L59.011 48.1181C58.9078 48.1778 58.9078 48.2728 59.011 48.3325Z" fill="white"/>
<path d="M67.8069 45.1942C67.9507 45.2756 68.1815 45.2756 68.3254 45.1942C68.4693 45.1127 68.4693 44.977 68.3254 44.8956C68.1815 44.8141 67.9507 44.8141 67.8069 44.8956C67.663 44.977 67.663 45.11 67.8069 45.1942Z" fill="#27DEBF"/>
<g opacity="0.1">
<path d="M70.6085 46.7499C70.7117 46.6901 70.7958 46.5463 70.7958 46.4268V46.2503C70.7958 46.1418 70.728 46.0142 70.6384 45.9463C70.7117 46.006 70.7008 46.0875 70.6085 46.1418L63.1022 50.4772C63.0506 50.5071 62.9827 50.5207 62.9149 50.5207V51.1261C62.9827 51.1261 63.0506 51.1125 63.1022 51.0826L70.6085 46.7499Z" fill="black"/>
</g>
<path d="M63.4659 49.8962L60.0182 47.9063C59.9557 47.871 59.9558 47.814 60.0318 47.7678L65.9364 44.3581C65.9853 44.3309 66.0857 44.3309 66.1454 44.3662L69.5932 46.3561C69.6556 46.3914 69.6556 46.4484 69.5932 46.4864L63.6913 49.8962C63.6288 49.9342 63.5284 49.9342 63.4659 49.8962Z" fill="white"/>
<path d="M61.1041 49.3557C61.1394 49.3774 61.1991 49.3774 61.2344 49.3557C61.2697 49.334 61.2697 49.3014 61.2344 49.2797C61.1991 49.258 61.1394 49.258 61.1041 49.2797C61.0688 49.3014 61.0688 49.3367 61.1041 49.3557Z" fill="#455275"/>
<path d="M61.9728 49.5622C62.0461 49.6029 62.1629 49.6029 62.2362 49.5622C62.3095 49.5215 62.3095 49.4536 62.2362 49.4102C62.1629 49.3695 62.0461 49.3695 61.9728 49.4102C61.8995 49.4536 61.8995 49.5215 61.9728 49.5622Z" fill="#455275"/>
<path d="M61.7882 49.2988C61.837 49.2717 61.8343 49.2255 61.7827 49.1957L60.9194 48.6962C60.8679 48.6663 60.7864 48.6636 60.7376 48.6934C60.6887 48.7206 60.6914 48.7695 60.743 48.7966L61.6063 49.2961C61.6579 49.326 61.7393 49.326 61.7882 49.2988Z" fill="#455275"/>
<path d="M62.1004 47.2873L64.5356 48.6908C64.598 48.7261 64.6984 48.7261 64.7609 48.6908L67.4512 47.138C67.5137 47.1027 67.5137 47.0457 67.4512 47.0076L65.0161 45.6041C64.9536 45.5688 64.8532 45.5688 64.7907 45.6041L62.1004 47.157C62.0407 47.1922 62.0407 47.2493 62.1004 47.2873Z" fill="#E0E0E0"/>
<path d="M66.026 47.127L64.9564 47.7432C64.8776 47.7894 64.7691 47.7649 64.7148 47.6917L63.9573 46.6302C63.903 46.5542 63.9329 46.5107 64.0225 46.5324L66.007 47.0048C66.0966 47.0238 66.1047 47.0808 66.026 47.127Z" fill="white"/>
<path d="M80.4332 21.8064C83.1914 22.4742 84.4104 24.0732 83.6665 28.1182C83.1697 30.8113 81.2775 41.0405 80.5147 42.026C79.9419 42.7644 74.135 45.1426 71.1514 46.8583C70.3641 47.3117 69.9705 47.7949 69.4493 48.3731C68.4312 49.5025 67.1716 49.9477 66.2458 50.3305C65.3174 50.716 64.3048 50.3875 64.3048 50.3875L65.5889 49.6464C66.0558 49.3776 66.4332 48.984 66.6883 48.5089C67.0141 47.9062 67.3725 47.1216 67.1879 46.8773C66.8757 46.4647 65.1274 47.3442 64.3699 46.9913C63.6152 46.6411 63.6967 46.3371 65.0161 45.8973C66.3599 45.4493 67.4865 44.5507 68.7489 44.1924C71.3578 43.4513 76.8986 39.1158 76.8986 39.1158L78.6632 29.3562C78.6632 29.3562 77.8515 26.8722 78.465 25.1076C79.255 22.8434 80.4332 21.8064 80.4332 21.8064Z" fill="#FFA8A7"/>
</svg>
