<svg width="90" height="81" viewBox="0 0 90 81" fill="none" xmlns="http://www.w3.org/2000/svg">
<path fill-rule="evenodd" clip-rule="evenodd" d="M47.0291 11C71.1122 11 84.6577 19.8083 89.2327 37.0711C93.8077 54.3338 76.5249 56.6728 74.2522 67.0194C71.9795 77.3659 51.9569 84.1832 34.3351 79.4874C16.7113 74.7897 1.29317 58.4266 0.080932 44.788C-1.13328 31.1514 11.1665 11 47.0291 11Z" fill="#E0EBFF"/>
<path d="M46.3714 73C68.5796 73 81.074 63.8145 85.2926 45.8118C89.5111 27.8091 73.573 25.3684 71.4757 14.5794C69.3783 3.79041 50.9146 -3.32084 34.6638 1.57824C18.413 6.47732 4.19372 23.5423 3.07435 37.7629C1.95696 51.9854 13.2981 73 46.3714 73Z" fill="#F7F7F7"/>
<mask id="mask0_413_1698" style="mask-type:luminance" maskUnits="userSpaceOnUse" x="2" y="0" width="84" height="74">
<path d="M46.1457 73.7444C68.3217 73.7444 80.798 64.4702 85.0104 46.2938C89.2229 28.1174 73.3078 25.6532 71.2136 14.7601C69.1193 3.86702 50.6823 -3.31284 34.455 1.63351C18.2278 6.57985 4.02915 23.8095 2.9114 38.1673C1.79563 52.527 13.1203 73.7444 46.1457 73.7444Z" fill="white"/>
</mask>
<g mask="url(#mask0_413_1698)">
<path opacity="0.64" d="M1.34216 38.5092H4.66359V43.2248H7.85177V33.6603H11.1732V39.2988H16.4835V31.6674L19.6041 28.5469H23.9219V34.4578H28.0389V28.5469H67.8881V32.7852H72.0051V29.2788H76.3886V35.2554H80.2411V41.8962L82.2339 43.8891V46.8108H87.8127C87.8127 46.8108 104.549 69.657 75.1933 72.1809C45.8394 74.7048 27.3766 75.3691 23.9219 75.2359C20.4692 75.1026 9.84264 70.9856 9.84264 70.9856L2.8378 65.6733C2.8378 65.6733 0.0135854 61.1566 -0.783956 59.9612C-1.5815 58.7659 0.942393 37.9125 0.942393 37.9125" fill="#E2E2E2"/>
</g>
<mask id="mask1_413_1698" style="mask-type:luminance" maskUnits="userSpaceOnUse" x="2" y="0" width="84" height="74">
<path d="M46.1457 73.7444C68.3217 73.7444 80.798 64.4702 85.0104 46.2938C89.2229 28.1174 73.3078 25.6532 71.2136 14.7601C69.1193 3.86702 50.6823 -3.31284 34.455 1.63351C18.2278 6.57985 4.02915 23.8095 2.9114 38.1673C1.79563 52.527 13.1203 73.7444 46.1457 73.7444Z" fill="white"/>
</mask>
<g mask="url(#mask1_413_1698)">
<path d="M64.9008 63.796H27.5834C26.2727 63.796 25.2087 62.732 25.2087 61.4213V39.7903C25.2087 38.4796 26.2727 37.4155 27.5834 37.4155H64.9008C66.2115 37.4155 67.2755 38.4796 67.2755 39.7903V61.4213C67.2755 62.734 66.2115 63.796 64.9008 63.796Z" fill="#262F38"/>
<path d="M67.2755 63.7961H25.2087L20.4314 66.2007H72.0528L67.2755 63.7961Z" fill="#262F38"/>
<path d="M22.9453 65.604L25.3499 64.3948H67.1323L69.5368 65.604H22.9453Z" fill="#999999"/>
<path d="M70.0082 68.4342H22.476C21.3463 68.4342 20.4314 67.5193 20.4314 66.3896V66.2026H72.0528V66.3896C72.0528 67.5193 71.1379 68.4342 70.0082 68.4342Z" fill="#1E262D"/>
<path d="M65.1912 39.6453H27.293V61.5667H65.1912V39.6453Z" fill="#172752"/>
<path d="M29.811 62.9947V26.1885C29.811 25.0866 30.704 24.1917 31.8078 24.1917H60.4855C61.5873 24.1917 62.4823 25.0847 62.4823 26.1885V62.9947C62.4823 64.0966 61.5893 64.9916 60.4855 64.9916H31.8058C30.704 64.9916 29.811 64.0985 29.811 62.9947Z" fill="#BABABA"/>
<path d="M61.285 25.387H31.0043V63.7962H61.285V25.387Z" fill="#DADADA"/>
<path d="M53.7889 33.1909H38.6953V34.3982H53.7889V33.1909Z" fill="#999999"/>
<path d="M53.7889 40.5439H38.6953V41.7512H53.7889V40.5439Z" fill="#999999"/>
<path d="M53.7889 47.895H38.6953V49.1023H53.7889V47.895Z" fill="#999999"/>
<path d="M53.7889 55.2461H38.6953V56.4533H53.7889V55.2461Z" fill="#999999"/>
<path d="M35.1849 35.9239C36.3602 35.9239 37.313 34.9711 37.313 33.7958C37.313 32.6205 36.3602 31.6677 35.1849 31.6677C34.0096 31.6677 33.0568 32.6205 33.0568 33.7958C33.0568 34.9711 34.0096 35.9239 35.1849 35.9239Z" fill="#FFC20E"/>
<path d="M35.0277 34.7465C35.0258 34.7465 35.0258 34.7465 35.0238 34.7465C34.9124 34.7445 34.807 34.6968 34.7334 34.6132L34.0154 33.8057C33.9418 33.7242 33.9498 33.5989 34.0313 33.5253C34.1129 33.4517 34.2382 33.4597 34.3118 33.5412L35.0297 34.3487L36.3026 32.9644C36.3782 32.8829 36.5035 32.8789 36.5831 32.9525C36.6646 33.0281 36.6686 33.1534 36.595 33.2329L35.3181 34.6172C35.2425 34.7007 35.1371 34.7465 35.0277 34.7465Z" fill="white"/>
<path d="M36.6896 42.6378C37.5207 41.8068 37.5207 40.4593 36.6896 39.6283C35.8586 38.7972 34.5111 38.7972 33.6801 39.6283C32.849 40.4593 32.849 41.8068 33.6801 42.6378C34.5111 43.4689 35.8586 43.4689 36.6896 42.6378Z" fill="#FFC20E"/>
<path d="M35.0278 42.0833C35.0258 42.0833 35.0258 42.0833 35.0238 42.0833C34.9125 42.0833 34.807 42.0336 34.7335 41.9521L34.0155 41.1466C33.9419 41.065 33.9498 40.9397 34.0314 40.8661C34.1129 40.7925 34.2382 40.8005 34.3118 40.882L35.0298 41.6895L36.3027 40.3053C36.3783 40.2237 36.5036 40.2197 36.5831 40.2933C36.6647 40.3669 36.6686 40.4942 36.595 40.5738L35.3182 41.958C35.2426 42.0376 35.1372 42.0833 35.0278 42.0833Z" fill="white"/>
<path d="M35.1849 50.5978C36.3602 50.5978 37.313 49.645 37.313 48.4697C37.313 47.2943 36.3602 46.3416 35.1849 46.3416C34.0096 46.3416 33.0568 47.2943 33.0568 48.4697C33.0568 49.645 34.0096 50.5978 35.1849 50.5978Z" fill="#FFC20E"/>
<path d="M35.0277 49.4205C35.0258 49.4205 35.0258 49.4205 35.0238 49.4205C34.9124 49.4185 34.807 49.3708 34.7334 49.2892L34.0154 48.4818C33.9418 48.4002 33.9498 48.2749 34.0313 48.2013C34.1129 48.1277 34.2382 48.1357 34.3118 48.2172L35.0297 49.0247L36.3026 47.6405C36.3782 47.5589 36.5035 47.5549 36.5831 47.6285C36.6646 47.7021 36.6686 47.8294 36.595 47.909L35.3181 49.2932C35.2425 49.3748 35.1371 49.4205 35.0277 49.4205Z" fill="white"/>
<path d="M37.2545 56.2996C37.5246 55.1558 36.8163 54.0096 35.6725 53.7395C34.5287 53.4694 33.3825 54.1777 33.1124 55.3215C32.8423 56.4653 33.5506 57.6115 34.6944 57.8816C35.8382 58.1517 36.9844 57.4434 37.2545 56.2996Z" fill="#FFC20E"/>
<path d="M35.0278 56.7577C35.0258 56.7577 35.0258 56.7577 35.0238 56.7577C34.9125 56.7557 34.807 56.708 34.7335 56.6244L34.0155 55.8189C33.9419 55.7374 33.9498 55.6121 34.0314 55.5385C34.1129 55.4649 34.2382 55.4729 34.3118 55.5544L35.0298 56.3619L36.3027 54.9776C36.3783 54.8961 36.5036 54.8921 36.5831 54.9657C36.6647 55.0393 36.6686 55.1666 36.595 55.2461L35.3182 56.6304C35.2426 56.7119 35.1372 56.7577 35.0278 56.7577Z" fill="white"/>
<path d="M48.5403 23.4239C48.5403 21.6915 47.1341 20.2854 45.4018 20.2854C43.6695 20.2854 42.2634 21.6896 42.2634 23.4239H38.6714V26.6458H52.1322V23.4239H48.5403ZM45.4018 25.0348C44.5128 25.0348 43.7908 24.3129 43.7908 23.4239C43.7908 22.5348 44.5128 21.8129 45.4018 21.8129C46.2909 21.8129 47.0128 22.5348 47.0128 23.4239C47.0128 24.3129 46.2909 25.0348 45.4018 25.0348Z" fill="#172752"/>
<path d="M21.4 21.5544C21.4 21.799 21.2011 21.9999 20.9545 21.9999C20.7099 21.9999 20.509 21.801 20.509 21.5544C20.509 21.3098 20.7079 21.1089 20.9545 21.1089C21.1991 21.1109 21.4 21.3098 21.4 21.5544Z" fill="#E2E2E2"/>
<path d="M31.9172 47.1275C32.4243 46.3618 32.9951 44.904 32.9613 43.7464C32.9295 42.5909 35.0079 42.3065 35.5767 41.6879C36.1475 41.0674 36.6666 40.6835 36.951 41.0018C37.2354 41.32 35.879 42.8833 35.3162 43.0981C35.3162 43.0981 36.3623 45.0273 36.5294 45.6955C36.6945 46.3638 35.8393 47.6705 35.521 47.7023C35.2028 47.7361 35.3699 47.0659 35.3699 47.0659C35.3699 47.0659 34.1049 48.9772 33.1443 48.8996C32.1877 48.824 31.9172 47.1275 31.9172 47.1275Z" fill="#F3B8A5"/>
<path d="M32.2652 46.5088C33.4367 47.3441 34.8309 47.7757 34.8309 47.7757C34.8309 47.7757 34.3118 48.4539 33.922 48.6608C33.5322 48.8676 32.1101 46.8907 32.1101 46.8907L32.2652 46.5088Z" fill="#DD938A"/>
<path d="M17.9692 47.8969L17.4481 49.49L15.1291 48.4857L16.2369 44.8838L17.9692 47.8969Z" fill="#F3B8A5"/>
<path d="M17.8141 48.3682C16.5193 47.9287 15.5488 47.0456 15.5488 47.0456L16.3125 45.1204L18.1025 47.5945L17.8141 48.3682Z" fill="#DD938A"/>
<path d="M21.1992 42.1947C21.1833 43.5431 22.6073 45.6016 22.6073 45.6016L21.4498 46.0034L21.052 48.6486C21.052 48.6486 17.9712 48.3681 16.6068 46.8546C15.2425 45.3431 16.404 42.2126 16.404 42.2126C16.404 42.2126 17.301 41.0849 17.5516 41.057C17.8002 41.0292 20.6125 41.2897 20.6125 41.2897L21.1992 42.1947Z" fill="#F3B8A5"/>
<path d="M22.4024 41.7514C21.1196 42.2864 17.657 42.3898 17.657 42.3898L17.1717 45.3692L15.5487 47.0458C13.4366 45.2976 12.5515 43.7423 12.5316 42.3083C12.5256 41.9025 12.5634 41.5167 12.649 41.1507C12.9433 39.8341 13.8125 38.788 15.3021 38.1634C17.2075 37.3679 19.3893 37.9566 20.151 38.1634C20.9128 38.3723 19.978 36.7792 19.1108 36.986C18.2457 37.1949 20.2206 35.3909 22.1936 36.9681C23.021 37.6304 23.4168 38.4817 23.5023 39.2911C23.6216 40.4089 23.1463 41.4411 22.4024 41.7514Z" fill="#262F38"/>
<path opacity="0.72" d="M22.4024 41.7513C21.1196 42.2863 17.657 42.3897 17.657 42.3897L17.1717 45.369L15.5487 47.0457C13.4366 45.2974 12.5515 43.7421 12.5316 42.3081C12.5256 41.9024 12.5634 41.5166 12.649 41.1506C12.3029 43.3483 14.5364 44.309 14.4787 43.2608C14.423 42.2107 15.2126 40.7568 17.7803 41.1327C20.3479 41.5086 21.2787 41.0552 21.2787 41.0552C21.2787 41.0552 19.8686 40.8682 20.6025 40.2755C21.2966 39.7166 22.4939 40.8225 23.5023 39.291C23.6216 40.4088 23.1463 41.441 22.4024 41.7513Z" fill="#191E23"/>
<path d="M17.5178 44.5018C17.3109 42.9087 16.41 42.6661 15.9585 43.2886C15.509 43.9111 15.8193 46.441 17.2393 45.8861C18.6614 45.3332 17.5178 44.5018 17.5178 44.5018Z" fill="#F3B8A5"/>
<path d="M20.8114 46.4155C20.2803 46.4135 19.8905 46.0376 19.8905 46.0376C19.8905 46.0376 19.9124 47.0181 20.5647 47.0479L20.8114 46.4155Z" fill="white"/>
<path d="M20.6105 43.3801C20.6681 43.6347 20.8034 43.8217 20.9147 43.7958C21.0241 43.7699 21.0679 43.5452 21.0102 43.2906C20.9525 43.036 20.8173 42.8491 20.7059 42.8749C20.5965 42.8988 20.5528 43.1255 20.6105 43.3801Z" fill="#262F38"/>
<path d="M17.0106 44.5916C16.7361 43.6111 16.404 43.814 16.3224 44.4703C16.2389 45.1266 16.8614 45.3195 16.8614 45.3195L17.0106 44.5916Z" fill="#DD938A"/>
<path d="M33.922 48.6606C33.922 48.6606 32.7526 51.4808 31.424 54.5099C31.422 54.5119 31.42 54.5159 31.42 54.5178C30.0914 57.5469 28.6058 60.7808 27.9693 61.6281C26.8496 63.1178 23.4864 61.0135 20.4891 58.8954C20.0715 58.599 19.6598 58.3047 19.264 58.0183C19.0313 57.8512 18.8045 57.6802 18.5818 57.5051C18.5798 57.5051 18.5798 57.5051 18.5798 57.5051C15.6939 55.2498 13.6732 52.5668 13.6732 52.5668L13.4644 50.2696L13.4246 49.844C13.5698 49.8301 13.711 49.8161 13.8483 49.8042C15.9167 49.6113 17.0842 49.5715 17.2492 49.848C17.4262 50.1403 17.8598 51.0711 17.8598 51.0711C17.8598 51.0711 18.1124 51.2561 18.5201 51.5604C19.9919 52.6563 23.4864 55.3015 24.3814 56.3516L32.0207 46.803L33.922 48.6606Z" fill="#172752"/>
<path d="M18.5201 51.5605C18.5301 51.8926 18.6017 54.4682 18.5818 57.5053C18.5818 57.5053 18.5818 57.5072 18.5818 57.5092C18.5639 60.0112 18.4843 62.8295 18.2556 64.9636C18.1701 65.781 18.0607 66.497 17.9254 67.0578C16.9787 70.9938 5.60034 62.8136 5.60034 62.8136C5.60034 62.8136 5.89271 61.9822 6.40584 60.7153C7.65287 57.6405 10.1927 52.004 12.9811 49.4901C12.9811 49.4901 14.1326 47.8612 14.5264 47.9149C15.0913 47.9726 15.8232 48.1496 16.5253 48.3683C17.7325 48.7442 18.8542 49.2474 18.904 49.4901C18.9795 49.8739 18.5201 51.5247 18.5201 51.5247C18.5201 51.5247 18.5201 51.5366 18.5201 51.5605Z" fill="#172752"/>
<path d="M18.5818 57.5092C18.5639 60.0112 18.4843 62.8295 18.2556 64.9636C18.1601 64.9815 18.0845 67.6565 18.0845 67.6565C18.0845 67.6565 13.4584 64.2854 11.6982 63.4639C9.94006 62.6425 7.30281 61.4114 6.40582 60.7153C7.65285 57.6405 10.1927 52.004 12.9811 49.4901C12.9811 49.4901 14.1326 47.8612 14.5264 47.9149C15.0913 47.9726 15.8232 48.1496 16.5252 48.3683C16.8017 49.1579 14.5264 47.9149 14.2142 49.1022C14.1565 49.325 14.0272 49.5577 13.8482 49.8043C13.7368 49.9555 13.6076 50.1106 13.4644 50.2697C12.6012 51.2363 11.2269 52.366 10.4094 53.6767C9.236 55.5562 9.88239 57.3084 12.5316 59.4186C15.1808 61.5288 17.3844 60.8267 17.0105 59.0088C16.6346 57.191 14.1605 55.3155 14.3375 54.51C14.5125 53.7065 15.4513 55.1385 18.5798 57.5053C18.5798 57.5053 18.5798 57.5072 18.5818 57.5092Z" fill="#172752"/>
<path d="M31.42 54.5181C30.0914 57.5471 28.6057 60.7811 27.9693 61.6283C26.8496 63.118 23.4864 61.0138 20.4891 58.8956C19.2262 57.5829 18.6037 56.7436 19.8925 57.4656C21.6387 58.4421 22.5655 60.2997 26.062 60.4151C29.5564 60.5324 29.2859 58.2512 31.42 54.5181Z" fill="#1E3466"/>
<path d="M75.7621 51.294C75.247 52.3222 70.6228 55.0012 71.1379 53.3127C71.2215 53.0402 71.2493 52.8015 71.2314 52.5827C71.136 51.4431 69.7497 50.8425 67.8702 48.8715C67.6296 48.6209 67.4167 48.3265 67.2318 48.0024C67.2298 47.9984 67.2278 47.9944 67.2258 47.9924C65.6765 45.2895 65.9788 40.4287 68.2382 39.1936C68.2382 39.1936 73.6698 40.1363 74.3739 40.6037C75.0759 41.0691 75.9073 44.2474 75.9073 44.2474C75.9073 44.2474 76.2752 50.2657 75.7621 51.294Z" fill="#F7B313"/>
<path d="M73.813 49.7509C73.813 49.7509 72.0011 51.9187 71.848 52.3523C71.8023 52.4856 71.5536 52.5532 71.2314 52.583C71.136 51.4434 69.7497 50.8428 67.8702 48.8718C67.6296 48.6212 67.4168 48.3268 67.2318 48.0026C67.9259 49.1661 70.41 50.8746 70.5731 50.3257C70.7382 49.7767 69.3937 49.5858 69.517 49.2019C69.6403 48.8161 71.3428 49.2278 69.5091 48.0464C67.6753 46.865 66.4581 42.0559 67.8066 40.2917L70.9033 41.3001L73.6818 45.785L73.813 49.7509Z" fill="#F47E14"/>
<path d="M71.301 46.7355L72.0528 49.0386L74.3738 48.0342L73.264 44.4324L71.301 46.7355Z" fill="#F3B8A5"/>
<path d="M73.4808 45.055C73.3536 46.2065 71.7008 47.9567 71.7008 47.9567L71.4164 47.0876L72.731 45.055L73.2243 44.2793L73.4808 45.055Z" fill="#DD938A"/>
<path d="M68.3018 41.7415C68.3177 43.09 66.8937 45.1485 66.8937 45.1485L68.0512 45.5502L68.4828 48.4102C68.4828 48.4102 71.2772 47.6008 72.6435 46.0892C74.0079 44.5777 73.099 41.7594 73.099 41.7594C73.099 41.7594 72.202 40.6317 71.9514 40.6039C71.7028 40.576 68.8905 40.8366 68.8905 40.8366L68.3018 41.7415Z" fill="#F3B8A5"/>
<path d="M68.8905 42.9287C68.8328 43.1833 68.6976 43.3702 68.5862 43.3444C68.4768 43.3185 68.4331 43.0938 68.4908 42.8392C68.5484 42.5846 68.6837 42.3977 68.7951 42.4235C68.9044 42.4474 68.9482 42.6741 68.8905 42.9287Z" fill="#262F38"/>
<path d="M68.8607 46.0455C69.7039 45.6775 70.1415 44.8342 70.1415 44.8342C70.1415 44.8342 70.4378 46.3597 69.153 46.7336L68.8607 46.0455Z" fill="white"/>
<path d="M57.2078 53.5714C56.4122 53.1119 55.2507 52.0618 54.7635 51.0137C54.2762 49.9635 52.2893 50.6397 51.5037 50.3394C50.7161 50.0391 50.0797 49.9277 49.9683 50.3394C49.8549 50.7511 51.7662 51.5447 52.3669 51.485C52.3669 51.485 52.2913 53.6788 52.4424 54.351C52.5916 55.0232 53.9421 55.8088 54.2404 55.6975C54.5407 55.5841 54.0912 55.061 54.0912 55.061C54.0912 55.061 56.0781 56.2066 56.9015 55.7094C57.7229 55.2102 57.2078 53.5714 57.2078 53.5714Z" fill="#F3B8A5"/>
<path d="M56.5654 53.1321C56.1298 54.6854 55.1613 55.5625 55.1613 55.5625C55.1613 55.5625 55.5749 55.8966 56.4182 55.7912C57.2615 55.6858 56.9294 53.4463 56.9294 53.4463" fill="#DD938A"/>
<path d="M75.963 50.2934C75.963 50.2934 75.2509 54.1279 73.3933 57.6681C72.4963 59.3786 71.4681 61.3177 70.4279 62.7597C70.3961 62.8094 70.3603 62.8571 70.3245 62.9029C69.2485 64.3627 68.1646 65.2617 67.2139 64.7863C66.0603 64.2096 62.2039 61.0293 59.3558 58.6228L59.2245 58.5114L59.2226 58.5094C57.4485 57.0098 56.098 55.8384 56.098 55.8384L56.9294 53.4457L68.0691 58.4617C68.4947 56.7513 71.5476 50.8244 71.5476 50.8244C71.5476 50.8244 71.5218 49.7981 71.5476 49.456C71.5755 49.114 72.7788 48.5869 74.9685 47.7456L75.963 50.2934Z" fill="#F74D57"/>
<path d="M70.3245 62.9032C69.2485 64.363 68.1646 65.262 67.2139 64.7866C66.0603 64.2099 62.2039 61.0296 59.3558 58.6231L59.2245 58.5117C59.3121 58.5614 62.1263 60.2023 64.4593 62.1275C66.7545 64.0209 69.2107 64.3511 70.3245 62.9032Z" fill="#CC3644"/>
<path d="M84.5887 63.5932L77.0926 67.9826C77.0926 67.9826 72.3273 69.9735 72.1901 69.0248C72.0986 68.3804 71.7445 64.4762 71.5118 60.8724C71.4005 59.1639 71.3169 57.5231 71.301 56.3298L74.9685 47.7457C74.9685 47.7457 75.6189 47.5707 76.7028 49.0385C76.8878 49.2891 77.2418 49.8818 77.6993 50.6893C79.9169 54.6034 84.5887 63.5932 84.5887 63.5932Z" fill="#F74D57"/>
<path d="M84.5887 63.5933L77.0926 67.9828C77.0926 67.9828 72.3273 69.9736 72.19 69.0249C72.0986 68.3806 71.7445 64.4764 71.5118 60.8725C73.2501 58.8101 74.4395 55.8665 74.9685 56.3299C75.5174 56.8112 73.3993 61.0833 72.5321 62.0977C71.667 63.11 72.1085 64.896 74.3738 62.5332C76.6372 60.1704 79 58.3367 79.1253 56.3299C79.2486 54.3251 74.8333 55.4469 73.9641 54.0149C73.3337 52.9787 75.9351 51.481 77.6993 50.6895C79.9169 54.6036 84.5887 63.5933 84.5887 63.5933Z" fill="#CC3644"/>
<path d="M81.3131 51.7436C79.5887 55.2659 75.5155 54.4962 73.7593 53.5773C72.7072 53.0284 72.0986 51.9643 72.0588 50.8307C72.029 50.0709 72.2577 49.2794 72.7788 48.5872C74.0815 46.8609 73.6062 43.2272 72.2239 43.2491C72.0429 43.253 71.844 43.259 71.6312 43.263C70.2052 43.2849 68.1964 43.1258 67.7748 40.0927C67.6137 38.9372 68.9164 36.815 72.4685 36.3655C75.1495 36.0255 77.578 37.9447 78.0454 39.9475C78.0454 39.9495 78.0454 39.9495 78.0454 39.9495C78.0851 40.1126 78.109 40.2757 78.1209 40.4388C78.2681 42.6047 76.1758 44.1819 78.2681 44.7228C80.3584 45.2658 83.0374 48.2193 81.3131 51.7436Z" fill="#F7B313"/>
<path d="M71.476 43.6928C71.6829 42.0997 72.5838 41.857 73.0353 42.4795C73.4848 43.1021 73.1745 45.6319 71.7545 45.077C70.3324 44.5241 71.476 43.6928 71.476 43.6928Z" fill="#F3B8A5"/>
<path d="M71.848 43.5274C71.9753 42.9108 72.4646 42.9108 72.5282 43.2947C72.5919 43.6766 71.9753 44.4323 71.9753 44.4323L71.848 43.5274Z" fill="#DD938A"/>
<path d="M81.313 51.7433C79.5887 55.2656 75.5155 54.4959 73.7593 53.577C72.7071 53.0281 72.0986 51.964 72.0588 50.8304C72.9796 52.3658 76.5914 53.0818 76.8599 52.5826C77.1702 52.0078 74.2923 51.7413 74.6463 50.6892C75.0003 49.6371 79.1611 52.0953 80.1356 50.1542C81.1102 48.213 80.6149 46.2659 78.7195 45.7846C76.8241 45.3053 75.9749 45.9855 76.0345 44.8339C76.0962 43.6843 77.9658 42.5765 78.1209 40.4385C78.2681 42.6044 76.1758 44.1816 78.2681 44.7225C80.3584 45.2655 83.0374 48.219 81.313 51.7433Z" fill="#F47E14"/>
</g>
</svg>
