<svg width="16" height="16" viewBox="0 0 16 16" fill="none" xmlns="http://www.w3.org/2000/svg">
<path d="M2.41509 14.7362C2.24505 14.7391 2.07714 14.6979 1.92773 14.6167C1.77832 14.5354 1.65251 14.4169 1.56254 14.2725C1.47256 14.1282 1.42151 13.9631 1.41434 13.7931C1.40717 13.6232 1.44414 13.4543 1.52164 13.3029L7.55199 1.50325C7.63319 1.34436 7.75604 1.21052 7.90742 1.11604C8.05879 1.02156 8.23299 0.969982 8.4114 0.96683C8.58981 0.963677 8.76573 1.00907 8.92035 1.09814C9.07496 1.18722 9.20246 1.31663 9.28923 1.47256L15.7283 13.0545C15.8111 13.203 15.8541 13.3705 15.8529 13.5406C15.8517 13.7107 15.8064 13.8776 15.7215 14.025C15.6366 14.1724 15.5149 14.2952 15.3683 14.3815C15.2218 14.4679 15.0553 14.5147 14.8852 14.5175L2.41509 14.7362Z" fill="#EC5865"/>
<path d="M8.82614 9.6929C8.80757 9.77075 8.76366 9.84023 8.70133 9.89043C8.63899 9.94063 8.56176 9.96871 8.48174 9.97027C8.40172 9.97182 8.32344 9.94676 8.2592 9.89902C8.19497 9.85127 8.1484 9.78355 8.12682 9.70648C7.14717 6.10833 7.21464 6.36126 7.21181 6.32346C7.19835 6.15865 7.21882 5.99283 7.27196 5.83624C7.3251 5.67966 7.40978 5.53562 7.52077 5.41305C7.63176 5.29047 7.7667 5.19196 7.91726 5.12358C8.06782 5.05521 8.2308 5.01842 8.39613 5.0155C8.56146 5.01258 8.72564 5.0436 8.87851 5.10662C9.03139 5.16964 9.16973 5.26334 9.28497 5.38192C9.40021 5.50051 9.48992 5.64146 9.54856 5.79608C9.60719 5.95069 9.63349 6.11569 9.62585 6.28087C9.62139 6.3184 9.68054 6.06084 8.82614 9.6929Z" fill="#FFFDFC"/>
<path d="M9.43898 11.7077C9.44225 11.8941 9.39015 12.0773 9.28929 12.2341C9.18842 12.391 9.04332 12.5143 8.87232 12.5887C8.70133 12.6631 8.51212 12.685 8.32863 12.6519C8.14515 12.6187 7.97562 12.5318 7.84149 12.4023C7.70736 12.2728 7.61466 12.1064 7.57511 11.9242C7.53555 11.7419 7.55091 11.5521 7.61926 11.3786C7.6876 11.2051 7.80586 11.0558 7.95908 10.9495C8.11229 10.8433 8.29358 10.7848 8.48001 10.7816C8.72998 10.7772 8.97144 10.8723 9.15128 11.046C9.33112 11.2197 9.43461 11.4577 9.43898 11.7077Z" fill="#FFFDFC"/>
</svg>
