<svg width="23" height="22" viewBox="0 0 23 22" fill="none" xmlns="http://www.w3.org/2000/svg">
<path d="M0 11.5C0 8.45001 1.2116 5.52494 3.36827 3.36827C5.52494 1.2116 8.45001 0 11.5 0C14.55 0 17.4751 1.2116 19.6317 3.36827C21.7884 5.52494 23 8.45001 23 11.5C23 14.55 21.7884 17.4751 19.6317 19.6317C17.4751 21.7884 14.55 23 11.5 23C8.45001 23 5.52494 21.7884 3.36827 19.6317C1.2116 17.4751 0 14.55 0 11.5ZM7.90625 10.7812C8.2875 10.7812 8.65313 10.6298 8.92272 10.3602C9.1923 10.0906 9.34375 9.725 9.34375 9.34375C9.34375 8.9625 9.1923 8.59687 8.92272 8.32728C8.65313 8.0577 8.2875 7.90625 7.90625 7.90625C7.525 7.90625 7.15937 8.0577 6.88978 8.32728C6.6202 8.59687 6.46875 8.9625 6.46875 9.34375C6.46875 9.725 6.6202 10.0906 6.88978 10.3602C7.15937 10.6298 7.525 10.7812 7.90625 10.7812ZM16.5312 9.34375C16.5312 8.9625 16.3798 8.59687 16.1102 8.32728C15.8406 8.0577 15.475 7.90625 15.0938 7.90625C14.7125 7.90625 14.3469 8.0577 14.0773 8.32728C13.8077 8.59687 13.6562 8.9625 13.6562 9.34375C13.6562 9.725 13.8077 10.0906 14.0773 10.3602C14.3469 10.6298 14.7125 10.7812 15.0938 10.7812C15.475 10.7812 15.8406 10.6298 16.1102 10.3602C16.3798 10.0906 16.5312 9.725 16.5312 9.34375ZM16.6204 16.3731C17.1609 15.87 16.7167 15.3439 16.6994 15.3237C16.599 15.2102 16.4925 15.1023 16.3803 15.0003C16.0828 14.733 15.7586 14.497 15.4129 14.2959C14.5504 13.7871 13.2595 13.2969 11.5029 13.2969C9.74625 13.2969 8.45394 13.7856 7.59 14.2945C7.15875 14.5461 6.83962 14.8019 6.62112 14.9989C6.50848 15.1008 6.40147 15.2088 6.30056 15.3223L6.28044 15.3482L6.27325 15.3568L6.27037 15.3597L6.26894 15.3611L6.82812 15.8125L6.2675 15.3626C6.15322 15.5112 6.10155 15.6986 6.12352 15.8848C6.14549 16.0711 6.23935 16.2413 6.38508 16.3593C6.53082 16.4773 6.71688 16.5336 6.90358 16.5163C7.09029 16.499 7.26284 16.4095 7.38444 16.2668L7.38875 16.2624C7.45151 16.1935 7.51772 16.1278 7.58712 16.0655C7.74094 15.9246 7.98244 15.7306 8.31737 15.5336C8.98294 15.1426 10.028 14.7344 11.5029 14.7344C12.9777 14.7344 14.0214 15.1426 14.6841 15.5336C15.019 15.7306 15.2591 15.9246 15.4129 16.0641C15.4818 16.1263 15.5475 16.1921 15.6098 16.261L15.6141 16.2653C15.7338 16.4123 15.9066 16.5061 16.0951 16.5263C16.2835 16.5465 16.4723 16.4915 16.6204 16.3731Z" fill="white"/>
</svg>
