<svg width="24" height="22" viewBox="0 0 24 22" fill="none" xmlns="http://www.w3.org/2000/svg">
<path d="M21.2287 11.959C20.5531 11.6225 19.8025 11.4475 19.0656 11.4475C17.462 11.4475 16.1109 12.2686 15.5377 13.5876C15.0806 14.6375 15.142 16.2325 15.681 17.2083C16.029 17.8409 16.8138 18.5139 17.9874 18.5139C18.2194 18.5139 18.4583 18.487 18.6971 18.4399C19.3453 18.3053 20.2597 17.3496 20.4781 16.5892C20.6418 16.0171 20.0141 15.0413 19.3658 14.5837C19.318 14.55 19.2635 14.55 19.2225 14.55C19.1406 14.55 18.7312 14.5635 18.5333 14.8125C18.4651 14.8932 18.39 15.0413 18.4378 15.2567L18.4514 15.3105L18.4924 15.3441C18.9086 15.7412 19.127 16.219 19.0383 16.5353C18.9769 16.7507 18.7858 16.8987 18.4651 16.9795C18.158 16.9257 17.7213 16.6699 17.5712 16.4882C17.2914 16.145 17.0389 15.3038 17.1549 14.8461C17.3597 14.0385 18.1921 13.4732 19.1884 13.4732C19.8776 13.4732 20.4917 13.7626 20.8738 14.2674C21.5016 15.1019 21.952 16.6901 21.5835 17.4775C21.1263 18.4668 19.8503 19.4965 18.6152 19.8734C18.3013 19.9676 17.9806 20.0147 17.6735 20.0147C16.4726 20.0147 15.2989 19.2811 14.3777 17.9553C13.2655 16.3604 13.2041 14.6846 14.1935 13.0964C14.6097 12.4368 15.1829 11.8446 15.7425 11.2726C16.0086 11.0034 16.2815 10.7274 16.534 10.4448C18.2604 8.5133 18.6766 6.28571 17.7827 3.81584C17.0185 1.69593 15.333 0.39706 12.9106 0.0471059C12.6855 0.0134565 12.4603 0 12.2351 0C10.0993 0 8.05902 1.35944 7.2743 3.29764C6.47593 5.2695 7.09689 7.42306 8.81645 8.66136C9.47152 9.13245 10.3176 9.38819 11.1911 9.38819C12.3306 9.38819 13.3746 8.94402 14.0024 8.197C15.217 6.74335 15.2102 5.09452 13.9751 4.00428C13.5589 3.63414 12.8356 3.49954 12.2965 3.49954C12.0236 3.49954 11.7847 3.53319 11.6005 3.58703C11.1774 3.72163 10.2562 4.56959 10.2494 5.11471C10.2494 5.32334 10.3654 5.48486 10.5838 5.55889L10.6179 5.57235H10.652C10.7407 5.57235 10.7953 5.51851 10.8977 5.42429C11.1092 5.22239 11.5527 4.81187 12.16 4.81187C12.3852 4.81187 12.624 4.87244 12.856 4.98685C13.0539 5.08779 13.0949 5.33007 13.1017 5.4714C13.1222 5.95595 12.8083 6.65586 12.2556 6.98562C11.9485 7.16733 11.4777 7.28173 11.0273 7.28173C10.768 7.28173 10.5292 7.24809 10.3449 7.17406C9.68987 6.93178 9.23951 6.41358 9.0621 5.70694C8.84374 4.82533 9.11669 3.83603 9.76493 3.12267C10.4132 2.41603 11.3139 2.02569 12.3033 2.02569C13.5111 2.02569 14.6711 2.61792 15.4013 3.61395C16.3498 4.89935 16.4931 6.55491 15.7834 8.03548C15.0669 9.54298 13.6408 10.4986 11.9758 10.5996C11.8598 10.6063 11.737 10.6063 11.6141 10.6063C10.7271 10.6063 9.80588 10.4246 8.9188 10.2496C8.33197 10.1352 7.72466 10.0141 7.131 9.94677C6.88535 9.91985 6.63288 9.90639 6.38723 9.90639C3.2347 9.90639 0.518884 12.1811 0.0616997 15.1894C-0.381838 18.1236 1.61067 20.8761 4.59943 21.4616C4.90649 21.5222 5.2272 21.5558 5.53427 21.5558C7.55407 21.5558 9.30775 20.3175 9.99694 18.3995C10.7134 16.4142 9.88094 14.3481 8.09996 13.6953C7.70419 13.554 7.23336 13.48 6.72841 13.48C6.04604 13.48 5.3705 13.6146 4.81779 13.8501C4.12177 14.153 3.50764 15.3172 3.58953 16.1921C3.69188 17.3631 4.26507 17.6525 4.81096 17.9284L4.87237 17.9621C5.06344 18.0563 5.41827 18.1707 5.79357 18.1707C6.37358 18.1707 6.7557 17.9082 6.86488 17.4304L6.8717 17.4102C6.95359 16.643 6.30534 16.32 5.87545 16.0979C5.73898 16.0306 5.50697 15.9162 5.49333 15.8556C5.49333 15.7681 5.67757 15.7076 5.93686 15.7076C6.54417 15.7076 7.36301 16.0104 7.58136 16.4411C7.85431 16.993 7.92255 17.915 7.5063 18.5341C7.03547 19.2273 6.4077 19.5772 5.62298 19.5772C5.03614 19.5772 4.37425 19.3686 3.71235 18.985C2.15656 18.0697 1.61749 15.97 2.50457 14.301C3.39164 12.632 4.88602 11.8042 6.79664 11.9186C8.88468 12.0398 10.4268 13.1771 11.2661 15.2095C11.4572 15.6806 11.6005 16.1854 11.737 16.6699C11.9144 17.316 12.1054 17.9823 12.4125 18.5879C13.5384 20.7886 15.5241 22 18.0079 22C18.0966 22 18.1921 22 18.2808 21.9933C20.8602 21.9058 22.723 20.6136 23.6579 18.2582C24.5996 15.8758 23.5351 13.1098 21.2287 11.959Z" fill="white"/>
</svg>
