<svg width="10" height="12" viewBox="0 0 10 12" fill="none" xmlns="http://www.w3.org/2000/svg">
<path d="M9.88652 8.76615C9.59741 8.21459 9.16765 6.65394 9.16765 4.61558C9.16765 3.39145 8.72858 2.21746 7.94705 1.35187C7.16551 0.486283 6.10552 0 5.00026 0C3.895 0 2.83501 0.486283 2.05347 1.35187C1.27194 2.21746 0.832874 3.39145 0.832874 4.61558C0.832874 6.65452 0.402591 8.21459 0.113478 8.76615C0.0396482 8.90637 0.000508054 9.06568 4.91281e-06 9.228C-0.000498228 9.39032 0.0376536 9.54992 0.110613 9.6907C0.183572 9.83148 0.288758 9.94847 0.415565 10.0299C0.542371 10.1112 0.686313 10.1542 0.832874 10.1543H2.95876C3.05491 10.6754 3.31061 11.1437 3.6826 11.48C4.0546 11.8163 4.52006 12 5.00026 12C5.48046 12 5.94592 11.8163 6.31792 11.48C6.68991 11.1437 6.94561 10.6754 7.04176 10.1543H9.16765C9.31416 10.1541 9.45804 10.1111 9.58477 10.0296C9.71151 9.94821 9.81662 9.83122 9.88952 9.69045C9.96241 9.54969 10.0005 9.39013 9.99999 9.22786C9.99947 9.06558 9.96033 8.90633 9.88652 8.76615ZM5.00026 11.0774C4.74179 11.0773 4.48969 10.9885 4.27868 10.8232C4.06766 10.6579 3.90809 10.4242 3.82193 10.1543H6.17859C6.09243 10.4242 5.93286 10.6579 5.72184 10.8232C5.51083 10.9885 5.25873 11.0773 5.00026 11.0774Z" fill="#172752"/>
</svg>
