<svg width="25" height="25" viewBox="0 0 25 25" fill="none" xmlns="http://www.w3.org/2000/svg">
<path d="M24.7919 11.8393C24.7782 11.7163 24.7646 11.5865 24.7441 11.4635C24.7099 11.1902 24.6826 10.91 24.6416 10.6299C24.3614 8.64827 23.6303 6.83068 22.4823 5.23858C21.4984 3.86513 20.2479 2.75135 18.7788 1.93139C17.4464 1.18658 15.9773 0.721933 14.4057 0.544274C13.9547 0.489609 13.49 0.46228 13.0391 0.46228C12.2396 0.46228 11.447 0.544275 10.6543 0.708268V0.701437L10.5382 0.735602C10.3537 0.776601 10.176 0.817592 9.99153 0.865424C9.75921 0.926921 9.52005 1.00209 9.28772 1.07725C9.0759 1.13875 8.89824 1.19342 8.72741 1.25491C6.87566 1.91772 5.26305 3.03151 3.93061 4.56894C2.59816 6.09955 1.6962 7.8693 1.23839 9.81672C0.917235 11.1902 0.835238 12.5636 0.985565 13.9029C1.14272 15.2695 1.49121 16.5473 2.02419 17.6952C2.60499 18.9388 3.39763 20.0458 4.37476 20.9819C5.46804 22.0274 6.75266 22.8405 8.30376 23.4692C8.98023 23.7425 9.64304 23.8723 10.258 23.968C10.5792 24.0363 10.914 24.091 11.242 24.132C11.3581 24.1456 11.4675 24.1593 11.5836 24.173C11.9389 24.2345 12.3899 24.2618 12.9297 24.2618C13.1484 24.2618 13.3602 24.255 13.5584 24.2481L13.3944 24.3165L14.105 24.2208C14.4057 24.2003 14.6448 24.1661 14.7678 24.1456L14.802 24.1388C14.8225 24.132 14.8362 24.1251 14.8498 24.1183C15.7518 23.9885 16.6196 23.7766 17.4259 23.476C18.4987 23.0728 19.4963 22.533 20.3778 21.8566C21.4301 21.0503 22.3252 20.0731 23.0222 18.9388C23.7191 17.8182 24.1974 16.6293 24.4503 15.3925C24.5323 14.9825 24.5938 14.5657 24.6484 14.1557C24.6758 13.9644 24.7031 13.7799 24.7304 13.5886C24.7372 13.5544 24.7441 13.5134 24.7509 13.4792L24.7646 13.4177L24.7714 11.8803L24.7919 11.8393ZM15.417 4.11112C16.3053 4.11112 17.0432 4.85593 17.0364 5.73056C17.0296 6.60519 16.2916 7.34999 15.417 7.34999C14.5423 7.34999 13.8044 6.60519 13.8044 5.73056C13.8112 4.85593 14.5492 4.11112 15.417 4.11112ZM17.2141 21.7062C16.5991 22.6424 15.7791 23.3257 14.7883 23.7425C14.5697 23.7698 14.3442 23.7971 14.1187 23.8176C13.3261 23.886 12.5061 23.8791 11.6656 23.7903C11.3718 23.7356 11.0848 23.6946 10.8047 23.6536C10.6543 23.6332 10.504 23.6126 10.3537 23.5853C9.49271 23.4077 8.65908 23.1343 7.87328 22.779C7.01232 22.3895 6.21285 21.8976 5.49538 21.3236C4.83941 20.7974 4.25176 20.2098 3.74612 19.5675C3.13798 18.7954 2.63233 17.9481 2.24968 17.0393C1.89436 16.1851 1.65521 15.372 1.51855 14.5384C1.47071 14.224 1.42971 13.8961 1.38872 13.5749C1.36822 13.4314 1.35455 13.2879 1.33405 13.1444V11.7915C1.33405 11.7846 1.33405 11.7846 1.34088 11.7778C1.34771 11.7436 1.36138 11.7026 1.36138 11.6548C1.43655 10.7255 1.6142 9.81673 1.88752 8.96943C2.24284 7.86931 2.75532 6.83068 3.42496 5.88088C4.23126 4.73293 5.23573 3.73531 6.40418 2.92218C7.34714 2.26621 8.35843 1.76055 9.41755 1.40524C9.59521 1.35057 9.7797 1.30274 9.9642 1.25491C10.053 1.22758 10.1487 1.20708 10.2375 1.17975C10.2102 1.37791 10.1897 1.56923 10.1624 1.76056C10.0804 2.37553 10.0052 2.96317 9.94369 3.55082C9.82753 4.56894 9.73187 5.78523 9.87536 7.02884C9.99836 8.10846 10.2922 9.00359 10.7637 9.77572C11.2146 10.5137 11.775 11.1423 12.4378 11.6343C13.1006 12.1331 13.7907 12.6183 14.4945 13.0624C14.72 13.2059 14.9592 13.3084 15.1983 13.4109C15.3623 13.4792 15.5195 13.5476 15.6698 13.6296C16.6538 14.1489 17.3644 14.7707 17.8427 15.536C18.2732 16.2261 18.4782 17.0119 18.4508 17.8661C18.3893 19.26 17.9794 20.5446 17.2141 21.7062Z" fill="white"/>
<path d="M10.478 15.4873H10.4507C9.35743 15.4873 8.50329 16.3209 8.46913 17.4347C8.4418 18.5143 9.31643 19.4163 10.4234 19.4436C10.437 19.4436 10.4575 19.4436 10.478 19.4436C11.5372 19.4436 12.4118 18.5622 12.4323 17.4757C12.4391 16.9564 12.241 16.4576 11.872 16.0818C11.503 15.706 11.011 15.4941 10.478 15.4873Z" fill="white"/>
</svg>
