<svg width="10" height="8" viewBox="0 0 10 8" fill="none" xmlns="http://www.w3.org/2000/svg">
<path d="M8.84615 1.04348H7.51346L6.85817 0.154783C6.82307 0.107196 6.77552 0.0681752 6.71976 0.0411763C6.66399 0.0141775 6.60172 3.435e-05 6.53846 0H3.46154C3.39828 3.435e-05 3.33601 0.0141775 3.28025 0.0411763C3.22448 0.0681752 3.17693 0.107196 3.14183 0.154783L2.48606 1.04348H1.15385C0.847827 1.04348 0.554342 1.15342 0.337954 1.34911C0.121566 1.5448 0 1.81021 0 2.08696V6.95652C0 7.23327 0.121566 7.49868 0.337954 7.69437C0.554342 7.89006 0.847827 8 1.15385 8H8.84615C9.15217 8 9.44566 7.89006 9.66205 7.69437C9.87844 7.49868 10 7.23327 10 6.95652V2.08696C10 1.81021 9.87844 1.5448 9.66205 1.34911C9.44566 1.15342 9.15217 1.04348 8.84615 1.04348ZM6.73077 4.34783C6.73077 4.6574 6.62926 4.96002 6.43908 5.21741C6.2489 5.47481 5.97859 5.67543 5.66234 5.7939C5.34608 5.91237 4.99808 5.94336 4.66234 5.88297C4.32661 5.82257 4.01821 5.6735 3.77616 5.4546C3.53411 5.2357 3.36927 4.95681 3.30249 4.65318C3.2357 4.34956 3.26998 4.03485 3.40098 3.74884C3.53198 3.46284 3.75381 3.21838 4.03844 3.0464C4.32306 2.87441 4.65769 2.78261 5 2.78261C5.45903 2.78261 5.89926 2.94752 6.22384 3.24105C6.54842 3.53459 6.73077 3.9327 6.73077 4.34783Z" fill="#172752"/>
</svg>
