<svg width="37" height="46" viewBox="0 0 37 46" fill="none" xmlns="http://www.w3.org/2000/svg">
<path d="M21.5507 45.9425C29.6842 45.9425 36.2777 45.4534 36.2777 44.8501C36.2777 44.2468 29.6842 43.7577 21.5507 43.7577C13.4172 43.7577 6.82373 44.2468 6.82373 44.8501C6.82373 45.4534 13.4172 45.9425 21.5507 45.9425Z" fill="#E6E6E6"/>
<path d="M32.8506 23.8759C34.1999 25.1647 35.328 27.7349 35.3636 29.1749C35.4089 31.0067 34.0618 31.4385 33.3267 31.8336C32.5915 32.2297 29.6759 33.1311 29.6759 33.1311C29.6759 33.1311 28.5803 32.1779 28.6613 30.956C28.7422 29.734 28.9473 29.5074 28.9473 29.5074C28.9473 29.5074 30.3938 29.6919 31.7107 29.3562C32.7394 29.0939 32.5117 28.2401 32.204 27.6755C32.0119 27.3236 31.5056 26.568 31.0425 25.9301C30.859 25.6775 31.3232 23.5833 31.987 23.1451C32.2029 23.0015 32.7232 23.755 32.8506 23.8759Z" fill="#FCBD41"/>
<path d="M28.9463 29.5073C28.9463 29.5073 30.3928 29.6919 31.7097 29.3562C32.7385 29.0939 32.5107 28.2401 32.203 27.6755C32.135 27.5503 31.9872 27.3473 31.7939 27.1034C31.9483 27.2103 32.922 28.3329 32.6413 29.7135C32.5485 30.1701 32.3498 30.6138 32.0681 30.9614C31.3827 31.8109 31.5413 32.3247 31.5424 32.4693C30.6216 32.8115 29.675 33.1311 29.675 33.1311C29.675 33.1311 28.5793 32.1779 28.6603 30.956C28.7412 29.734 28.9463 29.5073 28.9463 29.5073Z" fill="#CB9428"/>
<path d="M31.985 23.021C32.3283 23.2779 32.665 23.6007 32.9846 23.9666C34.2939 25.467 35.3259 27.7037 35.3626 29.176C35.4079 31.0079 34.0683 31.5541 33.3257 31.8347C32.5431 32.1305 29.675 33.1322 29.675 33.1322C29.675 33.1322 28.5793 32.1791 28.6603 30.9571C28.7412 29.7352 28.9463 29.5085 28.9463 29.5085C28.9463 29.5085 30.3928 29.6931 31.7097 29.3574C32.7385 29.0951 32.5107 28.2412 32.203 27.6767C31.9979 27.301 31.4366 26.4677 30.9498 25.806" stroke="#3F4122" stroke-width="0.5" stroke-miterlimit="10" stroke-linecap="round" stroke-linejoin="round"/>
<path d="M32.4611 30.2878C32.4611 30.2878 33.1444 28.9709 32.134 27.5536" stroke="#3F4122" stroke-width="0.5" stroke-miterlimit="10" stroke-linecap="round" stroke-linejoin="round"/>
<path d="M26.1831 35.8579C27.4029 35.7241 27.6781 34.9015 27.5615 34.5604C27.4039 34.0995 26.535 33.6947 25.6779 34.0747C24.8208 34.4546 24.7183 35.3419 25.0928 35.6053C25.4674 35.8687 25.8031 35.9 26.1831 35.8579Z" fill="#E3DDDA"/>
<path d="M26.1831 35.858C27.4029 35.7242 27.6976 35.0258 27.5615 34.5605C27.3888 33.969 26.535 33.6948 25.6779 34.0748C24.8208 34.4547 24.7183 35.3421 25.0928 35.6054C25.4674 35.8688 25.8031 35.9001 26.1831 35.858Z" stroke="#3F4122" stroke-width="0.5" stroke-miterlimit="10" stroke-linecap="round" stroke-linejoin="round"/>
<path d="M30.4898 32.8514C30.6528 33.5056 29.948 34.3551 28.7865 34.2007C27.6185 34.0453 27.4307 33.4505 27.4307 33.4505C27.4307 33.4505 27.4285 34.0658 26.9374 34.626C26.4462 35.1863 25.9292 35.1226 25.9292 35.1226C25.9292 35.1226 27.0075 35.4982 27.1673 35.8674C27.326 36.2366 26.8899 36.908 25.8288 36.8832C24.8465 36.8594 23.7228 35.7444 23.5317 35.5932C23.1701 35.3061 22.4231 34.9153 21.6254 33.4786C20.8288 32.0418 21.6837 30.0006 22.3648 28.9978C23.0459 27.9939 24.3413 27.9345 25.37 28.1774C26.3987 28.4203 27.3303 29.109 27.3303 29.109C27.3303 29.109 27.3141 28.9017 28.21 28.756C29.4687 28.5498 29.8508 29.4846 29.8508 29.4846C29.8508 29.4846 29.3543 29.7037 29.3705 30.7918C29.3953 32.5308 30.4898 32.8514 30.4898 32.8514Z" fill="white"/>
<path d="M21.4377 33.0339C21.4312 33.0134 21.4236 32.994 21.4182 32.9734C21.3956 32.8979 21.3761 32.8212 21.3599 32.7435C21.3567 32.7284 21.3545 32.7122 21.3513 32.6971C21.3384 32.6323 21.3276 32.5676 21.3189 32.5006C21.3157 32.4747 21.3125 32.4488 21.3092 32.4229C21.3017 32.3592 21.2963 32.2955 21.2919 32.2308C21.2909 32.2114 21.2887 32.1919 21.2876 32.1725C21.2844 32.0991 21.2822 32.0246 21.2822 31.9501L21.2833 31.9512C21.2833 31.7472 21.2973 31.541 21.3222 31.3348C21.388 31.5594 21.4916 31.9555 21.6115 32.3463C22.1523 33.6168 23.929 34.095 25.1769 34.0162C26.5251 33.9309 26.8652 33.4592 26.9796 33.1213C27.0487 32.9173 27.0972 32.709 27.1102 32.4942C27.3013 32.7014 27.5377 32.8731 27.7848 32.9929C28.127 33.158 28.5297 33.2455 28.8902 33.0933C29.3371 32.9054 29.5001 32.4607 29.4925 32.0084C29.4904 31.8551 29.4742 31.7019 29.4623 31.5486C29.7311 32.628 30.49 32.8515 30.49 32.8515C30.653 33.5056 29.9481 34.3551 28.7866 34.2008C28.1573 34.1166 27.814 33.9061 27.6305 33.7291C27.4729 33.5779 27.4308 33.4506 27.4308 33.4506C27.4308 33.4506 27.4286 34.0659 26.9375 34.6261C26.4463 35.1863 25.9293 35.1226 25.9293 35.1226C25.9293 35.1226 27.0076 35.4983 27.1674 35.8675C27.3261 36.2366 26.89 36.908 25.8289 36.8832C24.8466 36.8595 23.7229 35.7444 23.5318 35.5933C23.1702 35.3061 22.4232 34.9154 21.6255 33.4786C21.5877 33.4106 21.5542 33.3394 21.5229 33.2671C21.5143 33.2455 21.5057 33.225 21.497 33.2034C21.4765 33.1483 21.456 33.0911 21.4377 33.0339Z" fill="#E3DDDA"/>
<path d="M24.9385 35.1C24.9385 35.1 25.8722 35.2489 26.4432 35.0104" stroke="#3F4122" stroke-width="0.5" stroke-miterlimit="10" stroke-linecap="round" stroke-linejoin="round"/>
<path d="M27.3046 30.6841C27.3046 30.6841 27.1859 30.1055 27.3316 29.1091" stroke="#3F4122" stroke-width="0.5" stroke-miterlimit="10" stroke-linecap="round" stroke-linejoin="round"/>
<path d="M27.2463 32.4185C27.2463 32.4185 27.2301 33.2583 27.5183 33.6372" stroke="#3F4122" stroke-width="0.5" stroke-miterlimit="10" stroke-linecap="round" stroke-linejoin="round"/>
<path d="M30.4898 32.8514C30.6528 33.5056 29.948 34.3551 28.7865 34.2007C27.6185 34.0453 27.4307 33.4505 27.4307 33.4505C27.4307 33.4505 27.4285 34.0658 26.9374 34.626C26.4462 35.1863 25.9292 35.1226 25.9292 35.1226C25.9292 35.1226 27.0075 35.4982 27.1673 35.8674C27.326 36.2366 26.8899 36.908 25.8288 36.8832C24.8465 36.8594 23.7228 35.7444 23.5317 35.5932C23.1701 35.3061 22.4231 34.9153 21.6254 33.4786C20.8288 32.0418 21.6837 30.0006 22.3648 28.9978C23.0459 27.9939 24.3413 27.9345 25.37 28.1774C26.3987 28.4203 27.3303 29.109 27.3303 29.109C27.3303 29.109 27.3141 28.9017 28.21 28.756C29.4687 28.5498 29.8508 29.4846 29.8508 29.4846C29.8508 29.4846 29.3543 29.7037 29.3705 30.7918C29.3953 32.5308 30.4898 32.8514 30.4898 32.8514Z" stroke="#3F4122" stroke-width="0.5" stroke-miterlimit="10" stroke-linecap="round" stroke-linejoin="round"/>
<path d="M8.41615 18.24C8.50251 18.1925 8.58886 18.1471 8.6763 18.1007C8.86089 19.1413 9.08973 20.3935 9.48805 21.1221C10.0515 22.1551 10.2771 22.5934 11.8046 22.3753C12.9304 22.2145 14.6619 21.5679 15.6226 20.9407C15.5136 21.6586 15.6247 23.3879 15.3538 24.055C13.8836 24.6098 11.9082 24.9347 10.6754 25.075C9.64889 25.1916 9.02496 24.6983 8.51654 24.1435C7.48243 23.0187 6.65017 21.6553 6.10181 19.7965C6.83799 19.2093 7.61304 18.6879 8.41615 18.24Z" fill="#FCBD41"/>
<path d="M8.36753 22.0116C8.5532 21.7233 8.72699 21.4341 8.92345 21.1707C9.07673 20.9667 9.19871 20.7551 9.28507 20.5208C8.98498 19.8332 8.75937 18.9643 8.60501 18.1007C8.51866 18.1471 8.43122 18.1925 8.34486 18.24C7.54175 18.6879 6.7667 19.2093 6.03052 19.7965C6.57888 21.6543 7.41114 23.0187 8.44525 24.1435C8.51973 24.2244 8.59746 24.3043 8.67841 24.381C8.46252 23.9924 7.78894 22.9118 8.36753 22.0116Z" fill="#CB9428"/>
<path d="M15.0643 24.137C14.6638 24.2784 12.6852 24.8667 11.1038 24.9984C9.34213 25.1452 8.87581 24.5396 8.42892 24.1413C7.81039 23.5897 7.13466 22.6107 6.71475 21.6953C6.54743 21.2883 6.38012 20.8814 6.2128 20.4744C5.95913 19.966 6.14804 19.5612 6.60033 19.2611C7.23612 18.7592 7.95288 18.5616 8.60487 18.1007M8.60487 18.1007C8.06082 18.3857 8.84667 19.4608 8.60487 18.1007ZM8.60487 18.1007C8.84667 19.4608 9.2493 21.1987 10.196 22.1357C11.1696 23.0997 14.1414 21.773 15.1161 21.2754" stroke="#3F4122" stroke-width="0.5" stroke-miterlimit="10" stroke-linecap="round" stroke-linejoin="round"/>
<path d="M5.24257 19.8786C5.01804 20.5651 5.19399 21.311 5.91507 21.5711C6.63614 21.8313 8.5349 21.1307 9.202 20.2218C9.8691 19.3129 9.36284 18.4461 8.65795 18.2572C7.95307 18.0683 5.24257 19.8786 5.24257 19.8786Z" fill="white"/>
<path d="M6.4073 19.1565C5.76286 19.5311 5.24257 19.8786 5.24257 19.8786C5.01804 20.5652 5.19399 21.3111 5.91507 21.5712C6.63614 21.8314 8.5349 21.1308 9.202 20.2219C9.3121 20.0719 9.38982 19.9229 9.44056 19.7772C9.039 20.1399 8.51762 20.3687 7.95847 20.3817C7.19098 20.4022 6.32742 19.9769 6.4073 19.1565Z" fill="#E3DDDA"/>
<path d="M8.27782 14.4363C8.27998 14.4352 8.28322 14.4341 8.28537 14.433C8.15044 14.2506 8.01767 13.9224 7.88166 13.5554C7.51033 13.8361 7.14763 14.1329 6.79141 14.4395C5.74434 15.3419 4.70375 16.2476 3.63509 17.1155C3.40733 17.3011 3.17957 17.4868 2.95288 17.6746C3.13423 17.9391 3.25621 17.9952 3.25621 17.9952C3.29938 19.1103 3.83155 20.1012 4.87646 20.3311C6.91123 20.1833 8.98054 19.6414 9.98227 17.0464C9.40692 16.0101 8.84453 15.2664 8.27782 14.4363Z" fill="white"/>
<path d="M9.87545 17.3958C9.88516 17.344 9.88948 17.2944 9.89704 17.2436C9.9251 17.1778 9.95533 17.1152 9.98231 17.0461C9.96612 17.017 9.94885 16.9867 9.93158 16.9565C9.99743 16.1113 9.7837 15.3999 9.45986 14.9261C9.45878 14.9239 9.4577 14.9228 9.45554 14.9207C9.52139 15.3319 9.52139 15.7659 9.43287 16.2236C9.15438 17.6506 9.50844 18.4548 8.38365 18.9524C7.94431 19.1467 5.20574 19.7339 3.95142 19.749C4.23207 20.0448 4.54835 20.2596 4.87651 20.3319C6.28951 20.2294 7.71762 19.9347 8.79492 18.8974C9.39941 18.6135 9.72433 18.2011 9.87545 17.3958Z" fill="#E3DDDA"/>
<path d="M8.27782 14.4363C8.27998 14.4352 8.28322 14.4341 8.28537 14.433C8.15044 14.2506 8.01767 13.9224 7.88166 13.5554C7.51033 13.8361 7.14763 14.1329 6.79141 14.4395C5.74434 15.3419 4.70375 16.2476 3.63509 17.1155C3.40733 17.3011 3.17957 17.4868 2.95288 17.6746C3.13423 17.9391 3.25621 17.9952 3.25621 17.9952C3.25945 18.0718 3.26484 18.1474 3.2724 18.2219C3.67611 18.4453 4.09926 18.6105 4.53104 18.4907C4.69296 18.4453 4.83976 18.3557 4.98009 18.25C5.10639 18.155 5.2737 18.0384 5.34279 17.8732C5.37625 17.7923 5.36977 17.7081 5.4313 17.6455C5.48743 17.5883 5.58135 17.5591 5.64827 17.531C5.81019 17.463 5.97859 17.4177 6.14266 17.3562C6.49025 17.2234 6.70182 16.8499 7.04616 16.7171C7.3592 16.5962 7.69599 16.58 8.00364 16.4397C8.3577 16.28 8.68585 16.0036 8.99134 15.7435C9.03128 15.7089 9.07014 15.6722 9.11008 15.6366C8.83158 15.2286 8.55524 14.8421 8.27782 14.4363Z" fill="#E3DDDA"/>
<path d="M5.15263 20.3644C5.12996 20.8879 5.36204 21.3726 5.91472 21.5723C6.6358 21.8324 8.53455 21.1319 9.20166 20.223C9.65287 19.6088 9.56759 19.0129 9.24699 18.6329" stroke="#3F4122" stroke-width="0.5" stroke-miterlimit="10" stroke-linecap="round" stroke-linejoin="round"/>
<path d="M4.82164 16.8065C4.99003 17.5298 4.3456 17.9734 3.87712 18.0263C3.43238 18.077 3.25427 17.941 2.85596 17.6312" stroke="#3F4122" stroke-width="0.5" stroke-miterlimit="10" stroke-linecap="round" stroke-linejoin="round"/>
<path d="M3.2561 17.995C3.29928 19.1101 3.83145 20.101 4.87636 20.3309" stroke="#3F4122" stroke-width="0.5" stroke-miterlimit="10" stroke-linecap="round" stroke-linejoin="round"/>
<path d="M4.69409 20.2908C5.16473 20.5089 6.2485 20.2142 6.9944 19.7705" stroke="#3F4122" stroke-width="0.5" stroke-miterlimit="10" stroke-linecap="round" stroke-linejoin="round"/>
<path d="M18.114 28.9C17.9165 31.1388 17.3465 35.938 17.2116 37.4439C17.0486 39.2735 16.7874 41.2824 16.7874 41.2824C16.7874 41.2824 18.5296 42.0769 20.4694 41.4454C20.4694 41.4454 20.4564 37.0876 20.4866 34.1958C20.5115 31.8555 20.5277 30.1295 20.5352 29.3188C20.2513 28.302 18.3407 28.2329 18.114 28.9Z" fill="#FCBD41"/>
<path d="M18.0202 33.7713C17.9392 33.7551 17.8572 33.7367 17.7751 33.7195C17.9058 31.9654 18.0493 29.6273 18.1141 28.8997C18.3419 28.2326 20.2514 28.3017 20.5342 29.3175C20.5267 30.1227 20.5105 31.8293 20.4857 34.1426C19.6534 34.0627 18.8265 33.9375 18.0202 33.7713Z" fill="#CB9428"/>
<path d="M17.2276 37.2655C18.2358 37.5051 19.4556 37.5278 20.4692 37.1597C20.4617 39.9868 20.4681 41.4462 20.4681 41.4462C18.5284 42.0777 16.7861 41.2832 16.7861 41.2832C16.7861 41.2832 17.1564 38.0718 17.2276 37.2655Z" fill="white"/>
<path d="M17.0474 39.0736C16.9146 40.2945 16.7861 41.2822 16.7861 41.2822C16.7861 41.2822 18.5284 42.0766 20.4681 41.4452C20.4681 41.4452 20.466 40.4456 20.4649 39.066C19.3541 39.4525 18.1117 39.4913 17.0474 39.0736Z" fill="#E3DDDA"/>
<path d="M17.2276 37.2655C18.2358 37.5051 19.4556 37.5278 20.4692 37.1597C20.4617 39.9868 20.4681 41.4462 20.4681 41.4462C18.5284 42.0777 16.7861 41.2832 16.7861 41.2832C16.7861 41.2832 17.1564 38.0718 17.2276 37.2655Z" stroke="#3F4122" stroke-width="0.5" stroke-miterlimit="10" stroke-linecap="round" stroke-linejoin="round"/>
<path d="M18.114 28.9C17.9165 31.1388 17.3465 35.938 17.2116 37.4439C17.0486 39.2735 16.7874 41.2824 16.7874 41.2824C16.7874 41.2824 18.5296 42.0769 20.4694 41.4454C20.4694 41.4454 20.4564 37.0876 20.4866 34.1958C20.5115 31.8555 20.5277 30.1295 20.5352 29.3188C20.2513 28.302 18.3407 28.2329 18.114 28.9Z" stroke="#3F4122" stroke-width="0.5" stroke-miterlimit="10" stroke-linecap="round" stroke-linejoin="round"/>
<path d="M20.655 40.8054C20.9184 40.5053 21.1623 39.6299 20.9561 39.5619C20.751 39.4939 20.4175 39.455 20.4089 39.6375C20.4013 39.821 20.655 40.8054 20.655 40.8054Z" fill="#473019"/>
<path d="M15.1075 39.6901C15.1982 39.431 15.3763 39.2281 15.576 38.765C15.7357 38.3948 16.1038 38.0202 16.9361 38.0677C18.2638 38.1454 18.389 38.8244 18.1235 39.689C17.8579 40.5537 16.6641 40.83 15.9689 40.8041C15.2737 40.7782 14.8571 40.4036 15.1075 39.6901Z" fill="#EEC63E"/>
<path d="M15.4767 38.9757C15.3181 39.2953 15.1821 39.4744 15.1065 39.6903C14.8571 40.4049 15.2738 40.7784 15.9679 40.8043C16.6631 40.8302 17.8569 40.5539 18.1225 39.6893C18.2358 39.3201 18.2768 38.9855 18.184 38.7167C17.3204 38.9876 16.3954 39.0459 15.4767 38.9757Z" fill="#E6A727"/>
<path d="M15.1075 39.6901C15.1982 39.431 15.3763 39.2281 15.576 38.765C15.7357 38.3948 16.1038 38.0202 16.9361 38.0677C18.2638 38.1454 18.389 38.8244 18.1235 39.689C17.8579 40.5537 16.6641 40.83 15.9689 40.8041C15.2737 40.7782 14.8571 40.4036 15.1075 39.6901Z" stroke="#3F4122" stroke-width="0.5" stroke-miterlimit="10" stroke-linecap="round" stroke-linejoin="round"/>
<path d="M11.4149 43.505L11.2649 42.9696C11.2649 42.9696 11.5218 42.0704 12.3346 41.6213C13.1475 41.1723 14.3284 40.38 14.7569 39.9093C15.1855 39.4387 16.0836 38.9465 16.9407 39.3102C17.7967 39.674 19.3165 40.4016 19.9804 40.3379C20.6443 40.2742 20.6702 40.0378 20.8202 39.7388C20.9702 39.4387 21.3124 40.1025 21.2056 40.638C21.0987 41.1734 21.429 41.9009 21.3869 42.7785C21.3437 43.6561 15.614 44.2336 15.614 44.2336L11.4149 43.505Z" fill="#EEC63E"/>
<path d="M20.7025 41.5587C20.0549 42.0789 19.7753 42.3553 18.9581 42.4859C18.0719 42.6273 17.1609 42.6834 16.266 42.7288C14.5367 42.8162 13.1021 42.7482 11.3728 42.6953C11.2973 42.8583 11.2649 42.9695 11.2649 42.9695L11.4149 43.5049L15.614 44.2325C15.614 44.2325 21.3437 43.6549 21.3869 42.7774C21.4182 42.1254 21.2984 41.5565 21.2164 41.088C21.0544 41.2542 20.8839 41.4129 20.7025 41.5587Z" fill="#E6A727"/>
<path d="M11.4149 43.505L11.2649 42.9696C11.2649 42.9696 11.5218 42.0704 12.3346 41.6213C13.1475 41.1723 14.3284 40.38 14.7569 39.9093C15.1855 39.4387 16.0836 38.9465 16.9407 39.3102C17.7967 39.674 19.3165 40.4016 19.9804 40.3379C20.6443 40.2742 20.6702 40.0378 20.8202 39.7388C20.9702 39.4387 21.3124 40.1025 21.2056 40.638C21.0987 41.1734 21.429 41.9009 21.3869 42.7785C21.3437 43.6561 15.614 44.2336 15.614 44.2336L11.4149 43.505Z" stroke="#3F4122" stroke-width="0.5" stroke-miterlimit="10" stroke-linecap="round" stroke-linejoin="round"/>
<path d="M11.2649 42.9695C10.8579 43.2696 10.7705 44.1893 11.0058 44.8531C11.0058 44.8531 15.8223 44.7884 18.3903 44.7247C20.9583 44.661 21.5348 44.6178 21.5348 44.6178C21.5348 44.6178 21.5779 43.2696 21.3847 42.7773C21.3847 42.7773 17.8592 43.1411 15.4197 43.0979C12.9801 43.0548 11.2649 42.9695 11.2649 42.9695Z" fill="white"/>
<path d="M11.2649 42.9695C10.8579 43.2696 10.7705 44.1893 11.0058 44.8531C11.0058 44.8531 15.8223 44.7884 18.3903 44.7247C20.9583 44.661 21.5348 44.6178 21.5348 44.6178C21.5348 44.6178 21.5779 43.2696 21.3847 42.7773C21.3847 42.7773 17.8592 43.1411 15.4197 43.0979C12.9801 43.0548 11.2649 42.9695 11.2649 42.9695Z" stroke="#3F4122" stroke-width="0.5" stroke-miterlimit="10" stroke-linecap="round" stroke-linejoin="round"/>
<path d="M21.3857 43.3723C21.3857 43.3723 17.8602 43.7361 15.4206 43.6929C12.9811 43.6497 10.9744 43.5882 10.9744 43.5882" stroke="#3F4122" stroke-width="0.5" stroke-miterlimit="10" stroke-linecap="round" stroke-linejoin="round"/>
<path d="M15.0168 39.4365C14.6638 39.4548 14.2773 40.014 14.5083 40.028C14.7394 40.042 15.1139 40.1003 15.5392 40.1845C16.0196 40.2795 16.1405 40.4123 16.3175 40.2385C16.4945 40.0636 16.6187 39.9492 16.3909 39.7624C16.1631 39.5757 15.4593 39.4138 15.0168 39.4365Z" fill="white"/>
<path d="M15.0168 39.4365C14.6638 39.4548 14.2773 40.014 14.5083 40.028C14.7394 40.042 15.1139 40.1003 15.5392 40.1845C16.0196 40.2795 16.1405 40.4123 16.3175 40.2385C16.4945 40.0636 16.6187 39.9492 16.3909 39.7624C16.1631 39.5757 15.4593 39.4138 15.0168 39.4365Z" stroke="#3F4122" stroke-width="0.5" stroke-miterlimit="10" stroke-linecap="round" stroke-linejoin="round"/>
<path d="M14.3251 40.0487C13.9721 40.067 13.5857 40.6262 13.8167 40.6402C14.0477 40.6543 14.4223 40.7126 14.8476 40.7968C15.3279 40.8917 15.4488 41.0245 15.6259 40.8507C15.8029 40.6759 15.927 40.5614 15.6993 40.3747C15.4704 40.1879 14.7666 40.0249 14.3251 40.0487Z" fill="white"/>
<path d="M14.3251 40.0487C13.9721 40.067 13.5857 40.6262 13.8167 40.6402C14.0477 40.6543 14.4223 40.7126 14.8476 40.7968C15.3279 40.8917 15.4488 41.0245 15.6259 40.8507C15.8029 40.6759 15.927 40.5614 15.6993 40.3747C15.4704 40.1879 14.7666 40.0249 14.3251 40.0487Z" stroke="#3F4122" stroke-width="0.5" stroke-miterlimit="10" stroke-linecap="round" stroke-linejoin="round"/>
<path d="M13.4872 40.6457C13.1342 40.664 12.7478 41.2232 12.9788 41.2372C13.2098 41.2513 13.5844 41.3095 14.0097 41.3937C14.49 41.4887 14.6109 41.6215 14.788 41.4477C14.965 41.2728 15.0891 41.1584 14.8614 40.9717C14.6325 40.7849 13.9287 40.623 13.4872 40.6457Z" fill="white"/>
<path d="M13.4872 40.6457C13.1342 40.664 12.7478 41.2232 12.9788 41.2372C13.2098 41.2513 13.5844 41.3095 14.0097 41.3937C14.49 41.4887 14.6109 41.6215 14.788 41.4477C14.965 41.2728 15.0891 41.1584 14.8614 40.9717C14.6325 40.7849 13.9287 40.623 13.4872 40.6457Z" stroke="#3F4122" stroke-width="0.5" stroke-miterlimit="10" stroke-linecap="round" stroke-linejoin="round"/>
<path d="M25.5613 28.8998C25.7589 31.1385 26.3288 35.9378 26.4638 37.4436C26.6268 39.2733 26.888 41.2822 26.888 41.2822C26.888 41.2822 25.1458 42.0766 23.206 41.4452C23.206 41.4452 23.2189 37.0874 23.1887 34.1955C23.1639 31.8553 23.1477 30.1293 23.1401 29.3186C23.424 28.3017 25.3347 28.2327 25.5613 28.8998Z" fill="#FCBD41"/>
<path d="M23.9044 34.1945C23.668 34.2117 23.4295 34.2247 23.1909 34.2322C23.1909 34.2193 23.1909 34.2085 23.1909 34.1955C23.1661 31.8553 23.1499 30.1292 23.1423 29.3186C23.4252 28.3028 25.3358 28.2337 25.5625 28.9008C25.6272 29.6327 25.7719 31.9967 25.9036 33.7551C25.4124 34.12 24.2768 34.1664 23.9044 34.1945Z" fill="#CB9428"/>
<path d="M26.3901 37.2385C25.3819 37.4781 24.2193 37.5278 23.2068 37.1597C23.2143 39.9868 23.2079 41.4462 23.2079 41.4462C25.1476 42.0777 26.8899 41.2832 26.8899 41.2832C26.8899 41.2832 26.4613 38.0448 26.3901 37.2385Z" fill="white"/>
<path d="M23.21 39.1047C23.2089 40.4648 23.2068 41.4449 23.2068 41.4449C25.1466 42.0764 26.8888 41.2819 26.8888 41.2819C26.8888 41.2819 26.728 40.047 26.5801 38.6329C25.4866 39.1208 24.3305 39.4047 23.21 39.1047Z" fill="#E3DDDA"/>
<path d="M26.4431 37.2256C25.4349 37.4653 24.2183 37.5279 23.2058 37.1587C23.2134 39.9858 23.2069 41.4452 23.2069 41.4452C25.1467 42.0767 26.8889 41.2822 26.8889 41.2822C26.8889 41.2822 26.5154 38.033 26.4431 37.2256Z" stroke="#3F4122" stroke-width="0.5" stroke-miterlimit="10" stroke-linecap="round" stroke-linejoin="round"/>
<path d="M25.5613 28.8998C25.7589 31.1385 26.888 41.2822 26.888 41.2822C26.888 41.2822 25.1458 42.0766 23.206 41.4452C23.206 41.4452 23.2189 37.0874 23.1887 34.1955C23.1639 31.8553 23.1477 30.1293 23.1401 29.3186C23.424 28.3017 25.3347 28.2327 25.5613 28.8998Z" stroke="#3F4122" stroke-width="0.5" stroke-miterlimit="10" stroke-linecap="round" stroke-linejoin="round"/>
<path d="M23.0199 40.8052C22.7565 40.5051 22.5125 39.6297 22.7187 39.5616C22.9238 39.4936 23.2574 39.4548 23.266 39.6372C23.2735 39.8207 23.0199 40.8052 23.0199 40.8052Z" fill="#473019"/>
<path d="M28.5674 39.6899C28.4767 39.4308 28.2986 39.2279 28.0989 38.7648C27.9392 38.3945 27.5711 38.0199 26.7388 38.0674C25.4111 38.1452 25.2859 38.8241 25.5514 39.6888C25.817 40.5534 27.0108 40.8298 27.706 40.8039C28.4012 40.7779 28.8178 40.4034 28.5674 39.6899Z" fill="#EEC63E"/>
<path d="M28.1972 38.9757C28.3559 39.2953 28.4919 39.4744 28.5675 39.6903C28.8168 40.4049 28.4001 40.7784 27.7061 40.8043C27.0109 40.8302 25.817 40.5539 25.5515 39.6893C25.4381 39.3201 25.3971 38.9855 25.4899 38.7167C26.3546 38.9876 27.2797 39.0459 28.1972 38.9757Z" fill="#E6A727"/>
<path d="M28.5674 39.6899C28.4767 39.4308 28.2986 39.2279 28.0989 38.7648C27.9392 38.3945 27.5711 38.0199 26.7388 38.0674C25.4111 38.1452 25.2859 38.8241 25.5514 39.6888C25.817 40.5534 27.0108 40.8298 27.706 40.8039C28.4012 40.7779 28.8178 40.4034 28.5674 39.6899Z" stroke="#3F4122" stroke-width="0.5" stroke-miterlimit="10" stroke-linecap="round" stroke-linejoin="round"/>
<path d="M32.2604 43.505L32.4104 42.9696C32.4104 42.9696 32.1535 42.0704 31.3407 41.6213C30.5279 41.1723 29.3469 40.38 28.9184 39.9093C28.4899 39.4387 27.5917 38.9465 26.7347 39.3102C25.8776 39.674 24.3588 40.4016 23.6949 40.3379C23.0311 40.2742 23.0052 40.0378 22.8551 39.7388C22.7051 39.4398 22.3629 40.1025 22.4697 40.638C22.5766 41.1734 22.2463 41.9009 22.2884 42.7785C22.3316 43.6561 28.0613 44.2336 28.0613 44.2336L32.2604 43.505Z" fill="#EEC63E"/>
<path d="M22.9729 41.5587C23.6206 42.0789 23.9002 42.3553 24.7173 42.4859C25.6035 42.6273 26.5146 42.6834 27.4095 42.7288C29.1387 42.8162 30.5733 42.7482 32.3026 42.6953C32.3782 42.8583 32.4106 42.9695 32.4106 42.9695L32.2605 43.5049L28.0615 44.2325C28.0615 44.2325 22.3317 43.6549 22.2885 42.7774C22.2572 42.1254 22.3771 41.5565 22.4591 41.088C22.621 41.2542 22.7905 41.4129 22.9729 41.5587Z" fill="#E6A727"/>
<path d="M32.2604 43.505L32.4104 42.9696C32.4104 42.9696 32.1535 42.0704 31.3407 41.6213C30.5279 41.1723 29.3469 40.38 28.9184 39.9093C28.4899 39.4387 27.5917 38.9465 26.7347 39.3102C25.8776 39.674 24.3588 40.4016 23.6949 40.3379C23.0311 40.2742 23.0052 40.0378 22.8551 39.7388C22.7051 39.4398 22.3629 40.1025 22.4697 40.638C22.5766 41.1734 22.2463 41.9009 22.2884 42.7785C22.3316 43.6561 28.0613 44.2336 28.0613 44.2336L32.2604 43.505Z" stroke="#3F4122" stroke-width="0.5" stroke-miterlimit="10" stroke-linecap="round" stroke-linejoin="round"/>
<path d="M32.4103 42.9695C32.8172 43.2696 32.9046 44.1893 32.6693 44.8531C32.6693 44.8531 27.8528 44.7884 25.2848 44.7247C22.7168 44.661 22.1403 44.6178 22.1403 44.6178C22.1403 44.6178 22.0972 43.2696 22.2904 42.7773C22.2904 42.7773 25.8159 43.1411 28.2554 43.0979C30.6939 43.0548 32.4103 42.9695 32.4103 42.9695Z" fill="white"/>
<path d="M32.4103 42.9695C32.8172 43.2696 32.9046 44.1893 32.6693 44.8531C32.6693 44.8531 27.8528 44.7884 25.2848 44.7247C22.7168 44.661 22.1403 44.6178 22.1403 44.6178C22.1403 44.6178 22.0972 43.2696 22.2904 42.7773C22.2904 42.7773 25.8159 43.1411 28.2554 43.0979C30.6939 43.0548 32.4103 42.9695 32.4103 42.9695Z" stroke="#3F4122" stroke-width="0.5" stroke-miterlimit="10" stroke-linecap="round" stroke-linejoin="round"/>
<path d="M22.2896 43.3721C22.2896 43.3721 25.815 43.7358 28.2546 43.6927C30.6942 43.6495 32.7009 43.588 32.7009 43.588" stroke="#3F4122" stroke-width="0.5" stroke-miterlimit="10" stroke-linecap="round" stroke-linejoin="round"/>
<path d="M28.6584 39.4365C29.0114 39.4548 29.3979 40.014 29.1669 40.028C28.9359 40.042 28.5613 40.1003 28.136 40.1845C27.6556 40.2795 27.5347 40.4123 27.3577 40.2385C27.1807 40.0636 27.0565 39.9492 27.2843 39.7624C27.5121 39.5757 28.2159 39.4138 28.6584 39.4365Z" fill="white"/>
<path d="M28.6584 39.4365C29.0114 39.4548 29.3979 40.014 29.1669 40.028C28.9359 40.042 28.5613 40.1003 28.136 40.1845C27.6556 40.2795 27.5347 40.4123 27.3577 40.2385C27.1807 40.0636 27.0565 39.9492 27.2843 39.7624C27.5121 39.5757 28.2159 39.4138 28.6584 39.4365Z" stroke="#3F4122" stroke-width="0.5" stroke-miterlimit="10" stroke-linecap="round" stroke-linejoin="round"/>
<path d="M29.3503 40.0487C29.7033 40.067 30.0898 40.6262 29.8588 40.6402C29.6278 40.6543 29.2532 40.7126 28.8279 40.7968C28.3475 40.8917 28.2266 41.0245 28.0496 40.8507C27.8726 40.6759 27.7484 40.5614 27.9762 40.3747C28.205 40.1879 28.9088 40.0249 29.3503 40.0487Z" fill="white"/>
<path d="M29.3503 40.0487C29.7033 40.067 30.0898 40.6262 29.8588 40.6402C29.6278 40.6543 29.2532 40.7126 28.8279 40.7968C28.3475 40.8917 28.2266 41.0245 28.0496 40.8507C27.8726 40.6759 27.7484 40.5614 27.9762 40.3747C28.205 40.1879 28.9088 40.0249 29.3503 40.0487Z" stroke="#3F4122" stroke-width="0.5" stroke-miterlimit="10" stroke-linecap="round" stroke-linejoin="round"/>
<path d="M30.1877 40.6457C30.5407 40.664 30.9272 41.2232 30.6962 41.2372C30.4652 41.2513 30.0906 41.3095 29.6653 41.3937C29.1849 41.4887 29.064 41.6215 28.887 41.4477C28.71 41.2728 28.5858 41.1584 28.8136 40.9717C29.0414 40.7849 29.7462 40.623 30.1877 40.6457Z" fill="white"/>
<path d="M30.1877 40.6457C30.5407 40.664 30.9272 41.2232 30.6962 41.2372C30.4652 41.2513 30.0906 41.3095 29.6653 41.3937C29.1849 41.4887 29.064 41.6215 28.887 41.4477C28.71 41.2728 28.5858 41.1584 28.8136 40.9717C29.0414 40.7849 29.7462 40.623 30.1877 40.6457Z" stroke="#3F4122" stroke-width="0.5" stroke-miterlimit="10" stroke-linecap="round" stroke-linejoin="round"/>
<path d="M13.049 15.4218C14.3206 11.0273 17.3981 8.28659 19.0874 7.45973C20.7779 6.63287 21.5982 6.84012 22.2945 6.09854C22.9746 5.37315 23.4938 5.33861 24.312 5.37639V5.37315C24.3217 5.37423 24.3303 5.37639 24.3401 5.37747C24.3498 5.37747 24.3584 5.37855 24.3681 5.37855V5.38178C25.1788 5.50376 25.6807 5.63869 26.2075 6.48282C26.7462 7.34639 27.5914 7.30213 29.0886 8.44203C30.5858 9.58193 33.0717 12.8689 33.4647 17.4263C33.8576 21.9838 32.6043 26.4926 29.4621 29.5475C26.3198 32.6034 24.312 31.9622 23.5726 32.8333C22.8342 33.7034 21.948 33.7854 21.5562 33.7476C21.1643 33.7088 20.2997 33.3871 19.7438 32.3897C19.1889 31.3923 17.2394 31.7129 14.7513 28.1042C12.2653 24.4956 11.7785 19.8162 13.049 15.4218Z" fill="#FCBD41"/>
<path d="M33.466 17.4253C33.3074 15.5891 32.8097 13.9602 32.1729 12.5936C32.1729 12.5936 32.623 14.0908 32.8043 15.7445C33.0181 17.7027 32.541 20.8838 31.8339 22.7113C30.7555 25.4985 29.3404 27.1123 26.8889 28.9203C24.499 30.682 20.5267 30.9195 17.7784 29.9199C16.3416 29.3975 15.2319 28.4076 14.255 27.2526C14.214 27.204 14.1741 27.1554 14.1331 27.1069C14.3241 27.4469 14.5303 27.7794 14.7537 28.1032C17.2419 31.7107 19.1914 31.3912 19.7462 32.3886C20.301 33.386 21.1657 33.7077 21.5586 33.7466C21.9504 33.7854 22.8367 33.7034 23.575 32.8323C24.3134 31.9622 26.3222 32.6024 29.4645 29.5464C32.6057 26.4916 33.86 21.9827 33.466 17.4253Z" fill="#CB9428"/>
<path d="M13.049 15.4218C14.3206 11.0273 17.3981 8.28659 19.0874 7.45973C20.7779 6.63287 21.5982 6.84012 22.2945 6.09854C22.9746 5.37315 23.4938 5.33861 24.312 5.37639V5.37315C24.3217 5.37423 24.3303 5.37639 24.3401 5.37747C24.3498 5.37747 24.3584 5.37855 24.3681 5.37855V5.38178C25.1788 5.50376 25.6807 5.63869 26.2075 6.48282C26.7462 7.34639 27.5914 7.30213 29.0886 8.44203C30.5858 9.58193 33.0717 12.8689 33.4647 17.4263C33.8576 21.9838 32.6043 26.4926 29.4621 29.5475C26.3198 32.6034 24.312 31.9622 23.5726 32.8333C22.8342 33.7034 21.948 33.7854 21.5562 33.7476C21.1643 33.7088 20.2997 33.3871 19.7438 32.3897C19.1889 31.3923 17.2394 31.7129 14.7513 28.1042C12.2653 24.4956 11.7785 19.8162 13.049 15.4218Z" stroke="#FCBD41" stroke-width="0.5" stroke-miterlimit="10" stroke-linecap="round" stroke-linejoin="round"/>
<path d="M0.346191 9.42326C0.346191 8.94291 2.41766 8.55322 4.9738 8.55322C7.52994 8.55322 9.60141 8.94291 9.60141 9.42326H9.623L9.59602 9.4632C9.58522 9.50962 5.48114 15.7283 5.48114 15.7283L5.46495 20.1595L5.46063 21.4699C5.45848 22.1057 5.83305 22.6811 6.41487 22.9369L7.58392 23.4497C7.58392 23.4497 7.29246 23.8912 5.04505 23.8912C2.79331 23.8912 2.66377 23.4389 2.66377 23.4389L3.6763 22.9477C4.22466 22.6822 4.57333 22.1273 4.57548 21.5185L4.5852 19.1621L4.59491 15.7273C4.59599 15.7273 0.346191 9.49882 0.346191 9.42326Z" fill="#FEFDFC"/>
<path d="M1.02841 8.96912C2.2104 9.26704 3.42155 9.42896 4.64457 9.46674C6.09103 9.511 7.5796 9.60168 8.98936 9.21739C9.09731 9.19256 9.20525 9.16558 9.3132 9.13535C9.3186 9.13427 9.32399 9.13211 9.32939 9.12996C9.50426 9.22171 9.60357 9.31994 9.60357 9.42357H9.62516L9.61221 9.443C9.57551 9.46243 9.53988 9.48617 9.50426 9.51532C9.00555 9.91796 8.05024 9.9158 7.43819 9.95034C6.3976 10.0086 5.33326 9.95358 4.29159 9.91903C3.33196 9.88665 2.28705 9.89745 1.3436 9.71934C1.01005 9.65673 0.685139 9.56174 0.363463 9.45595C0.351589 9.43652 0.346191 9.42573 0.346191 9.42357C0.346191 9.25733 0.596624 9.10081 1.02841 8.96912Z" fill="#E3DDDA"/>
<path d="M6.27125 22.8734L7.58494 23.4498C7.58494 23.4498 7.29349 23.8913 5.04607 23.8913C2.79433 23.8913 2.66479 23.439 2.66479 23.439L4.16307 22.7125C4.87227 22.9306 5.59767 23.0072 6.27125 22.8734Z" fill="#E3DDDA"/>
<path d="M0.346191 9.42326C0.346191 8.94291 2.41766 8.55322 4.9738 8.55322C7.52994 8.55322 9.60141 8.94291 9.60141 9.42326H9.623L9.59602 9.4632C9.58522 9.50962 5.48114 15.7283 5.48114 15.7283L5.46495 20.1595L5.46063 21.4699C5.45848 22.1057 5.83305 22.6811 6.41487 22.9369L7.58392 23.4497C7.58392 23.4497 7.29246 23.8912 5.04505 23.8912C2.79331 23.8912 2.66377 23.4389 2.66377 23.4389L3.6763 22.9477C4.22466 22.6822 4.57333 22.1273 4.57548 21.5185L4.5852 19.1621L4.59491 15.7273C4.59599 15.7273 0.346191 9.49882 0.346191 9.42326Z" stroke="#3F4122" stroke-width="0.5" stroke-miterlimit="10" stroke-linecap="round" stroke-linejoin="round"/>
<path d="M4.81735 10.9779C5.83528 10.9866 6.90285 11.0362 7.91862 10.8603L5.01597 15.3573L1.75171 10.6023C2.7556 10.8376 3.78324 10.9682 4.81735 10.9779Z" fill="#EEC63E"/>
<path d="M4.11898 12.7525C4.92641 12.9889 5.73491 13.0655 6.53155 13.0094L5.016 15.3583L2.91431 12.2948C3.30291 12.4751 3.70447 12.6305 4.11898 12.7525Z" fill="#E6A727"/>
<path d="M7.05626 7.60877C7.05626 7.60877 6.99366 7.44038 7.01632 7.36373C7.03899 7.28709 7.20631 7.2709 7.20631 7.2709C7.20631 7.2709 7.20523 7.03666 7.31641 7.00536C7.4276 6.97297 7.50855 7.06365 7.50855 7.06365C7.50855 7.06365 7.4956 6.86827 7.67155 6.87906C7.8475 6.88985 7.87341 6.92656 7.87341 6.92656C7.87341 6.92656 7.93818 6.82725 8.11413 6.88014C8.29008 6.93303 8.24798 7.05177 8.24798 7.05177C8.24798 7.05177 8.38507 6.97297 8.50705 7.04637C8.62903 7.1187 8.60096 7.22988 8.60096 7.22988L11.4183 9.04336C11.4183 9.04336 11.4583 9.42657 11.1862 9.57229L8.43472 7.74694C8.43472 7.74694 8.33434 7.80307 8.22207 7.75773C8.10981 7.7124 8.16054 7.60121 8.16054 7.60121C8.16054 7.60121 8.10549 7.72211 8.00942 7.68757C7.91227 7.65195 7.91335 7.55048 7.91335 7.55048C7.91335 7.55048 7.86801 7.72211 7.77086 7.64547C7.77086 7.64547 7.79893 7.84841 7.65212 7.84085C7.65212 7.84085 7.66831 7.94448 7.63485 7.99737C7.60139 8.05027 7.51611 8.06322 7.51611 8.06322L5.35397 15.6475C5.35397 15.6475 5.06252 15.736 4.87793 15.5978L7.06382 7.9121C7.06382 7.9121 6.95264 7.77177 7.00445 7.68001C7.05518 7.58718 7.05626 7.60877 7.05626 7.60877Z" fill="#FEFDFC"/>
<path d="M8.04171 6.86933C8.0633 6.86933 8.08813 6.87257 8.11403 6.88121C8.28998 6.9341 8.24788 7.05284 8.24788 7.05284C8.24788 7.05284 8.31157 7.01614 8.39145 7.01614C8.42815 7.01614 8.46809 7.02369 8.50695 7.04744C8.62893 7.11977 8.60087 7.23095 8.60087 7.23095L11.4182 9.04443C11.4182 9.04443 11.4582 9.42763 11.1862 9.57336L8.40441 7.7221C8.40441 7.7221 8.37634 7.76744 8.31157 7.76744C8.29214 7.76744 8.27055 7.76312 8.24465 7.7534C8.13238 7.70807 8.15937 7.6012 8.15937 7.6012C8.15937 7.6012 8.11727 7.69403 8.04279 7.69403C8.032 7.69403 8.02012 7.69188 8.00825 7.68756C7.9111 7.65194 7.91218 7.55047 7.91218 7.55047C7.91218 7.55047 7.88195 7.66489 7.81826 7.66489C7.80423 7.66489 7.78804 7.65949 7.77077 7.64546C7.77077 7.64546 7.79775 7.84084 7.66066 7.84084C7.65743 7.84084 7.65527 7.84084 7.65203 7.84084C7.65203 7.84084 7.69629 7.92072 7.63476 7.99736C7.5959 8.04594 7.51602 8.06321 7.51602 8.06321L5.35387 15.6474C5.35387 15.6474 5.26212 15.6755 5.14878 15.6755C5.06026 15.6755 4.95987 15.6582 4.87892 15.5978L7.06373 7.91208C7.06373 7.91208 6.96226 7.81925 6.9968 7.71886C7.01947 7.65409 7.09503 7.61308 7.09503 7.61308C7.09503 7.61308 7.00867 7.52996 7.05509 7.39611C7.08747 7.30111 7.21701 7.29788 7.21701 7.29788C7.21701 7.29788 7.19542 7.11005 7.29257 7.04636C7.33035 7.02046 7.36489 7.01182 7.39512 7.01182C7.46636 7.01182 7.50954 7.06363 7.50954 7.06363C7.50954 7.06363 7.52465 6.892 7.68549 6.892C7.69089 6.892 7.69521 6.892 7.7006 6.892C7.87655 6.9028 7.869 6.9762 7.869 6.9762C7.869 6.9762 7.91865 6.86933 8.04171 6.86933ZM8.04171 6.65344C7.96831 6.65344 7.9057 6.67179 7.85281 6.69986C7.81179 6.68798 7.76537 6.68043 7.71356 6.67611C7.70384 6.67503 7.69413 6.67503 7.68441 6.67503C7.56459 6.67503 7.46852 6.72361 7.40267 6.79485C7.39944 6.79485 7.39728 6.79485 7.39404 6.79485C7.3174 6.79485 7.24292 6.8186 7.17167 6.86609C7.06804 6.93518 7.02487 7.0442 7.00759 7.1392C6.93851 7.17914 6.87914 7.24066 6.84999 7.32594C6.81977 7.41446 6.81869 7.49542 6.8338 7.5645C6.81653 7.58933 6.80142 7.61739 6.79063 7.64978C6.75177 7.76204 6.77659 7.87106 6.82517 7.95634L4.66734 15.5384C4.64252 15.6248 4.67382 15.7165 4.74614 15.7705C4.85301 15.8504 4.98686 15.8903 5.14554 15.8903C5.28695 15.8903 5.40137 15.8569 5.41432 15.8525C5.48449 15.8309 5.53846 15.7759 5.55897 15.7046L7.69197 8.22081C7.72975 8.19922 7.76861 8.17007 7.79991 8.13121C7.83985 8.08156 7.8636 8.02759 7.87439 7.97361C7.88303 7.96606 7.89059 7.95742 7.89814 7.94878C7.91433 7.93043 7.92729 7.911 7.93808 7.89049C7.97155 7.90237 8.00717 7.90777 8.04171 7.90777C8.05466 7.90777 8.06654 7.90669 8.07949 7.90561C8.10324 7.92396 8.1313 7.93907 8.16153 7.95202C8.21118 7.97253 8.26084 7.98225 8.31049 7.98225C8.33964 7.98225 8.36663 7.97901 8.39253 7.97253L11.0653 9.75255C11.1009 9.7763 11.143 9.78925 11.1851 9.78925C11.2196 9.78925 11.2552 9.78061 11.2876 9.76334C11.6028 9.59495 11.6525 9.21822 11.632 9.02176C11.6255 8.95699 11.5888 8.89762 11.5337 8.862L8.80812 7.10789C8.78653 7.02261 8.73148 6.92978 8.61814 6.86178C8.55013 6.82076 8.47349 6.80025 8.39145 6.80025C8.38929 6.80025 8.38606 6.80025 8.3839 6.80025C8.3418 6.75275 8.27703 6.70418 8.17664 6.67395C8.1313 6.65992 8.08597 6.65344 8.04171 6.65344Z" fill="#3F4122"/>
<path d="M3.67541 18.2045C3.37748 18.5813 3.20477 19.08 3.48003 19.61C3.75637 20.14 4.62965 20.222 5.35828 19.8604C6.08691 19.4988 6.29956 19.2063 6.20349 18.7756C6.10742 18.3449 5.7091 18.1042 5.44032 18.0556C5.17045 18.0059 3.67541 18.2045 3.67541 18.2045Z" fill="white"/>
<path d="M4.26882 19.1752C3.95902 19.2551 3.6503 19.2497 3.34913 19.1914C3.30703 18.8211 3.45708 18.48 3.67513 18.2047C3.67513 18.2047 5.17017 18.0072 5.43895 18.0558C5.47025 18.0612 5.50264 18.0698 5.53718 18.0806C5.30294 18.6301 4.87008 19.0208 4.26882 19.1752Z" fill="#E3DDDA"/>
<path d="M3.67541 18.2045C3.37748 18.5813 3.20477 19.08 3.48003 19.61C3.75637 20.14 4.62965 20.222 5.35828 19.8604C6.08691 19.4988 6.29956 19.2063 6.20349 18.7756C6.10742 18.3449 5.7091 18.1042 5.44032 18.0556C5.17045 18.0059 3.67541 18.2045 3.67541 18.2045Z" stroke="#3F4122" stroke-width="0.5" stroke-miterlimit="10" stroke-linecap="round" stroke-linejoin="round"/>
<path d="M3.23791 16.1221C3.05548 16.1631 2.66364 16.6499 2.56325 17.154C2.46179 17.6581 2.56649 17.955 3.03174 18.2378C3.4959 18.5206 4.37134 18.58 4.93805 18.3349C5.50476 18.0899 5.63861 17.6905 5.52095 17.2814C5.40329 16.8723 4.98123 16.6888 4.51059 16.5269C4.03779 16.3639 3.23791 16.1221 3.23791 16.1221Z" fill="white"/>
<path d="M4.51069 17.0562C4.12856 17.1415 3.72485 17.1134 3.35999 16.9687C3.1441 16.8835 2.94764 16.7647 2.76953 16.6233C2.92497 16.3513 3.12251 16.1494 3.23801 16.1235C3.23801 16.1235 4.03789 16.3653 4.50961 16.5273C4.7309 16.6039 4.94031 16.6859 5.1141 16.7928C4.95866 16.9407 4.67476 17.0195 4.51069 17.0562Z" fill="#E3DDDA"/>
<path d="M3.23791 16.1221C3.05548 16.1631 2.66364 16.6499 2.56325 17.154C2.46179 17.6581 2.56649 17.955 3.03174 18.2378C3.4959 18.5206 4.37134 18.58 4.93805 18.3349C5.50476 18.0899 5.63861 17.6905 5.52095 17.2814C5.40329 16.8723 4.98123 16.6888 4.51059 16.5269C4.03779 16.3639 3.23791 16.1221 3.23791 16.1221Z" stroke="#3F4122" stroke-width="0.5" stroke-miterlimit="10" stroke-linecap="round" stroke-linejoin="round"/>
<path d="M3.18728 13.806L3.69786 14.4354C3.69786 14.4354 4.41138 14.7139 4.95435 15.1348C5.49623 15.5547 5.62145 16.2218 5.30085 16.5824C4.97917 16.9418 4.02926 16.8987 3.3913 16.4993C2.75334 16.0999 2.31401 15.7318 2.38525 15.2471C2.52234 14.3026 3.18728 13.806 3.18728 13.806Z" fill="white"/>
<path d="M3.18728 13.806L3.69786 14.4354C3.69786 14.4354 4.41138 14.7139 4.95435 15.1348C5.49623 15.5547 5.62145 16.2218 5.30085 16.5824C4.97917 16.9418 4.02926 16.8987 3.3913 16.4993C2.75334 16.0999 2.31401 15.7318 2.38525 15.2471C2.52234 14.3026 3.18728 13.806 3.18728 13.806Z" stroke="#3F4122" stroke-width="0.5" stroke-miterlimit="10" stroke-linecap="round" stroke-linejoin="round"/>
<path d="M8.58052 14.3066C7.2787 13.727 5.34324 13.157 5.23746 14.0702C5.13059 14.9834 6.75301 16.1849 7.45249 16.1687C7.45249 16.1687 6.54899 17.4705 6.9268 19.0022C6.9268 19.0022 8.31282 19.298 9.17962 18.5327C10.0464 17.7674 10.3562 17.1877 10.0907 16.2011C9.82513 15.2145 9.20444 14.584 8.58052 14.3066Z" fill="white"/>
<path d="M8.36909 19.0638C9.69789 18.6579 10.2387 17.2104 10.0919 16.2011C9.95264 15.2425 9.20566 14.5851 8.58174 14.3066C7.27992 13.727 5.34446 13.157 5.23868 14.0702C5.13181 14.9834 6.75423 16.1849 7.45371 16.1687C7.45371 16.1687 6.46062 16.8282 6.83842 18.3611" stroke="#3F4122" stroke-width="0.5" stroke-miterlimit="10" stroke-linecap="round" stroke-linejoin="round"/>
<path d="M8.29682 15.7455C8.29682 15.7455 7.33287 16.0434 7.05005 16.6134" stroke="#3F4122" stroke-width="0.5" stroke-miterlimit="10" stroke-linecap="round" stroke-linejoin="round"/>
<path d="M22.9964 6.26152C22.9661 6.53139 23.4929 6.81312 24.174 6.89084C24.8552 6.96856 25.4327 6.81312 25.4629 6.54326C25.4931 6.2734 24.9664 5.99166 24.2852 5.91394C23.6041 5.83622 23.0266 5.99166 22.9964 6.26152Z" fill="#875100"/>
<path d="M24.7095 6.40193C24.9708 5.63228 25.3399 3.70006 26.0254 2.3842C26.3535 1.7538 26.8911 1.1763 26.9267 0.672194C26.9623 0.16701 26.0794 -0.210798 25.5753 0.131388C25.0701 0.473574 24.566 2.31296 24.3673 3.88033C24.1687 5.44877 23.9528 6.24217 23.9528 6.24217C23.9528 6.24217 23.9291 6.47641 24.2292 6.49476C24.5293 6.51311 24.7095 6.40193 24.7095 6.40193Z" fill="#3F4122"/>
<path d="M24.9903 2.78274C24.9331 2.72877 22.3435 0.336702 20.3055 1.04806C18.2448 1.76698 15.666 4.93301 15.666 4.93301C15.666 4.93301 16.2176 4.92869 18.4488 5.36155C19.9137 5.64545 21.5793 5.81816 22.8077 5.028C24.049 4.23029 24.9914 2.78274 24.9914 2.78274C24.9914 2.78274 24.9914 2.78274 24.9903 2.78274Z" fill="#517E31"/>
<path d="M24.9902 2.78254C24.8887 2.77714 18.5663 2.19748 16.0134 4.76657C16.0134 4.76657 18.3073 1.74627 20.3679 1.02735C22.4059 0.315994 24.9329 2.72857 24.9902 2.78254Z" fill="#69A13D"/>
<path d="M24.9903 2.78274C24.9331 2.72877 22.3435 0.336702 20.3055 1.04806C18.2448 1.76698 15.666 4.93301 15.666 4.93301C15.666 4.93301 16.2176 4.92869 18.4488 5.36155C19.9137 5.64545 21.5793 5.81816 22.8077 5.028C24.049 4.23029 24.9914 2.78274 24.9914 2.78274C24.9914 2.78274 24.9914 2.78274 24.9903 2.78274Z" stroke="#3F4122" stroke-width="0.5" stroke-miterlimit="10" stroke-linecap="round" stroke-linejoin="round"/>
<path d="M22.2088 16.6534C22.3132 14.1994 21.2776 12.1624 19.8957 12.1037C18.5139 12.0449 17.309 13.9866 17.2046 16.4406C17.1002 18.8946 18.1358 20.9316 19.5177 20.9903C20.8996 21.0491 22.1044 19.1074 22.2088 16.6534Z" fill="white" stroke="#3F4122" stroke-width="0.5" stroke-miterlimit="10" stroke-linecap="round" stroke-linejoin="round"/>
<path d="M18.8446 16.2053C18.7853 17.6107 19.4729 18.782 20.3818 18.8208C21.2907 18.8597 22.0765 17.7511 22.1359 16.3456C22.1953 14.9402 21.5076 13.769 20.5987 13.7301C19.6898 13.6913 18.9051 14.7999 18.8446 16.2053Z" fill="#3F4122"/>
<path d="M19.8023 15.7747C20.0247 16.0596 19.893 16.8649 19.8185 17.056C19.7311 17.2827 19.553 17.4392 19.3857 17.1931C19.2087 16.9308 19.1784 16.5594 19.2216 16.2561C19.2432 16.1039 19.3371 15.7207 19.5249 15.6829C19.6512 15.657 19.7408 15.6959 19.8023 15.7747Z" fill="white"/>
<path d="M17.4697 14.734C17.9155 13.1472 18.8547 12.058 19.8942 12.1023C21.0308 12.1508 21.9311 13.5379 22.1578 15.3935C20.6206 14.9423 19.0285 14.707 17.4697 14.734Z" fill="white" stroke="#3F4122" stroke-width="0.5" stroke-miterlimit="10" stroke-linecap="round" stroke-linejoin="round"/>
<path d="M24.1437 16.1513C24.1437 16.1513 22.0916 15.2834 20.9075 15.0773" stroke="#3F4122" stroke-width="0.5" stroke-miterlimit="10" stroke-linecap="round" stroke-linejoin="round"/>
<path d="M27.1282 16.8621C27.2326 14.4081 26.197 12.3711 24.8152 12.3123C23.4333 12.2535 22.2285 14.1952 22.1241 16.6492C22.0197 19.1032 23.0553 21.1402 24.4371 21.199C25.819 21.2577 27.0238 19.316 27.1282 16.8621Z" fill="white" stroke="#3F4122" stroke-width="0.5" stroke-miterlimit="10" stroke-linecap="round" stroke-linejoin="round"/>
<path d="M27.1412 16.5579C27.201 15.1522 26.5387 13.9824 25.662 13.9451C24.7852 13.9078 24.026 15.0171 23.9662 16.4228C23.9064 17.8285 24.5687 18.9983 25.4454 19.0355C26.3222 19.0728 27.0814 17.9635 27.1412 16.5579Z" fill="#3F4122"/>
<path d="M24.8207 15.9884C25.0345 16.2723 24.906 17.0786 24.8348 17.2697C24.7506 17.4964 24.5779 17.6529 24.417 17.4068C24.2465 17.1445 24.2184 16.7742 24.2605 16.4698C24.2821 16.3176 24.3728 15.9344 24.5541 15.8955C24.675 15.8696 24.7614 15.9085 24.8207 15.9884Z" fill="white"/>
<path d="M22.3896 14.9434C22.8355 13.3566 23.7746 12.2675 24.8141 12.3117C25.9508 12.3603 26.851 13.7474 27.0777 15.603C25.5406 15.1507 23.9484 14.9164 22.3896 14.9434Z" fill="white" stroke="#3F4122" stroke-width="0.5" stroke-miterlimit="10" stroke-linecap="round" stroke-linejoin="round"/>
<path d="M29.0631 16.3608C29.0631 16.3608 27.0111 15.4929 25.8269 15.2867" stroke="#3F4122" stroke-width="0.5" stroke-miterlimit="10" stroke-linecap="round" stroke-linejoin="round"/>
<path d="M24.025 10.3151C23.9009 10.4791 23.6472 10.708 23.834 10.953C24.0196 11.1981 24.0855 11.4409 24.8271 11.4129C25.5687 11.3848 26.3567 10.9919 26.9212 10.9897C27.4858 10.9876 27.7362 11.1538 27.8841 11.2456C28.032 11.3373 27.9262 10.9897 27.6466 10.6907C27.367 10.3917 25.6118 10.423 25.6118 10.423L24.025 10.3151Z" fill="#81973E"/>
<path d="M28.088 11.0977C27.9034 10.545 27.6584 9.93725 26.4624 9.92645C25.0364 9.9135 24.5777 10.1769 23.8156 9.79368C23.5587 9.66414 23.5317 9.8606 23.5932 10.2168C23.6515 10.5558 23.7799 11.3502 24.5053 11.2412C25.2307 11.1322 26.6319 10.7501 27.1295 10.7933C27.5775 10.8321 27.8074 11.1754 27.924 11.2866C28.0395 11.3977 28.1625 11.3211 28.088 11.0977Z" fill="#3F4122"/>
<path d="M21.9686 10.0523C22.0657 10.2336 22.2794 10.4992 22.0571 10.7118C21.8347 10.9245 21.7322 11.1544 21.0035 11.0097C20.2749 10.8651 19.5592 10.3534 19.0022 10.2628C18.4452 10.1721 18.171 10.2962 18.0113 10.3642C17.8515 10.4311 18.0102 10.1052 18.333 9.85364C18.6557 9.60213 20.3839 9.90977 20.3839 9.90977L21.9686 10.0523Z" fill="#81973E"/>
<path d="M17.8334 10.1853C18.1032 9.66825 18.44 9.10693 19.6231 9.28504C21.0329 9.49661 21.4452 9.82908 22.258 9.57002C22.5322 9.48258 22.5279 9.6812 22.4113 10.0223C22.3001 10.3483 22.0486 11.1115 21.3502 10.8902C20.6518 10.6678 19.3273 10.0709 18.8297 10.0342C18.3807 10.0018 18.1 10.304 17.9672 10.3969C17.8334 10.4897 17.7244 10.3947 17.8334 10.1853Z" fill="#3F4122"/>
<path d="M27.0184 21.7635C25.0656 23.2543 22.1187 23.2305 19.8605 22.5904C19.1287 22.3832 18.4184 22.0928 17.761 21.7085" stroke="#3F5022" stroke-width="0.5" stroke-miterlimit="10" stroke-linecap="round" stroke-linejoin="round"/>
<path d="M25.3421 22.676C25.3421 22.676 24.5508 25.5344 21.9774 26.0266C19.785 26.4465 18.697 23.9357 18.6106 22.2053C18.6106 22.2053 19.8725 22.7871 22.1706 23.0311C24.8466 23.0279 25.3421 22.676 25.3421 22.676Z" fill="#3F4122"/>
<path d="M19.5386 22.7565C19.5429 22.9983 19.5289 23.2854 19.9509 23.4732C20.3665 23.6589 21.6413 23.7981 22.5092 23.7398C23.349 23.6826 23.4818 23.4721 23.5347 23.2109C23.5347 23.2109 22.7392 23.3351 21.5647 23.2163C20.047 23.062 19.5386 22.7565 19.5386 22.7565Z" fill="white"/>
<path d="M21.4226 24.7613C20.8332 24.7116 20.3658 24.3576 19.9858 24.8628C19.9847 24.8638 19.9836 24.8638 19.9836 24.8649C20.4025 25.4716 21.0145 25.8731 21.8522 25.6918C22.2062 25.6151 22.5106 25.4651 22.7751 25.274C22.461 24.6933 21.9288 24.8034 21.4226 24.7613Z" fill="#CC3A44"/>
<path d="M0.346191 9.42346C0.346191 9.69872 2.41766 9.92217 4.9738 9.92217C7.52995 9.92217 9.60141 9.69872 9.60141 9.42346" stroke="#3F4122" stroke-width="0.5" stroke-miterlimit="10" stroke-linecap="round" stroke-linejoin="round"/>
<path d="M32.6865 10.3151C32.6865 10.3151 34.2636 12.1965 34.4266 15.0776" stroke="#3F4122" stroke-width="0.5" stroke-miterlimit="10" stroke-linecap="round" stroke-linejoin="round"/>
</svg>
