<svg width="26" height="27" viewBox="0 0 26 27" fill="none" xmlns="http://www.w3.org/2000/svg">
<rect x="0.25" y="0.25" width="25.5" height="26.5" rx="1.75" fill="#FFF0C3" stroke="#FFC20E" stroke-width="0.5"/>
<path d="M14.6821 7.14787L8.20382 13.643C7.80361 14.049 8.02873 14.7979 8.5665 14.8538L13.6253 15.3998L10.5925 20.1311C10.455 20.3481 10.4737 20.6491 10.6426 20.838C10.8301 21.048 11.124 21.055 11.3179 20.852L17.7962 14.3569C18.1964 13.951 17.9713 13.2021 17.4335 13.1461L12.3747 12.6001L15.4075 7.86878C15.545 7.65181 15.5263 7.35085 15.3574 7.16187C15.269 7.06082 15.1487 7.00271 15.0223 7.00009C14.896 6.99747 14.7738 7.05055 14.6821 7.14787Z" fill="#FFC20E"/>
</svg>
