<svg width="54" height="75" viewBox="0 0 54 75" fill="none" xmlns="http://www.w3.org/2000/svg">
<path d="M26.5508 51.8518C18.8625 51.8518 12.6299 50.6082 12.6299 49.074C12.6299 47.5399 18.8625 46.2963 26.5508 46.2963C34.2391 46.2963 40.4717 47.5399 40.4717 49.074C40.4717 50.6082 34.2391 51.8518 26.5508 51.8518Z" fill="#D8D8D8"/>
<path d="M20.2975 35.6802C21.9663 35.6802 23.5863 35.3541 25.1119 34.7115C26.5839 34.0916 27.9078 33.2023 29.0431 32.0713C30.1784 30.9402 31.0697 29.6225 31.6926 28.154C32.3384 26.6351 32.6653 25.0205 32.6653 23.3571C32.6653 21.6938 32.3384 20.0792 31.6926 18.5603C31.0697 17.0934 30.1784 15.7757 29.0431 14.643C27.9078 13.512 26.5855 12.6227 25.1119 12.0028C23.5879 11.3602 21.9679 11.0341 20.2975 11.0341C18.6271 11.0341 17.0088 11.3602 15.4831 12.0028C14.0112 12.6227 12.6872 13.512 11.5519 14.643C10.4167 15.7741 9.49769 17.0658 8.87475 18.5327C8.22904 20.0516 7.92977 21.6922 7.92977 23.3555C7.92977 25.0188 8.25669 26.6335 8.9024 28.1523C9.52534 29.6193 10.4167 30.937 11.5519 32.0696C12.6872 33.2007 14.0096 34.09 15.4831 34.7098C17.0088 35.3541 18.6288 35.6802 20.2975 35.6802Z" fill="#172752"/>
<path d="M9.77407 18.7746C10.3661 17.3791 11.2119 16.1263 12.2902 15.0488C13.3686 13.973 14.6242 13.1275 16.0214 12.5368C17.469 11.9251 19.006 11.6151 20.5918 11.6151C21.4229 11.6151 22.2394 11.7011 23.038 11.8699C22.4557 12.0192 21.8848 12.222 21.3286 12.4768C20.0404 13.0675 18.8824 13.9129 17.8886 14.9888C16.8948 16.0647 16.1141 17.319 15.5692 18.7146C15.0048 20.1605 14.7186 21.694 14.7186 23.2761C14.7186 24.8583 15.0048 26.3934 15.5692 27.8376C16.1141 29.2332 16.8948 30.486 17.8886 31.5635C18.8824 32.6393 20.0388 33.4848 21.3286 34.0755C21.9662 34.3676 22.6233 34.5915 23.2966 34.744C22.4167 34.9517 21.5124 35.0556 20.5918 35.0556C19.0076 35.0556 17.469 34.7457 16.0214 34.1339C14.6226 33.5432 13.3686 32.6978 12.2902 31.6219C11.2119 30.546 10.3661 29.2916 9.77407 27.8961C9.16252 26.4502 8.85186 24.9167 8.85186 23.3345C8.85186 21.7524 9.16089 20.2205 9.77407 18.7746Z" fill="url(#paint0_linear_413_3312)"/>
<path d="M9.65213 18.7309C10.2442 17.3354 11.2119 16.1264 12.2903 15.0505C13.3686 13.9747 14.6243 13.1292 16.0214 12.5385C17.469 11.9268 19.006 11.6168 20.5918 11.6168C21.0456 11.6168 21.4945 11.6428 21.9402 11.6931C20.8309 11.8197 19.7526 12.102 18.7198 12.5385C17.321 13.1292 16.067 13.9747 14.9886 15.0505C13.9103 16.1264 13.0645 17.3808 12.4724 18.7764C11.8609 20.2222 11.5502 21.7557 11.5502 23.3379C11.5502 24.92 11.8609 26.4552 12.4724 27.8994C13.0645 29.295 13.9103 30.5477 14.9886 31.6252C16.067 32.7011 17.3226 33.5465 18.7198 34.1372C19.7526 34.5737 20.8309 34.8561 21.9402 34.9827C21.4945 35.033 21.0456 35.0589 20.5918 35.0589C19.0076 35.0589 17.469 34.749 16.0214 34.1372C14.6227 33.5465 13.3686 32.7011 12.2903 31.6252C11.2119 30.5493 10.3662 29.295 9.77411 27.8994C9.16256 26.4535 8.8519 24.92 8.8519 23.3379C8.8519 21.7557 9.03894 20.1752 9.65213 18.7309Z" fill="url(#paint1_linear_413_3312)"/>
<path d="M21.3792 34.3657C22.7975 34.3657 24.1735 34.0769 25.4698 33.5073C26.7205 32.9572 27.8444 32.1702 28.8089 31.1689C29.7734 30.1661 30.5314 28.9993 31.06 27.6995C31.6081 26.3543 31.8862 24.9246 31.8862 23.4512C31.8862 21.9777 31.6081 20.5481 31.06 19.2028C30.5314 17.903 29.7734 16.7363 28.8089 15.7334C27.8444 14.7306 26.7205 13.9435 25.4698 13.3951C24.1751 12.8255 22.7991 12.5366 21.3792 12.5366C19.9593 12.5366 18.5849 12.8255 17.2886 13.3951C16.0378 13.9452 14.9139 14.7322 13.9494 15.7334C12.9849 16.7363 12.2042 17.8787 11.674 19.1785C11.1258 20.5237 10.8721 21.9777 10.8721 23.4512C10.8721 24.9246 11.1502 26.3543 11.6984 27.6995C12.227 28.9993 12.9849 30.1661 13.9494 31.1689C14.9139 32.1718 16.0378 32.9588 17.2886 33.5073C18.5849 34.0769 19.9609 34.3657 21.3792 34.3657Z" fill="#596482"/>
<path d="M31.5901 28.2837L31.5917 28.2805C31.8861 27.5762 32.0959 26.8005 32.1724 26.5084C32.3285 25.8999 32.4391 25.2946 32.4977 24.7137C32.6196 23.5177 32.5546 22.2958 32.3074 21.0836C32.0601 19.8698 31.6486 18.7144 31.0859 17.645C30.5345 16.5951 29.8286 15.6393 28.9877 14.8036C28.1663 13.9857 27.223 13.2831 26.1853 12.7151C25.1525 12.1504 24.0513 11.7334 22.9112 11.477C21.7564 11.2157 20.5837 11.1281 19.4224 11.2141C18.2757 11.2985 17.1274 11.5597 16.0084 11.9865C14.917 12.4036 13.8875 12.9683 12.949 13.6644C11.9585 14.3995 11.1143 15.219 10.441 16.1002C10.3889 16.1683 10.3352 16.2365 10.2816 16.303C10.1579 16.4588 10.0295 16.6211 9.92211 16.7882C9.90259 16.819 9.87169 16.8353 9.8359 16.8336C9.80012 16.832 9.76434 16.8109 9.74807 16.7801C9.73181 16.7509 9.73506 16.7168 9.75295 16.6876C9.80988 16.5983 9.86518 16.5075 9.91723 16.4182C10.0148 16.2559 10.1157 16.0888 10.2295 15.9298C10.4019 15.6929 10.5873 15.4576 10.7776 15.2304C11.233 14.6916 11.6315 14.2762 12.0349 13.9257C12.9604 13.1208 13.9769 12.4587 15.0553 11.9573C16.1678 11.4397 17.3242 11.0859 18.492 10.909C19.6924 10.7256 20.9155 10.724 22.1288 10.9042C23.3145 11.081 24.484 11.4332 25.6046 11.9492C26.7009 12.4555 27.7207 13.1127 28.638 13.903C29.5684 14.7062 30.3653 15.6312 31.0045 16.6568C31.6649 17.7148 32.161 18.8751 32.4765 20.1083C32.7823 21.3027 32.9124 22.5522 32.862 23.826C32.8197 24.9068 32.6375 25.9437 32.3204 26.9157C32.2586 27.1056 31.9365 28.003 31.7218 28.3502C31.7153 28.36 31.7007 28.373 31.6763 28.3746C31.6747 28.3746 31.673 28.3746 31.6714 28.3746C31.6503 28.3746 31.6161 28.3665 31.5998 28.3486C31.5803 28.3275 31.5852 28.3016 31.5885 28.2902L31.5901 28.2837Z" fill="#202F58"/>
<path d="M7.74117 22.7131C7.79321 21.4181 8.05996 20.1638 8.53326 18.9873C8.66176 18.6692 8.80326 18.395 8.95452 18.171C8.98868 18.1207 9.04235 18.1142 9.07651 18.1353C9.11066 18.1548 9.13181 18.2035 9.10578 18.2587C8.99681 18.4794 8.91223 18.7195 8.82928 18.9532C8.80651 19.0181 8.78374 19.0814 8.76097 19.1447C8.65525 19.4368 8.56254 19.7305 8.4861 20.021C8.34459 20.5565 8.24538 21.1358 8.17219 21.8482C8.0502 23.0393 8.10062 24.2758 8.32508 25.5221C8.54302 26.7342 8.91061 27.8815 9.41482 28.9347C9.91903 29.9846 10.5615 30.9242 11.3243 31.7258C12.1782 32.6248 13.1801 33.3923 14.3024 34.0074C15.4051 34.6126 16.5925 35.0492 17.8286 35.3056C19.0696 35.5619 20.3252 35.6236 21.5646 35.4873C22.7926 35.3526 23.9962 35.0329 25.1413 34.5364C26.2863 34.0398 27.324 33.4021 28.2234 32.6443C28.9765 32.0098 29.6531 31.2909 30.237 30.5055C30.2988 30.4227 31.1056 29.2771 31.1267 29.2446C31.1446 29.2203 31.1739 29.2089 31.1999 29.217C31.2259 29.2251 31.2324 29.2446 31.2324 29.2755V29.2803L31.2292 29.2917C31.195 29.4085 30.873 30.0008 30.4322 30.6434C29.9459 31.3526 29.2839 32.0617 29.092 32.2548C28.2104 33.1327 27.2134 33.8792 26.1302 34.4715C24.9884 35.0962 23.7848 35.5311 22.5503 35.7632C21.794 35.906 21.0295 35.9774 20.2651 35.9774C19.7365 35.9774 19.2062 35.9433 18.6792 35.8735C17.3927 35.7048 16.1371 35.3461 14.9465 34.8041C13.7543 34.2621 12.6613 33.5465 11.6968 32.6783C10.7811 31.8524 10.0215 30.9128 9.44084 29.884C8.85693 28.8487 8.40965 27.7046 8.11526 26.4827C7.81761 25.2365 7.69075 23.9675 7.74117 22.7131Z" fill="#202F58"/>
<path d="M17.3763 13.379C19.289 12.1311 22.1923 12.2658 23.1568 12.4135C24.1766 12.5692 25.1297 12.8094 26.0942 13.2654C27.0359 13.7133 27.9142 14.2942 28.7031 14.9936C29.0251 15.2792 29.3276 15.5843 29.6123 15.9056C29.6822 16.1669 29.7408 16.4314 29.7896 16.6975C29.5456 16.3794 29.2837 16.0776 29.0023 15.7904C28.2964 15.0666 27.4848 14.4451 26.5919 13.9437C25.7038 13.4439 24.7507 13.1421 23.7699 12.9133C22.7778 12.6828 21.7125 12.6617 20.7138 12.7234C19.7997 12.7786 18.6417 12.9473 17.3941 13.4471C17.3193 13.478 17.3096 13.4228 17.3763 13.379Z" fill="#3C4747"/>
<path d="M17.4951 33.5205C17.6497 33.5724 17.8855 33.6487 18.1539 33.7201C18.6158 33.8434 19.1672 33.9457 19.5868 34.0041C20.6668 34.155 21.5581 34.2118 22.6218 34.0917C23.6774 33.9733 24.7135 33.6893 25.6975 33.2495C26.6815 32.8098 27.5744 32.2467 28.3487 31.5749C28.8057 31.1789 29.2286 30.744 29.6157 30.2799C29.6352 30.3205 29.6531 30.3594 29.6726 30.4C29.5832 30.5558 29.4969 30.7132 29.4189 30.8755C29.2757 31.041 29.1586 31.1675 29.0968 31.2308C28.3389 32.0081 27.4817 32.6686 26.5498 33.1927C25.5674 33.7445 24.5329 34.129 23.4725 34.3368C22.8219 34.4633 22.1648 34.5266 21.5077 34.5266C21.0523 34.5266 20.5985 34.4828 20.1447 34.4357C19.1574 34.3335 18.0774 34.0398 17.4431 33.5708C17.3943 33.5367 17.3683 33.48 17.4951 33.5205Z" fill="#3C4747"/>
<path d="M10.7338 22.7892C10.7793 21.6436 11.0086 20.5336 11.4152 19.4918C11.5258 19.2094 11.6478 18.9677 11.778 18.7697C11.8072 18.7259 11.8707 18.6204 11.8999 18.6382C11.9292 18.6561 11.8853 18.7697 11.8625 18.8184C11.7698 19.0131 11.6137 19.5145 11.5942 19.5713C11.5031 19.8293 11.4413 20.1506 11.3762 20.407C11.2559 20.8809 11.1696 21.3937 11.1062 22.0233C11.0005 23.0764 11.0444 24.1718 11.238 25.2753C11.425 26.3479 11.7812 27.5081 12.1748 28.4574C12.6237 29.5431 13.2857 30.3398 13.245 30.3934C13.2093 30.4404 12.4692 29.6258 12.1992 29.1358C11.6966 28.2205 11.3128 27.2079 11.059 26.1272C10.7988 25.0221 10.6898 23.8992 10.7338 22.7892Z" fill="#354368"/>
<path d="M23.0166 13.4419C22.2456 12.2379 21.1933 11.1815 19.8189 10.6963C18.8528 10.3555 17.8021 10.3003 16.8018 10.521C14.6988 10.9851 12.9633 12.715 13.017 14.9397C13.0349 15.6683 13.2496 16.3921 13.5098 17.0022C14.1864 18.5893 14.7541 20.3094 14.5784 22.0571C14.4255 23.576 13.7392 25.0348 12.4266 25.8819C11.1352 26.716 9.48916 26.8312 8.079 26.2356C6.77944 25.6871 5.72223 24.6616 5.57097 23.2238C5.4376 21.9548 5.95156 20.608 7.13076 20.0075C7.45605 19.842 7.74394 20.3305 7.41702 20.4976C6.34354 21.0445 5.95319 22.3151 6.17276 23.4478C6.42975 24.7687 7.7537 25.6498 8.99796 25.9435C10.5838 26.3168 12.3306 25.6709 13.2333 24.3062C14.1767 22.883 14.1848 21.0867 13.7814 19.4834C13.5651 18.6217 13.2349 17.8006 12.8885 16.986C12.786 16.7458 12.7015 16.4992 12.6348 16.246C12.4233 15.4363 12.381 14.5746 12.5616 13.7551C13.0121 11.7251 14.907 10.2792 16.8978 9.92546C17.9989 9.72911 19.1456 9.81512 20.1865 10.2305C21.6064 10.7985 22.6929 11.8857 23.5062 13.1563C23.7046 13.463 23.2134 13.7486 23.0166 13.4419Z" fill="#DDC02C"/>
<path d="M26.3004 37.155C28.1855 37.155 30.0137 36.7899 31.7345 36.071C33.3968 35.3765 34.8899 34.3818 36.1715 33.1144C37.4532 31.8471 38.46 30.372 39.1626 28.7281C39.8913 27.0259 40.2605 25.2198 40.2605 23.3569C40.2605 21.494 39.8913 19.6862 39.1626 17.9856C38.46 16.3418 37.4532 14.8667 36.1715 13.5993C34.8899 12.332 33.3968 11.3372 31.7345 10.6427C30.0137 9.92383 28.1855 9.55872 26.3004 9.55872C24.4153 9.55872 22.5872 9.92383 20.8664 10.6427C19.2041 11.3372 17.711 12.332 16.4293 13.5993C15.1476 14.8667 14.1099 16.3126 13.4057 17.9564C12.677 19.6587 12.3403 21.4956 12.3403 23.3585C12.3403 25.2214 12.7096 27.0291 13.4382 28.7298C14.1409 30.3736 15.1476 31.8487 16.4293 33.116C17.711 34.3834 19.2041 35.3781 20.8664 36.0727C22.5888 36.7915 24.417 37.155 26.3004 37.155Z" fill="url(#paint2_linear_413_3312)"/>
<path d="M14.4207 18.2226C15.0876 16.6599 16.0439 15.2563 17.2605 14.0506C18.4771 12.8449 19.8954 11.8988 21.4731 11.2384C23.1077 10.5536 24.8432 10.2063 26.6323 10.2063C27.5708 10.2063 28.493 10.302 29.3941 10.4919C28.737 10.659 28.0913 10.8862 27.4634 11.1718C26.0094 11.8323 24.7017 12.78 23.581 13.984C22.4588 15.1897 21.5788 16.5934 20.964 18.1561C20.3265 19.774 20.0044 21.4941 20.0044 23.2645C20.0044 25.0365 20.3281 26.755 20.964 28.3729C21.5788 29.9356 22.4604 31.3392 23.581 32.5449C24.7033 33.7506 26.0094 34.6967 27.4634 35.3572C28.184 35.6849 28.9257 35.9348 29.6836 36.1069C28.6898 36.3389 27.67 36.4557 26.6307 36.4557C24.8416 36.4557 23.1061 36.1085 21.4715 35.4237C19.8938 34.7632 18.4755 33.8156 17.2589 32.6115C16.0423 31.4058 15.0859 30.0021 14.4191 28.4394C13.7278 26.8215 13.3781 25.1014 13.3781 23.331C13.3781 21.5606 13.7294 19.8421 14.4207 18.2226Z" fill="url(#paint3_linear_413_3312)"/>
<path d="M14.2825 18.1723C14.9494 16.6096 16.0424 15.2563 17.2606 14.0506C18.4789 12.8449 19.8955 11.8988 21.4732 11.2384C23.1078 10.5536 24.8433 10.2063 26.6324 10.2063C27.1447 10.2063 27.6522 10.2355 28.1548 10.2923C26.9024 10.4335 25.6858 10.7499 24.5196 11.2384C22.9419 11.8988 21.5236 12.8465 20.307 14.0506C19.0904 15.2563 18.134 16.6599 17.4672 18.2226C16.7759 19.8405 16.4262 21.5606 16.4262 23.331C16.4262 25.1014 16.7759 26.8215 17.4672 28.4394C18.134 30.0021 19.0904 31.4058 20.307 32.6115C21.5236 33.8172 22.9419 34.7632 24.5196 35.4237C25.6858 35.9121 26.9024 36.2286 28.1548 36.3697C27.6522 36.4265 27.1447 36.4557 26.6324 36.4557C24.8433 36.4557 23.1078 36.1085 21.4732 35.4237C19.8955 34.7632 18.4772 33.8156 17.2606 32.6115C16.044 31.4058 15.0876 30.0021 14.4208 28.4394C13.7295 26.8215 13.3798 25.1014 13.3798 23.331C13.3798 21.5606 13.5913 19.7918 14.2825 18.1723Z" fill="url(#paint4_linear_413_3312)"/>
<path d="M39.0473 28.8727L39.0489 28.8679C39.3807 28.0792 39.6182 27.2111 39.7028 26.8833C39.88 26.2001 40.0037 25.525 40.0703 24.8743C40.207 23.5339 40.1354 22.1676 39.8557 20.8093C39.5759 19.4511 39.1123 18.1545 38.478 16.9586C37.8551 15.7837 37.0581 14.7127 36.1099 13.7764C35.1828 12.8612 34.1174 12.0741 32.9447 11.438C31.7802 10.8068 30.5359 10.3394 29.2477 10.0506C27.9449 9.75848 26.6194 9.65949 25.3084 9.75686C24.0154 9.8526 22.7191 10.1431 21.4553 10.6218C20.224 11.0891 19.0611 11.7204 18.0006 12.5009C16.8832 13.3236 15.9301 14.2405 15.1689 15.2287C15.1104 15.305 15.0486 15.3813 14.99 15.4559C14.8501 15.6312 14.7054 15.8113 14.585 15.9995C14.5639 16.0336 14.5281 16.0515 14.4874 16.0498C14.4468 16.0482 14.4077 16.0239 14.3882 15.9898C14.3703 15.9573 14.3736 15.9184 14.3947 15.8859C14.4582 15.787 14.5216 15.6831 14.5801 15.5841C14.6907 15.4024 14.803 15.2141 14.9331 15.0373C15.1283 14.7711 15.3365 14.5082 15.5512 14.2551C16.0651 13.6514 16.5157 13.1873 16.9711 12.7946C18.0169 11.8924 19.1636 11.1508 20.3802 10.5893C21.6358 10.01 22.9419 9.61405 24.2593 9.41446C25.6142 9.20837 26.9967 9.20837 28.3646 9.40959C29.7032 9.60756 31.0239 10.0019 32.2893 10.5812C33.527 11.1475 34.6786 11.8843 35.713 12.7687C36.7637 13.6677 37.6615 14.7046 38.3853 15.8519C39.1319 17.0365 39.6897 18.3363 40.0459 19.7172C40.3908 21.0544 40.5371 22.4548 40.4802 23.8796C40.4314 25.0901 40.2265 26.2504 39.8687 27.3392C39.7987 27.5518 39.436 28.5563 39.1937 28.9458C39.1872 28.9571 39.1709 28.9701 39.1416 28.9717C39.14 28.9717 39.1384 28.9717 39.1367 28.9717C39.1123 28.9717 39.0733 28.9636 39.0554 28.9425C39.0343 28.9198 39.0392 28.889 39.0424 28.8776L39.0473 28.8727Z" fill="#202F58"/>
<path d="M12.126 22.6332C12.1861 21.1825 12.487 19.7788 13.0205 18.4596C13.1653 18.1026 13.3247 17.7959 13.4971 17.5459C13.5361 17.4892 13.5963 17.4827 13.6353 17.5054C13.6744 17.5281 13.6988 17.5833 13.6679 17.6433C13.5459 17.89 13.4499 18.1593 13.3572 18.4206C13.3312 18.492 13.3068 18.565 13.2808 18.6364C13.162 18.9626 13.0563 19.2936 12.9717 19.6166C12.8123 20.2154 12.7001 20.8661 12.6172 21.6628C12.4789 22.9967 12.5375 24.3809 12.7912 25.7781C13.0368 27.1347 13.4515 28.4216 14.0224 29.5997C14.5917 30.7745 15.3155 31.8277 16.1775 32.7251C17.142 33.7312 18.2724 34.5912 19.5395 35.2809C20.7853 35.9592 22.1239 36.4476 23.5211 36.7349C24.9215 37.0221 26.3398 37.0902 27.7369 36.9393C29.1243 36.7884 30.4824 36.4298 31.7738 35.8732C33.0669 35.3166 34.238 34.6042 35.2529 33.7539C36.1035 33.0431 36.868 32.2382 37.5251 31.3587C37.595 31.2646 38.5042 29.9826 38.5302 29.9469C38.5498 29.9193 38.5839 29.9064 38.6132 29.9161C38.6425 29.9258 38.6506 29.9469 38.649 29.981V29.9859L38.6457 29.9972C38.6067 30.1287 38.244 30.7924 37.7463 31.5096C37.1965 32.3032 36.4516 33.0983 36.2336 33.3141C35.2382 34.2975 34.1127 35.1332 32.8896 35.7969C31.6014 36.4963 30.2417 36.9831 28.8494 37.2444C27.9955 37.405 27.1319 37.4846 26.2698 37.4846C25.6729 37.4846 25.0744 37.4456 24.4791 37.3693C23.0266 37.1811 21.61 36.7787 20.2665 36.1718C18.9214 35.5649 17.6869 34.7632 16.5988 33.7912C15.5643 32.8662 14.7072 31.8131 14.0533 30.6626C13.3946 29.5039 12.8904 28.222 12.557 26.854C12.2122 25.4601 12.069 24.0385 12.126 22.6332Z" fill="#354368"/>
<path d="M27.081 35.6835C28.7367 35.6835 30.3453 35.3606 31.858 34.7228C33.3185 34.1078 34.6311 33.2267 35.7583 32.1037C36.8854 30.9808 37.7702 29.6745 38.3883 28.2189C39.0275 26.7114 39.3528 25.1113 39.3528 23.461C39.3528 21.8107 39.0275 20.2107 38.3883 18.7031C37.7702 17.2475 36.8854 15.9412 35.7583 14.8183C34.6311 13.6954 33.3185 12.8142 31.858 12.1992C30.3453 11.5615 28.7384 11.2385 27.081 11.2385C25.4236 11.2385 23.8166 11.5615 22.304 12.1992C20.8434 12.8142 19.5309 13.6954 18.4037 14.8183C17.2766 15.9412 16.3641 17.2216 15.746 18.6772C15.1068 20.1847 14.8092 21.8107 14.8092 23.461C14.8092 25.1113 15.1329 26.7114 15.7737 28.2189C16.3918 29.6745 17.2766 30.9808 18.4037 32.1037C19.5309 33.2267 20.8434 34.1078 22.304 34.7228C23.8166 35.3606 25.4236 35.6835 27.081 35.6835Z" fill="url(#paint5_linear_413_3312)"/>
<path d="M27.1088 11.1929C27.7594 11.0874 26.4387 11.1929 27.1088 11.1929C28.7646 11.1929 30.3732 11.5158 31.8858 12.1535C33.3464 12.7686 34.6589 13.6497 35.7861 14.7726C36.9132 15.8956 37.798 17.2019 38.4161 18.6575C39.0553 20.165 39.3806 21.765 39.3806 23.4154C39.3806 25.0657 39.0569 26.6657 38.4161 28.1732C37.798 29.6288 36.9132 30.9351 35.7861 32.0581C34.6589 33.181 33.3464 34.0622 31.8858 34.6772C30.3732 35.3149 28.7662 35.6378 27.1088 35.6378C26.8242 35.6378 27.626 35.6654 27.3447 35.6459C27.4 35.5924 35.0428 34.0394 35.0428 23.6442C35.0428 12.2947 27.169 11.2237 27.1088 11.1929Z" fill="url(#paint6_linear_413_3312)"/>
<path d="M31.3442 23.8454C31.3442 25.869 32.4519 27.4333 34.0735 27.4333C35.6951 27.4333 37.0093 25.8268 37.0093 23.8454C37.0093 21.8641 35.6951 20.2576 34.0735 20.2576C32.4519 20.2576 31.3442 21.8349 31.3442 23.8454Z" fill="url(#paint7_linear_413_3312)"/>
<path d="M16.6374 18.9155C17.2246 17.5313 18.0639 16.2883 19.1341 15.2205C20.2043 14.1528 21.4502 13.3155 22.8376 12.7296C24.2738 12.1227 25.7994 11.816 27.3722 11.816C28.1968 11.816 29.0085 11.9004 29.8006 12.0676C29.2232 12.2152 28.6555 12.4165 28.1041 12.6696C26.8257 13.2554 25.6774 14.0927 24.6918 15.1605C23.7061 16.2283 22.9319 17.4713 22.3903 18.8555C21.8308 20.2884 21.5462 21.8105 21.5462 23.3813C21.5462 24.9505 21.8308 26.4726 22.3903 27.9071C22.9303 29.2913 23.7045 30.5343 24.6918 31.6021C25.679 32.6699 26.8257 33.5072 28.1041 34.093C28.7368 34.3835 29.3891 34.6042 30.0559 34.7567C29.1825 34.9628 28.2863 35.0667 27.3722 35.0667C25.7994 35.0667 24.2738 34.76 22.8376 34.1531C21.4502 33.5673 20.2043 32.7299 19.1341 31.6622C18.0639 30.5944 17.2246 29.3514 16.6374 27.9672C16.0291 26.5343 15.7217 25.0122 15.7217 23.4414C15.7217 21.8705 16.0308 20.3484 16.6374 18.9155Z" fill="url(#paint8_linear_413_3312)"/>
<path d="M16.5171 18.8703C17.1042 17.4861 18.0655 16.2868 19.1341 15.2191C20.2043 14.1513 21.4502 13.314 22.8376 12.7282C24.2737 12.1213 25.7994 11.8146 27.3722 11.8146C27.8227 11.8146 28.2684 11.8405 28.7108 11.8908C27.6113 12.0158 26.5411 12.2965 25.5164 12.7282C24.129 13.314 22.8831 14.1513 21.8145 15.2191C20.7443 16.2868 19.905 17.5299 19.3179 18.9141C18.7095 20.3469 18.4021 21.8707 18.4021 23.4399C18.4021 25.0091 18.7095 26.5312 19.3179 27.9657C19.905 29.3499 20.7443 30.5929 21.8145 31.6607C22.8847 32.7285 24.1306 33.5658 25.5164 34.1516C26.5411 34.5849 27.6113 34.864 28.7124 34.9889C28.2716 35.0392 27.8243 35.0652 27.3738 35.0652C25.801 35.0652 24.2754 34.7585 22.8392 34.1516C21.4518 33.5658 20.2059 32.7285 19.1357 31.6607C18.0655 30.5929 17.2262 29.3499 16.639 27.9657C16.0307 26.5328 15.7233 25.0107 15.7233 23.4399C15.7233 21.8691 15.9087 20.3048 16.5171 18.8703Z" fill="url(#paint9_linear_413_3312)"/>
<path d="M34.5742 18.6171C34.5742 19.1883 35.0053 19.6507 35.5371 19.6507C36.069 19.6507 36.5 19.1883 36.5 18.6171C36.5 18.0459 36.069 17.5834 35.5371 17.5834C35.0053 17.5834 34.5742 18.0475 34.5742 18.6171Z" fill="#FFFF88"/>
<path d="M34.2603 16.8094C34.2603 17.1339 34.514 17.3984 34.8263 17.3984C35.1386 17.3984 35.3923 17.1339 35.3923 16.8094C35.3923 16.4848 35.1386 16.2203 34.8263 16.2203C34.514 16.2203 34.2603 16.4832 34.2603 16.8094Z" fill="#FFFF88"/>
<path d="M34.8637 32.1037C35.9908 30.9808 36.8757 29.6745 37.4937 28.2189C38.1329 26.7114 38.4582 25.1113 38.4582 23.461C38.4582 21.8107 38.1345 20.2107 37.4937 18.7031C36.8757 17.2475 35.9908 15.9412 34.8637 14.8183C33.7365 13.6954 32.424 12.8142 30.9634 12.1992C29.5874 11.6199 28.1317 11.3002 26.6337 11.2466C26.7817 11.2418 26.9314 11.2385 27.081 11.2385C28.7367 11.2385 30.3453 11.5615 31.858 12.1992C33.3185 12.8142 34.6311 13.6954 35.7583 14.8183C36.8854 15.9412 37.7702 17.2475 38.3883 18.7031C39.0275 20.2107 39.3528 21.8107 39.3528 23.461C39.3528 25.1113 39.0275 26.7114 38.3883 28.2189C37.7702 29.6745 36.8854 30.9808 35.7583 32.1037C34.6311 33.2267 33.3185 34.1078 31.858 34.7228C30.3453 35.3606 28.7384 35.6835 27.081 35.6835C26.9314 35.6835 26.7833 35.6802 26.6337 35.6754C28.1317 35.6218 29.5874 35.3021 30.9634 34.7228C32.4256 34.1078 33.7365 33.2267 34.8637 32.1037Z" fill="#FFFF88"/>
<path d="M33.8311 14.69C36.9262 17.0284 38.286 21.4568 37.6842 25.2021C37.4939 26.3884 37.1328 27.4918 36.5912 28.5628C36.5684 28.6099 36.4855 28.5758 36.505 28.5271C38.4177 23.8877 37.4223 18.2746 33.7806 14.7549C33.7481 14.7225 33.792 14.6608 33.8311 14.69Z" fill="#FFFF88"/>
<path d="M18.9275 17.2037C20.6744 13.671 24.843 12.058 28.3465 12.4669C29.4557 12.5967 30.5016 12.9116 31.5311 13.4211C31.575 13.4438 31.5506 13.5331 31.5051 13.5136C27.0778 11.7691 21.969 13.1712 18.9926 17.2524C18.9649 17.2897 18.9031 17.2459 18.9275 17.2037Z" fill="#FFFF88"/>
<path d="M28.9582 11.0989C30.1276 11.2741 31.2222 11.5419 32.3283 12.053C33.4099 12.5545 34.4167 13.2052 35.321 13.989C36.2383 14.7841 37.0239 15.7026 37.6566 16.7168C38.3088 17.7651 38.7968 18.9156 39.1091 20.1359C39.4116 21.3189 39.5384 22.5587 39.488 23.8195C39.4457 24.8905 39.2668 25.9177 38.9545 26.8816C38.8927 27.0699 38.5772 27.9591 38.3641 28.3032C38.3576 28.3129 38.343 28.3243 38.3186 28.3259C38.317 28.3259 38.3153 28.3259 38.3137 28.3259C38.2926 28.3259 38.2584 28.3178 38.2421 28.2999C38.2242 28.2788 38.2275 28.2528 38.2308 28.2415L38.2324 28.2366L38.234 28.2334C38.5235 27.5356 38.7317 26.768 38.8065 26.4776C38.961 25.8739 39.0684 25.2751 39.1269 24.699C39.2473 23.5161 39.1839 22.3055 38.9399 21.1047C38.6959 19.9022 38.2909 18.7566 37.7363 17.6969C37.1914 16.6567 36.4953 15.7107 35.6658 14.8815C34.8558 14.0717 33.9255 13.3756 32.9008 12.8125C31.8826 12.2526 30.788 11.9135 29.6625 11.6587C28.5239 11.4007 27.3024 11.378 26.1558 11.4461C25.1067 11.5094 23.7778 11.6977 22.3465 12.2575C22.2603 12.2916 22.2506 12.2299 22.3287 12.1812C24.5211 10.7824 27.8538 10.9333 28.9582 11.0989Z" fill="#202F58"/>
<path d="M24.8626 35.2792C26.102 35.4479 27.1234 35.5129 28.3449 35.3782C29.5566 35.2451 30.744 34.927 31.8727 34.4354C33.0031 33.942 34.0262 33.3124 34.9143 32.5611C35.6576 31.9331 36.326 31.2191 36.9002 30.4418C36.962 30.359 37.7557 29.2247 37.7785 29.1923C37.7964 29.1679 37.824 29.1566 37.8517 29.1663C37.8777 29.1744 37.8842 29.1939 37.8826 29.2231V29.228L37.8793 29.2393C37.8452 29.3546 37.528 29.942 37.0937 30.5781C36.6139 31.2808 35.9617 31.9834 35.7714 32.1749C34.9012 33.0463 33.9188 33.7846 32.8486 34.3721C31.7231 34.9903 30.5341 35.422 29.3175 35.6524C28.571 35.7936 27.8163 35.865 27.0632 35.865C26.5411 35.865 26.0207 35.8147 25.4986 35.7628C24.3649 35.6492 23.1255 35.3198 22.3985 34.794C22.3448 34.755 22.3172 34.6918 22.4619 34.7388C22.6392 34.7956 22.9108 34.8832 23.2182 34.9627C23.7485 35.0991 24.3812 35.2127 24.8626 35.2792Z" fill="#AD5E17"/>
<path d="M14.7053 22.7194C14.7573 21.4358 15.0208 20.1944 15.486 19.026C15.6128 18.7112 15.7527 18.4386 15.9024 18.2179C15.9365 18.1676 16.0081 18.0508 16.0439 18.0719C16.078 18.0913 16.0276 18.2195 16 18.2731C15.8926 18.4921 15.7153 19.052 15.6925 19.1153C15.5884 19.4041 15.5169 19.7644 15.4421 20.05C15.3038 20.5806 15.2046 21.1551 15.133 21.861C15.0127 23.0407 15.0631 24.2659 15.2843 25.5024C15.499 26.7032 15.9089 28.003 16.3594 29.0659C16.875 30.2814 17.6329 31.1739 17.5874 31.2339C17.5467 31.2858 16.6961 30.3738 16.3887 29.8254C15.8129 28.7998 15.3721 27.6655 15.081 26.4549C14.7801 25.22 14.6549 23.9624 14.7053 22.7194Z" fill="#AD5E17"/>
<path d="M20.9459 15.761C20.9459 16.1878 21.2874 16.535 21.7071 16.535C22.1283 16.535 22.4683 16.1894 22.4683 15.761C22.4683 15.3342 22.1267 14.9869 21.7071 14.9869C21.2874 14.9886 20.9459 15.3342 20.9459 15.761Z" fill="#FFFF88"/>
<path d="M20.5247 17.0121C20.5247 17.2263 20.6955 17.3983 20.9053 17.3983C21.1151 17.3983 21.2859 17.2246 21.2859 17.0121C21.2859 16.7995 21.1151 16.6259 20.9053 16.6259C20.6938 16.6259 20.5247 16.7995 20.5247 17.0121Z" fill="#FFFF88"/>
<path d="M8.69728 21.0366C9.15107 21.0366 9.59347 20.8938 9.96756 20.6228C10.9353 19.9218 11.1516 18.5635 10.449 17.598C9.74636 16.6325 8.385 16.4167 7.41724 17.1177C6.94881 17.4568 6.63978 17.9599 6.5487 18.5311C6.45762 19.1023 6.59587 19.6751 6.9358 20.1425C7.27574 20.6098 7.77995 20.9181 8.35247 21.009C8.46795 21.0285 8.58343 21.0366 8.69728 21.0366ZM10.0554 17.8836C10.6003 18.6333 10.4344 19.6849 9.68293 20.2301C9.3186 20.493 8.87457 20.6001 8.43054 20.5303C7.98651 20.4605 7.59615 20.222 7.33266 19.8585C7.06917 19.495 6.96182 19.052 7.03176 18.609C7.1017 18.166 7.3408 17.7765 7.70513 17.5136C8.45494 16.9684 9.51052 17.1355 10.0554 17.8836Z" fill="#C1A11B"/>
<path d="M31.266 35.1333C31.6905 35.0067 32.2175 35.1365 32.6322 35.2485C33.0909 35.3718 33.5317 35.5552 33.948 35.7824C34.8345 36.2627 35.5875 36.9524 36.1552 37.7816C37.31 39.4676 37.5279 41.6535 36.8464 43.5667C36.4512 44.675 35.7876 45.6908 34.8768 46.4454C34.9174 46.2896 34.9597 46.1339 35.0004 45.9765C34.9207 45.7314 34.9971 45.9261 35.0963 46.0057C35.1972 46.0852 35.2069 46.2296 35.1858 46.3432C35.1663 46.4535 35.1142 46.5363 35.0297 46.6093C34.8507 46.7635 34.6621 46.7732 34.4523 46.684C34.2457 46.5947 34.1465 46.4357 34.0684 46.2328C34.0115 46.0852 34.0733 45.8661 34.192 45.7639C35.9437 44.2677 36.7293 41.7995 35.9942 39.5893C35.6493 38.5524 34.976 37.6372 34.1465 36.9297C33.7317 36.5759 33.2796 36.2806 32.7916 36.0372C32.2939 35.7889 31.697 35.6964 31.2237 35.4189C31.1115 35.3491 31.1375 35.1706 31.266 35.1333Z" fill="#282828"/>
<path d="M35.9682 47.5799C35.651 46.8253 34.7987 46.1779 33.9448 46.3126C33.5415 46.3758 33.0925 46.7393 33.2715 47.1888C33.4081 47.5329 33.8472 47.7292 34.1709 47.846C34.4864 47.9596 35.1175 48.1657 35.3517 47.7909C35.5924 47.4047 34.9435 47.1905 34.68 47.1418C34.4702 47.1028 34.1709 47.0509 33.9757 47.1645C33.7204 47.3154 33.8928 47.4339 34.0961 47.4631C34.2262 47.4809 34.3612 47.4647 34.4913 47.4436C34.5678 47.4306 34.7255 47.3381 34.7076 47.4371C34.6963 47.4955 34.597 47.5166 34.5434 47.5621C34.4604 47.6351 34.4149 47.773 34.371 47.8688C34.3498 47.7016 34.327 47.5345 34.3059 47.3673C34.4116 47.4598 34.4588 47.5183 34.5238 47.6416C34.6344 47.8493 34.4994 48.1414 34.2425 48.13C34.0717 48.1219 33.9595 48.0846 33.8033 48.0181C33.6472 47.9515 33.5577 47.7065 33.613 47.5507C33.8423 46.9049 34.5466 46.3142 35.2135 46.8124C35.4672 47.0022 35.6233 47.317 35.5485 47.6367C35.4574 48.0246 35.0801 48.2063 34.7223 48.2745C34.0424 48.4043 33.0551 48.2793 32.9738 47.4112C32.8892 46.4976 33.8749 46.1746 34.61 46.2574C35.3371 46.3401 36.1438 46.6793 36.2593 47.4907C36.3666 48.2485 35.6852 48.8083 34.9776 48.8538C33.6667 48.9382 31.575 47.5815 32.7282 46.1487C33.2666 45.4785 34.2555 45.3941 34.9955 45.7608C35.7047 46.113 36.1471 46.7685 36.2268 47.5458C36.243 47.7065 36.0202 47.7032 35.9682 47.5799Z" fill="#282828"/>
<path d="M35.4249 46.6241C36.1861 46.1827 37.1473 46.4034 37.6808 47.1012C38.2598 47.859 38.1199 49.0306 37.1831 49.4184C36.7391 49.6034 36.2397 49.5872 35.7697 49.5353C35.259 49.4785 34.7271 49.4054 34.3416 49.0355C33.4536 48.1851 34.34 47.1012 35.2525 46.788C35.6981 46.6354 36.2267 46.6711 36.5894 46.9957C36.9229 47.2943 37.0985 47.7811 36.9115 48.2046C36.5471 49.0273 35.2362 48.8261 35.0768 47.9628C34.8865 46.934 36.2723 46.3661 36.9164 47.1433C37.5149 47.8671 36.9717 49.2058 35.9388 48.9495C35.4151 48.8196 35.0898 48.2257 35.3435 47.7308C35.5973 47.2375 36.2804 46.9843 36.8025 47.1255C37.3051 47.2602 37.6889 47.8054 37.5051 48.3231C37.3425 48.7823 36.7065 49.0744 36.3308 48.6931C36.5227 48.6135 36.713 48.5357 36.905 48.4561C36.9033 48.4821 36.9017 48.5081 36.9001 48.534C36.8838 48.7969 36.5878 48.9202 36.3894 48.745C36.3699 48.7271 36.3503 48.7109 36.3308 48.6931C36.0917 48.4805 36.3048 48.1494 36.5683 48.1202C36.9586 48.078 36.6155 47.8152 36.3487 47.8817C36.2625 47.9028 35.9649 48.0213 36.0706 48.1624C36.1454 48.263 36.3276 48.1008 36.3585 48.0407C36.4382 47.8931 36.3877 47.635 36.2153 47.562C36.0511 47.4922 35.7404 47.7178 35.8884 47.8817C35.9665 47.9677 36.1421 47.9563 36.1747 47.8525C36.2381 47.6578 35.9193 47.5263 35.7827 47.5214C35.4444 47.5117 34.6295 47.945 34.8589 48.3588C35.0589 48.719 35.7453 48.732 36.1047 48.758C36.5049 48.7872 37.066 48.7921 37.2498 48.3523C37.6434 47.403 36.295 46.7863 35.5599 46.9421C35.3712 46.9827 35.246 46.7279 35.4249 46.6241Z" fill="#282828"/>
<path d="M22.8537 35.3787C22.9025 35.4858 23.0115 35.5507 23.0668 35.6545C23.153 35.8168 23.1595 36.0716 23.1888 36.2501C23.2424 36.5811 23.2815 36.9138 23.3091 37.2481C23.3693 37.9621 23.3677 38.6826 23.3156 39.3982C23.2246 40.6493 23.0814 42.0449 22.4194 43.1419C21.7477 44.2535 20.5734 44.6819 19.3243 44.7435C18.659 44.776 17.984 44.7143 17.3334 44.5715C16.7251 44.4384 15.855 44.2551 15.463 43.7472C15.2662 43.4924 15.5378 43.15 15.8094 43.1435C16.1282 43.1354 16.3803 43.3025 16.6747 43.408C16.948 43.507 17.2277 43.5897 17.5107 43.6563C18.106 43.7942 18.7143 43.851 19.3243 43.8267C20.4449 43.7812 21.3687 43.3707 21.8518 42.3175C22.3267 41.2838 22.4617 40.057 22.5544 38.9374C22.6049 38.324 22.6244 37.7089 22.6228 37.0939C22.6211 36.7872 22.6146 36.4805 22.6032 36.1754C22.5984 36.018 22.5675 35.8412 22.5967 35.687C22.6163 35.5831 22.7025 35.5231 22.7171 35.416C22.7269 35.3527 22.8196 35.304 22.8537 35.3787Z" fill="#282828"/>
<path d="M15.7804 43.1237C16.5562 43.2584 16.7058 44.3375 16.2959 44.8844C15.7901 45.5578 14.7345 45.5919 14.2059 44.9314C13.6497 44.2353 13.8936 43.2178 14.7085 42.856C15.551 42.4827 16.5253 43.0702 16.6033 43.987C16.6814 44.8941 15.7429 45.6552 14.876 45.316C14.0189 44.9801 13.7993 43.8637 14.5296 43.2714C15.2599 42.6791 16.4179 43.26 16.3512 44.2093C16.2862 45.1456 15.0208 45.5367 14.4906 44.7286C14.201 44.2856 14.3572 43.6982 14.8224 43.4499C15.229 43.2341 15.7283 43.4434 15.8487 43.8848C15.9511 44.2613 15.7478 44.7286 15.3266 44.7757C14.7931 44.8357 14.5654 44.1233 14.6874 43.7176C14.946 43.789 15.2046 43.8604 15.4632 43.9302C15.4323 44.0324 15.3965 44.1282 15.3558 44.2255C15.1672 44.6734 14.5182 44.5176 14.6142 44.0211C14.6337 43.9172 14.6581 43.8182 14.6874 43.716C14.8354 43.2227 15.6079 43.432 15.4632 43.9286C15.4355 43.9675 15.4388 44 15.4778 44.0276C15.3737 44.0146 15.2696 44 15.1655 43.987C14.8939 44.0746 15.1607 44.1233 15.1883 44.1688C15.203 44.1915 15.1509 44.2483 15.1948 44.3067C15.3136 44.4657 15.5201 44.2888 15.5331 44.1493C15.5705 43.7452 14.9622 43.755 14.8972 44.1363C14.8419 44.4576 15.2339 44.6718 15.5038 44.5469C15.8812 44.3716 15.8747 43.8718 15.5657 43.6397C14.8972 43.1383 14.2791 44.383 15.0745 44.6572C15.3802 44.7627 15.7511 44.5988 15.8763 44.3002C16.0243 43.9464 15.8243 43.5943 15.6323 43.3087C15.5657 43.2097 15.6779 43.1059 15.7804 43.1237Z" fill="#282828"/>
<path d="M15.7674 45.2854C15.6861 45.2562 15.6047 45.2318 15.5218 45.2107C15.5771 45.1166 15.6308 45.0225 15.6861 44.9284C16.0862 45.3552 16.6619 45.6878 16.9531 46.2039C17.2914 46.8075 17.0718 47.5215 16.5302 47.924C15.9496 48.354 15.1575 48.2712 14.5817 47.872C13.9392 47.4274 13.6286 46.6793 13.518 45.9296C13.4187 45.2562 13.5651 44.3052 14.4369 44.2728C14.785 44.2598 15.0338 44.4675 15.2306 44.7304C15.5283 45.128 15.8162 45.5337 16.1089 45.9345C16.4684 46.4262 16.8766 47.3219 16.0992 47.687C15.4128 48.0083 14.7102 47.2213 14.3491 46.7361C14.0124 46.2801 13.5472 45.2059 14.4369 45.0095C15.3201 44.8148 15.7902 46.173 15.9788 46.7945C16.0764 47.1191 15.6991 47.3917 15.4144 47.2278C14.8598 46.9081 14.4499 46.3937 14.3117 45.7641C14.2092 45.2951 14.9021 45.0988 15.0355 45.5645C15.1607 46.0043 15.4014 46.3369 15.8032 46.5657C15.6145 46.7101 15.4275 46.8546 15.2388 46.9974C15.1493 46.7085 15.0387 46.431 14.8891 46.1682C14.837 46.0757 14.7264 45.9669 14.6955 45.8728C14.6354 45.8339 14.6337 45.7836 14.689 45.7251C14.6939 45.7722 14.7069 45.8176 14.7281 45.8598C14.8598 46.0675 14.9639 46.2753 15.1282 46.4635C15.2193 46.5673 15.5348 46.9568 15.6958 46.9195C15.8341 46.8887 15.717 46.7702 15.6633 46.6712C15.5982 46.5511 15.5023 46.444 15.4226 46.3337C15.2339 46.0789 15.0452 45.8225 14.8566 45.5694C14.7362 45.4087 14.5475 45.003 14.3523 45.1994C14.2011 45.3503 14.3312 45.8598 14.3702 46.04C14.476 46.5268 14.6972 47.0185 15.1428 47.2814C15.5462 47.5183 16.1415 47.5004 16.3529 47.012C16.5351 46.5933 16.1691 46.2655 15.9235 45.9734C15.6909 45.6976 15.4453 45.4103 15.3998 45.0436C15.3819 44.8992 15.5966 44.8213 15.6877 44.9251C15.743 44.9917 15.8032 45.055 15.865 45.1166C15.9284 45.1896 15.8633 45.3178 15.7674 45.2854Z" fill="#282828"/>
<path d="M8.60444 35.2535C9.30708 35.4418 9.93653 34.9744 10.1561 34.3497C10.3968 33.6665 10.2944 32.7805 9.70394 32.3034C9.15745 31.862 8.39951 31.9464 7.97011 32.4997C7.56349 33.0239 7.30163 34.903 8.60444 35.2535Z" fill="#282828"/>
<path d="M7.11287 31.7663C7.22998 32.3959 7.3845 33.2916 7.8025 33.7898C8.05623 34.0917 8.5084 33.8255 8.52791 33.4896C8.5458 33.1845 8.41731 32.9168 8.32786 32.6296C8.23515 32.3358 8.15057 32.0389 8.08063 31.7387C7.94889 31.1837 7.86594 30.6109 7.92937 30.0397C8.04322 29.0319 8.59785 28.1638 9.57699 27.8149C9.75265 27.7532 9.92994 27.7045 10.1121 27.6672C10.1414 27.6932 10.1804 27.7094 10.2292 27.711C10.6684 27.7159 10.8928 28.0356 11.2165 28.2855C11.4735 28.4835 11.7695 28.6035 12.098 28.5971C12.3892 28.5906 12.6738 28.4818 12.8934 28.2936C13.152 28.0729 13.2691 27.8068 13.5375 27.6656C13.8416 27.6932 14.1458 27.7224 14.4499 27.75C15.0501 27.8052 15.7104 27.9853 16.3106 27.9204C16.4196 27.909 16.457 27.7824 16.3659 27.7192C15.8438 27.3492 15.0794 27.2145 14.4678 27.0668C13.7945 26.9045 13.0983 26.8153 12.4103 26.7455C11.2214 26.627 9.93482 26.6157 8.8402 27.1561C7.78949 27.6737 7.19257 28.7269 7.03806 29.8579C6.94697 30.4957 6.99414 31.1318 7.11287 31.7663Z" fill="#282828"/>
<path d="M9.82905 34.7847C10.5496 34.7149 11.0148 33.4897 10.8131 32.8828C10.7025 32.5501 10.2194 32.6118 10.2031 32.9656C10.1901 33.2544 10.2422 33.5173 10.1657 33.8078C10.0958 34.0739 9.94616 34.3757 9.73309 34.5542C9.64688 34.6272 9.7152 34.796 9.82905 34.7847Z" fill="#282828"/>
<path d="M32.0876 23.3619C32.0876 23.3619 30.447 24.3822 27.857 24.4916C25.2685 24.5998 22.3814 23.1482 22.3814 23.1482L21.9105 23.5873C21.9105 23.5873 22.7985 27.7101 26.7397 27.7766C30.187 27.8339 31.435 25.8728 31.435 25.8728C31.435 25.8728 32.2922 24.3522 32.0876 23.3619Z" fill="#FFFDA4"/>
<path d="M24.5747 27.3587C24.6088 27.2613 24.6528 27.1331 24.656 27.125C24.8919 26.4841 25.2041 25.9437 25.5587 25.5623C26.0922 24.9895 26.9185 24.8613 27.5316 25.254C27.5902 25.2443 27.6471 25.2345 27.7057 25.2248H27.7138C27.8651 25.1842 28.1513 25.1534 28.4083 25.3757C28.8491 25.7571 28.9418 26.3202 28.9288 26.3932C28.8653 26.7486 28.6198 26.9903 28.4116 27.0958C28.3774 27.1137 28.34 27.1299 28.2928 27.1478C28.0781 27.2305 27.8309 27.2613 27.5983 27.2338C27.5333 27.2256 27.4682 27.2127 27.4048 27.1948C27.3316 27.2403 27.2551 27.2906 27.1624 27.3555C27.0047 27.4983 26.8713 27.6816 26.7704 27.8958C26.7672 27.9023 26.7428 27.9607 26.7216 28.0127L26.7054 28.0532L26.6615 28.05C26.1589 28.0192 25.2204 27.9007 24.5861 27.4658L24.547 27.4398L24.5747 27.3587Z" fill="url(#paint10_linear_413_3312)"/>
<path d="M28.8068 26.5019C28.8198 26.4289 28.7255 25.8658 28.2863 25.4844C28.0391 25.2702 27.7642 25.2913 27.6081 25.3287C27.6048 25.3287 27.7236 25.4033 27.8228 25.5185C27.9252 25.637 28.0098 25.7976 27.9805 25.8025C27.9692 25.7944 27.8016 25.6451 27.6422 25.525C27.4926 25.4114 27.3511 25.3254 27.3397 25.3189C26.9916 25.1242 26.5753 25.1242 26.193 25.2329C25.9312 25.3076 25.6905 25.4423 25.4823 25.65C25.5083 25.6208 25.5327 25.5899 25.5587 25.5623C26.0922 24.9895 26.9185 24.8613 27.5316 25.254C27.5902 25.2443 27.6471 25.2345 27.7057 25.2248H27.7138C27.8651 25.1842 28.1513 25.1534 28.4083 25.3757C28.8491 25.7571 28.9418 26.3202 28.9288 26.3932C28.8784 26.6755 28.7141 26.8832 28.5449 27.0114C28.6653 26.8849 28.7694 26.7145 28.8068 26.5019Z" fill="#D36250"/>
<path d="M26.5201 25.9973C26.4778 25.6954 26.6242 25.392 26.6242 25.392C26.7038 26.0557 27.1658 26.5019 27.1658 26.5019C28.14 26.9433 28.8687 26.3835 28.8687 26.3835L28.9272 26.3445C28.9289 26.3689 28.9289 26.3851 28.9272 26.3948C28.8638 26.7502 28.6182 26.992 28.41 27.0975C28.3759 27.1153 28.3385 27.1315 28.2913 27.1494C28.0766 27.2322 27.8294 27.263 27.5968 27.2354C27.5317 27.2273 27.4667 27.2143 27.4032 27.1965C27.33 27.2419 27.2536 27.2922 27.1609 27.3571C27.0031 27.4999 26.8697 27.6833 26.7689 27.8975C26.7657 27.904 26.7413 27.9624 26.7201 28.0143L26.7038 28.0549L26.6599 28.0516C26.3411 28.0322 25.8451 27.977 25.3636 27.8277C25.6743 26.4889 26.5201 25.9973 26.5201 25.9973Z" fill="#9B3227"/>
<path d="M26.4078 26.0085C26.3671 25.6759 26.5558 25.3968 26.5639 25.387L26.6664 25.2686L26.6501 25.4243C26.6485 25.4325 26.5639 26.2844 27.0258 26.8994C27.1348 27.0438 27.3462 27.1444 27.6049 27.1753C27.8309 27.2012 28.0668 27.172 28.2701 27.0941C28.3091 27.0795 28.3465 27.0633 28.3839 27.0455C28.5596 26.9562 28.8068 26.7355 28.8686 26.3866C28.8751 26.3509 28.8052 25.8041 28.3677 25.426C28.1367 25.2264 27.8586 25.2329 27.6488 25.3124C27.5918 25.2426 27.5187 25.1809 27.439 25.129C27.7577 24.9473 28.1253 24.9456 28.4474 25.1501C28.5531 25.2166 28.6539 25.3059 28.7466 25.4179C28.9727 25.6937 29.1679 26.1562 29.1061 26.5375C29.0915 26.596 29.0752 26.6528 29.0524 26.7063C29.0297 26.7582 29.0036 26.8085 28.9727 26.8572C28.8638 27.0325 28.7044 27.1769 28.5027 27.2791C28.3644 27.3505 28.2018 27.4008 28.0359 27.4268C27.8814 27.4511 27.7252 27.4544 27.574 27.4365C27.2438 27.3976 26.9657 27.2597 26.8144 27.0584C26.5395 26.6885 26.4452 26.3055 26.4078 26.0085Z" fill="#5E0707"/>
<path d="M24.3485 27.2711C24.3697 27.2062 24.3941 27.1348 24.399 27.1153C24.6511 26.3007 25.1667 25.4601 25.7977 25.0739C26.5882 24.5887 27.556 24.7721 28.0081 25.7701C28.0195 25.7944 27.987 25.8187 27.9723 25.7944C27.3982 24.8613 26.2434 24.9165 25.6042 25.6029C25.2187 26.0167 24.9243 26.5717 24.7129 27.1445C24.708 27.1559 24.6185 27.4171 24.5974 27.4756C24.5079 27.4139 24.4234 27.3457 24.3485 27.2711Z" fill="#5E0707"/>
<path d="M27.2829 27.1836C27.3545 27.281 27.4407 27.3637 27.5415 27.4173C27.5269 27.4156 27.5139 27.4108 27.5008 27.4027C27.2975 27.5163 27.1251 27.6883 26.9966 27.9106C26.9918 27.9203 26.9511 28.0015 26.9234 28.0583C26.8568 28.0566 26.7592 28.055 26.6404 28.0469C26.6648 27.9901 26.7136 27.8749 26.7153 27.8716C26.8535 27.5779 27.0454 27.3442 27.2829 27.1836Z" fill="#5E0707"/>
<path d="M22.1691 18.554C22.1105 18.1564 22.1789 17.7848 22.3334 17.5252C22.4505 17.3272 22.6196 17.1942 22.8197 17.1633C23.2816 17.0952 23.7419 17.6063 23.8444 18.3057C23.9485 19.0051 23.6573 19.6283 23.1954 19.6964C23.0474 19.7175 22.8994 19.6802 22.7628 19.5958C22.4732 19.4173 22.239 19.0295 22.1691 18.554Z" fill="#1E1E1E"/>
<path d="M23.3561 18.4228C23.2683 17.8321 22.8942 17.3972 22.5185 17.454C22.4518 17.4637 22.3883 17.4897 22.3314 17.527C22.4485 17.3291 22.6177 17.196 22.8177 17.1652C23.2797 17.097 23.74 17.6082 23.8424 18.3076C23.9465 19.007 23.6554 19.6301 23.1935 19.6983C23.0454 19.7193 22.8974 19.682 22.7608 19.5976C22.7852 19.5976 22.8112 19.5976 22.8356 19.5928C23.2113 19.5376 23.4439 19.0135 23.3561 18.4228Z" fill="#111111"/>
<path d="M22.1692 18.5541C22.1107 18.1565 22.179 17.7849 22.3335 17.5253C22.3904 17.4879 22.4538 17.462 22.5205 17.4522C22.8946 17.3971 23.2703 17.8303 23.3582 18.421C23.446 19.0117 23.2134 19.5358 22.8377 19.591C22.8133 19.5943 22.7873 19.5959 22.7629 19.5959C22.4734 19.4174 22.2391 19.0295 22.1692 18.5541Z" fill="#3D3D3D"/>
<path d="M22.3383 18.0656C22.3692 18.2165 22.5156 18.3139 22.6653 18.2831C22.8165 18.2522 22.9141 18.1062 22.8832 17.9569C22.8523 17.806 22.7059 17.7086 22.5563 17.7395C22.4066 17.7703 22.3091 17.9163 22.3383 18.0656Z" fill="#EFEFEF"/>
<path d="M22.3544 18.6239C22.3722 18.7148 22.4617 18.7732 22.5528 18.7554C22.6439 18.7375 22.7024 18.6483 22.6845 18.5574C22.6666 18.4665 22.5772 18.4081 22.4861 18.4259C22.395 18.4454 22.3365 18.533 22.3544 18.6239Z" fill="#EFEFEF"/>
<path d="M30.2757 18.1399C30.3765 17.7521 30.5847 17.4357 30.8287 17.2555C31.0141 17.1192 31.2206 17.0608 31.4175 17.1111C31.8696 17.228 32.0924 17.8771 31.9152 18.5619C31.7379 19.2466 31.2272 19.7059 30.7734 19.589C30.6286 19.5517 30.5066 19.4592 30.4155 19.3294C30.2187 19.0535 30.1553 18.604 30.2757 18.1399Z" fill="#1E1E1E"/>
<path d="M31.4207 18.4791C31.5703 17.9014 31.3947 17.3545 31.0287 17.2604C30.9637 17.2442 30.8954 17.2426 30.8287 17.2555C31.0141 17.1192 31.2206 17.0608 31.4175 17.1111C31.8696 17.228 32.0924 17.8771 31.9152 18.5619C31.7379 19.2466 31.2272 19.7059 30.7734 19.589C30.6286 19.5517 30.5066 19.4592 30.4155 19.3294C30.4383 19.3391 30.4611 19.3489 30.4871 19.3537C30.8514 19.4495 31.2711 19.0584 31.4207 18.4791Z" fill="#111111"/>
<path d="M30.2758 18.14C30.3766 17.7522 30.5848 17.4357 30.8288 17.2556C30.8955 17.2426 30.9638 17.2442 31.0288 17.2605C31.3964 17.3546 31.5721 17.9015 31.4208 18.4791C31.2695 19.0568 30.8515 19.4495 30.4856 19.3538C30.4612 19.3473 30.4368 19.3392 30.414 19.3295C30.2188 19.0536 30.1554 18.6041 30.2758 18.14Z" fill="#3D3D3D"/>
<path d="M30.6237 17.7571C30.5928 17.908 30.6904 18.0541 30.8401 18.0849C30.9913 18.1157 31.1377 18.0184 31.1686 17.8691C31.1995 17.7182 31.1019 17.5721 30.9523 17.5413C30.801 17.5088 30.6546 17.6062 30.6237 17.7571Z" fill="#EFEFEF"/>
<path d="M30.4188 18.2764C30.4009 18.3672 30.4595 18.4565 30.5506 18.4743C30.6416 18.4922 30.7311 18.4338 30.749 18.3429C30.7669 18.252 30.7083 18.1628 30.6172 18.1449C30.5278 18.1271 30.4383 18.1855 30.4188 18.2764Z" fill="#EFEFEF"/>
<path d="M22.2828 22.2326C22.3154 22.2537 22.3463 22.2732 22.3788 22.2943C22.5382 22.3949 22.7025 22.489 22.8635 22.5848C23.179 22.773 23.4767 22.9207 23.8134 23.0684C24.4949 23.3686 25.2414 23.6071 25.9782 23.7321C27.5787 24.0014 29.2491 23.8505 30.7633 23.2631C31.6595 22.9142 32.0043 22.713 32.8029 22.1823C32.8842 22.1288 33.0258 22.1921 32.8533 22.3349C32.6842 22.4744 32.515 22.6124 32.3378 22.7422C31.9799 23.0051 31.5766 23.216 31.1732 23.4043C30.3681 23.7791 29.4833 24.0144 28.6034 24.1296C27.0045 24.3373 25.3618 24.1199 23.8735 23.5195C23.4588 23.3523 23.114 23.1446 22.7285 22.9207C22.5415 22.812 22.3625 22.6935 22.1885 22.5653C22.1186 22.5134 22.0486 22.4631 21.9803 22.4079C22.0828 22.3008 22.1934 22.3446 22.2828 22.2326Z" fill="#282828"/>
<path d="M23.7337 22.1677C23.654 22.1564 22.6065 22.1369 21.9445 22.5913C21.2809 23.0456 20.9849 23.9641 20.9231 23.9901C20.8906 24.0047 20.8597 23.9933 20.8353 23.9706C20.8125 23.9479 20.8207 23.6282 20.8467 23.5308C20.889 23.3653 20.9524 23.2144 21.0386 23.0651C21.2061 22.7746 21.4436 22.5053 21.7233 22.317C22.0194 22.1174 22.3609 21.9681 22.722 21.9487C22.8944 21.9405 23.3352 21.9616 23.7483 22.0996C23.789 22.1125 23.7743 22.1742 23.7337 22.1677Z" fill="#282828"/>
<path d="M21.5477 22.6934C21.5981 22.6448 21.7103 22.6107 21.7738 22.5539C21.7966 22.5328 21.8209 22.5117 21.8437 22.4906C21.7754 22.7648 21.6859 23.2322 21.9137 23.9397C22.0926 24.4979 22.3707 25.0367 22.7383 25.543C23.3775 26.4225 24.2444 27.0976 25.2447 27.4951C26.271 27.9024 27.3933 27.982 28.4879 27.7256C29.6264 27.4578 30.6056 26.8347 31.2448 25.9714C31.9686 24.9945 32.0564 23.9835 32.128 23.1786C32.141 23.0391 32.1263 22.8557 32.141 22.734L32.1849 22.6902H32.1898C32.2564 22.6788 32.3345 22.5815 32.3979 22.5571C32.3849 23.2403 32.3524 24.6927 31.7067 25.7539C31.1309 26.7 30.1713 27.4643 29.0653 27.8554C27.9658 28.2448 26.6906 28.2789 25.5521 27.9268C24.4965 27.6006 23.519 26.9548 22.7952 26.1126C22.3853 25.6338 22.0503 25.0919 21.7982 24.4979C21.7055 24.2805 21.3509 23.3279 21.5477 22.6934Z" fill="#282828"/>
<path d="M24.6709 15.5001C24.4466 15.3893 24.2209 15.2748 23.9822 15.1934C23.7462 15.112 23.4959 15.0637 23.2468 15.0472C22.7423 15.0129 22.2391 15.1227 21.7825 15.3197C21.5205 15.4329 21.2858 15.5863 21.0445 15.7337C21.0043 15.7585 20.9654 15.7125 20.99 15.6771C21.0666 15.5662 21.1522 15.4777 21.2585 15.3916C21.3623 15.3079 21.4725 15.2312 21.588 15.1639C21.8188 15.0295 22.0756 14.9374 22.3402 14.882C22.872 14.7688 23.4466 14.7959 23.9537 14.9846C24.2313 15.0884 24.4829 15.2642 24.6891 15.4742C24.7021 15.486 24.6904 15.5096 24.6709 15.5001Z" fill="#282828"/>
<path d="M30.2674 15.5064C30.6268 15.1181 31.1358 14.888 31.6715 14.829C32.1939 14.7712 32.8258 14.8928 33.296 15.1406C33.4229 15.2078 33.5164 15.2739 33.6313 15.3601C33.6888 15.4025 33.7529 15.4686 33.805 15.5158C33.8611 15.5666 33.9212 15.6303 33.9653 15.6905C33.992 15.7259 33.96 15.7565 33.9185 15.7318C33.8143 15.6704 33.7115 15.5843 33.6086 15.5217C33.5057 15.4604 33.4042 15.4037 33.296 15.3553C33.0756 15.2562 32.8458 15.1677 32.6093 15.1122C32.1084 14.9954 31.574 15.0131 31.089 15.1559C30.8045 15.2397 30.5467 15.399 30.2875 15.5335C30.2688 15.543 30.2554 15.5194 30.2674 15.5064Z" fill="#282828"/>
<path d="M18.6202 17.601C18.5861 17.5653 18.2754 17.5232 17.6525 18.182C17.0311 18.8408 17.3743 19.6068 17.885 19.7836C18.3958 19.9605 18.8918 19.5045 18.7145 18.9706C18.5373 18.4368 18.4966 18.0165 18.63 17.8071C18.7633 17.5994 18.6202 17.601 18.6202 17.601Z" fill="url(#paint11_linear_413_3312)"/>
<path d="M18.0102 18.7809C17.9972 19.1784 18.1078 19.537 18.2331 19.8113C18.5909 19.7431 18.8511 19.3813 18.7145 18.9723C18.5372 18.4385 18.4965 18.0182 18.6299 17.8088C18.7096 17.6855 18.6901 17.6352 18.6624 17.6157C18.3746 17.864 18.0265 18.2697 18.0102 18.7809Z" fill="url(#paint12_linear_413_3312)"/>
<path d="M18.4055 17.5833C17.9647 17.7391 17.6118 17.9792 17.4036 18.4125C17.1889 18.8571 17.1596 19.4251 17.5776 19.761C17.9322 20.0466 18.4592 19.9736 18.7308 19.6068C19.1277 19.0713 18.5682 18.5212 18.5942 17.9679C18.5958 17.9241 18.5324 17.8948 18.5145 17.9435C18.4153 18.1983 18.4706 18.4433 18.5421 18.7013C18.6121 18.9561 18.7227 19.219 18.5535 19.4657C18.3779 19.7221 18.0119 19.7918 17.7549 19.6198C16.9693 19.0941 17.8249 17.9111 18.4234 17.6271C18.4478 17.6141 18.4332 17.5735 18.4055 17.5833Z" fill="#075489"/>
<path d="M18.1646 19.2174C18.2085 19.331 18.1516 19.4592 18.0377 19.5013C17.9239 19.5452 17.7954 19.4884 17.7531 19.3748C17.7092 19.2612 17.7661 19.133 17.88 19.0908C17.9938 19.0486 18.1207 19.1038 18.1646 19.2174Z" fill="#9FEDFF"/>
<path d="M17.7744 18.9497C17.7988 19.0113 17.7679 19.0811 17.7044 19.1055C17.6426 19.1298 17.5727 19.099 17.5483 19.0357C17.5239 18.974 17.5548 18.9042 17.6182 18.8799C17.68 18.8556 17.75 18.8864 17.7744 18.9497Z" fill="#9FEDFF"/>
<defs>
<linearGradient id="paint0_linear_413_3312" x1="23.2952" y1="23.3372" x2="8.85116" y2="23.3372" gradientUnits="userSpaceOnUse">
<stop stop-color="#A0B71D"/>
<stop offset="1" stop-color="#69991D"/>
</linearGradient>
<linearGradient id="paint1_linear_413_3312" x1="23.2953" y1="23.3372" x2="8.8512" y2="23.3372" gradientUnits="userSpaceOnUse">
<stop stop-color="#556180"/>
<stop offset="1" stop-color="#172752"/>
</linearGradient>
<linearGradient id="paint2_linear_413_3312" x1="18.3148" y1="23.356" x2="39.2102" y2="23.356" gradientUnits="userSpaceOnUse">
<stop stop-color="#1A2954"/>
<stop offset="1" stop-color="#596482"/>
</linearGradient>
<linearGradient id="paint3_linear_413_3312" x1="29.6843" y1="23.3325" x2="13.3789" y2="23.3325" gradientUnits="userSpaceOnUse">
<stop stop-color="#26355D"/>
<stop offset="1" stop-color="#596482"/>
</linearGradient>
<linearGradient id="paint4_linear_413_3312" x1="25.0821" y1="23.3325" x2="11.9753" y2="23.3325" gradientUnits="userSpaceOnUse">
<stop stop-color="#596482"/>
<stop offset="1" stop-color="#22325A"/>
</linearGradient>
<linearGradient id="paint5_linear_413_3312" x1="24.5926" y1="23.4616" x2="36.3999" y2="23.4616" gradientUnits="userSpaceOnUse">
<stop stop-color="#F5C31C"/>
<stop offset="1" stop-color="#FFE92C"/>
</linearGradient>
<linearGradient id="paint6_linear_413_3312" x1="32.6063" y1="23.3988" x2="40.3029" y2="23.3988" gradientUnits="userSpaceOnUse">
<stop stop-color="#F5C31C"/>
<stop offset="1" stop-color="#FFE92C"/>
</linearGradient>
<linearGradient id="paint7_linear_413_3312" x1="30.2678" y1="23.8459" x2="42.1235" y2="23.8459" gradientUnits="userSpaceOnUse">
<stop stop-color="#F5C31C"/>
<stop offset="1" stop-color="#FFE92C"/>
</linearGradient>
<linearGradient id="paint8_linear_413_3312" x1="30.0548" y1="23.4405" x2="15.7224" y2="23.4405" gradientUnits="userSpaceOnUse">
<stop stop-color="#F5C31C"/>
<stop offset="1" stop-color="#F0A723"/>
</linearGradient>
<linearGradient id="paint9_linear_413_3312" x1="30.0548" y1="23.4407" x2="15.7224" y2="23.4407" gradientUnits="userSpaceOnUse">
<stop stop-color="#F5C31C"/>
<stop offset="1" stop-color="#D4941E"/>
</linearGradient>
<linearGradient id="paint10_linear_413_3312" x1="28.9042" y1="26.1873" x2="24.4591" y2="26.8932" gradientUnits="userSpaceOnUse">
<stop stop-color="#C15C4C"/>
<stop offset="1" stop-color="#B23D29"/>
</linearGradient>
<linearGradient id="paint11_linear_413_3312" x1="17.3136" y1="19.1037" x2="18.9971" y2="18.454" gradientUnits="userSpaceOnUse">
<stop stop-color="#4DC2E2"/>
<stop offset="1" stop-color="#1BA3C9"/>
</linearGradient>
<linearGradient id="paint12_linear_413_3312" x1="17.3304" y1="19.1472" x2="19.0138" y2="18.4975" gradientUnits="userSpaceOnUse">
<stop stop-color="#00B1DA"/>
<stop offset="1" stop-color="#0089BC"/>
</linearGradient>
</defs>
</svg>
