<svg width="16" height="11" viewBox="0 0 16 11" fill="none" xmlns="http://www.w3.org/2000/svg">
<path d="M15.9033 5.08177C14.397 2.05076 11.4147 0 8 0C4.58527 0 1.60221 2.05219 0.0966517 5.08206C0.0331076 5.21168 0 5.3549 0 5.50014C0 5.64539 0.0331076 5.7886 0.0966517 5.91823C1.60304 8.94925 4.58527 11 8 11C11.4147 11 14.3978 8.94781 15.9033 5.91794C15.9669 5.78832 16 5.6451 16 5.49986C16 5.35461 15.9669 5.2114 15.9033 5.08177ZM8 9.625C7.20887 9.625 6.43551 9.38307 5.77771 8.92981C5.11992 8.47655 4.60723 7.83231 4.30447 7.07857C4.00172 6.32482 3.92251 5.49542 4.07685 4.69525C4.23119 3.89508 4.61216 3.16008 5.17157 2.58318C5.73098 2.00629 6.44371 1.61342 7.21964 1.45426C7.99556 1.2951 8.79983 1.37679 9.53074 1.689C10.2616 2.00121 10.8864 2.52992 11.3259 3.20827C11.7654 3.88663 12 4.68415 12 5.5C12.0003 6.04178 11.897 6.57829 11.696 7.07888C11.4951 7.57947 11.2005 8.03431 10.829 8.4174C10.4575 8.8005 10.0165 9.10433 9.53104 9.31154C9.04562 9.51875 8.52536 9.62526 8 9.625ZM8 2.75C7.76198 2.75343 7.5255 2.78995 7.29694 2.85857C7.48534 3.12259 7.57574 3.44749 7.55177 3.77436C7.52779 4.10122 7.39101 4.40841 7.16625 4.6402C6.94148 4.87198 6.64361 5.01303 6.32665 5.03776C6.00969 5.06249 5.69463 4.96926 5.43861 4.77497C5.29282 5.32887 5.31914 5.91596 5.51385 6.45362C5.70857 6.99128 6.06188 7.45244 6.52406 7.77218C6.98623 8.09192 7.534 8.25414 8.09027 8.23602C8.64653 8.2179 9.18328 8.02034 9.62497 7.67116C10.0667 7.32197 10.391 6.83874 10.5525 6.28948C10.7139 5.74021 10.7042 5.15258 10.5248 4.60928C10.3454 4.06598 10.0053 3.59438 9.5524 3.26084C9.09948 2.92731 8.55654 2.74865 8 2.75Z" fill="#8F8F8F"/>
</svg>
