<svg width="24" height="24" viewBox="0 0 24 24" fill="none" xmlns="http://www.w3.org/2000/svg">
<path d="M0 12C0 5.37251 5.37251 0 12 0C18.6275 0 24 5.37251 24 12C24 18.6275 18.6275 24 12 24C5.37251 24 0 18.6275 0 12Z" fill="white"/>
<path d="M8.4656 9.08857C8.4656 9.91199 8.06982 10.5792 7.58153 10.5792C7.09324 10.5792 6.69702 9.91199 6.69702 9.08857C6.69702 8.26515 7.09324 7.59839 7.58153 7.59839C8.06982 7.59839 8.4656 8.26559 8.4656 9.08857Z" fill="#A5EB62"/>
<path d="M17.3053 9.08857C17.3053 9.91199 16.9091 10.5792 16.4208 10.5792C15.9325 10.5792 15.5367 9.91199 15.5367 9.08857C15.5367 8.26515 15.9325 7.59839 16.4208 7.59839C16.9091 7.59839 17.3053 8.26559 17.3053 9.08857Z" fill="#A5EB62"/>
<path d="M3.93652 13.1345C4.39383 17.1844 7.82845 20.3319 12.0001 20.3319C16.1717 20.3319 19.6063 17.1844 20.0637 13.1345H3.93652Z" fill="#A5EB62"/>
</svg>
