<svg width="16" height="15" viewBox="0 0 16 15" fill="none" xmlns="http://www.w3.org/2000/svg">
<path fill-rule="evenodd" clip-rule="evenodd" d="M13.8182 1.45455H2.18182C1.98893 1.45455 1.80395 1.53117 1.66756 1.66756C1.53117 1.80395 1.45455 1.98893 1.45455 2.18182V12.3636C1.45455 12.5565 1.53117 12.7415 1.66756 12.8779C1.80395 13.0143 1.98893 13.0909 2.18182 13.0909H13.8182C14.0111 13.0909 14.1961 13.0143 14.3324 12.8779C14.4688 12.7415 14.5455 12.5565 14.5455 12.3636V2.18182C14.5455 1.98893 14.4688 1.80395 14.3324 1.66756C14.1961 1.53117 14.0111 1.45455 13.8182 1.45455ZM2.18182 0C1.60316 0 1.04821 0.22987 0.63904 0.63904C0.229869 1.04821 0 1.60316 0 2.18182V12.3636C0 12.9423 0.229869 13.4972 0.63904 13.9064C1.04821 14.3156 1.60316 14.5455 2.18182 14.5455H13.8182C14.3968 14.5455 14.9518 14.3156 15.361 13.9064C15.7701 13.4972 16 12.9423 16 12.3636V2.18182C16 1.60316 15.7701 1.04821 15.361 0.63904C14.9518 0.22987 14.3968 0 13.8182 0H2.18182ZM3.63636 3.63636H5.09091V5.09091H3.63636V3.63636ZM7.27273 3.63636C7.07984 3.63636 6.89486 3.71299 6.75847 3.84938C6.62208 3.98577 6.54545 4.17075 6.54545 4.36364C6.54545 4.55652 6.62208 4.74151 6.75847 4.8779C6.89486 5.01429 7.07984 5.09091 7.27273 5.09091H11.6364C11.8292 5.09091 12.0142 5.01429 12.1506 4.8779C12.287 4.74151 12.3636 4.55652 12.3636 4.36364C12.3636 4.17075 12.287 3.98577 12.1506 3.84938C12.0142 3.71299 11.8292 3.63636 11.6364 3.63636H7.27273ZM5.09091 6.54546H3.63636V8H5.09091V6.54546ZM6.54545 7.27273C6.54545 7.07984 6.62208 6.89486 6.75847 6.75847C6.89486 6.62208 7.07984 6.54546 7.27273 6.54546H11.6364C11.8292 6.54546 12.0142 6.62208 12.1506 6.75847C12.287 6.89486 12.3636 7.07984 12.3636 7.27273C12.3636 7.46561 12.287 7.6506 12.1506 7.78699C12.0142 7.92338 11.8292 8 11.6364 8H7.27273C7.07984 8 6.89486 7.92338 6.75847 7.78699C6.62208 7.6506 6.54545 7.46561 6.54545 7.27273ZM5.09091 9.45455H3.63636V10.9091H5.09091V9.45455ZM6.54545 10.1818C6.54545 9.98893 6.62208 9.80395 6.75847 9.66756C6.89486 9.53117 7.07984 9.45455 7.27273 9.45455H11.6364C11.8292 9.45455 12.0142 9.53117 12.1506 9.66756C12.287 9.80395 12.3636 9.98893 12.3636 10.1818C12.3636 10.3747 12.287 10.5597 12.1506 10.6961C12.0142 10.8325 11.8292 10.9091 11.6364 10.9091H7.27273C7.07984 10.9091 6.89486 10.8325 6.75847 10.6961C6.62208 10.5597 6.54545 10.3747 6.54545 10.1818Z" fill="white"/>
</svg>
