<svg width="41" height="34" viewBox="0 0 41 34" fill="none" xmlns="http://www.w3.org/2000/svg">
<path d="M33.7557 33.2113C33.5252 33.3751 33.3729 33.1444 33.2519 32.9762C33.0917 33.108 32.8855 33.2916 32.7047 33.0744C32.5403 32.8466 32.7738 32.6889 32.9398 32.5706C32.8074 32.4102 32.625 32.2026 32.8417 32.0235C33.0718 31.8598 33.2244 32.0902 33.3454 32.2586C33.5057 32.1268 33.7118 31.9433 33.8926 32.1604C34.0563 32.3906 33.8259 32.5431 33.6575 32.6642C33.7893 32.8244 33.9728 33.0308 33.7557 33.2113Z" fill="#A13B08"/>
<path d="M38.5337 16.2189C38.7206 16.2189 38.8721 16.0674 38.8721 15.8805C38.8721 15.6936 38.7206 15.5421 38.5337 15.5421C38.3468 15.5421 38.1953 15.6936 38.1953 15.8805C38.1953 16.0674 38.3468 16.2189 38.5337 16.2189Z" fill="#A13B08"/>
<path d="M30.0825 5.2285C30.4298 5.5303 30.4666 6.05833 30.1648 6.40537C29.863 6.75242 29.335 6.7895 28.988 6.4877C28.6409 6.18591 28.6038 5.65788 28.9056 5.31083C29.2074 4.96379 29.7352 4.9267 30.0825 5.2285ZM29.8266 5.52284C29.6417 5.36214 29.3607 5.38173 29.2 5.56668C29.0393 5.75163 29.0589 6.03267 29.2438 6.19337C29.4288 6.35406 29.7098 6.33447 29.8705 6.14952C30.0312 5.9648 30.0116 5.68376 29.8266 5.52284Z" fill="#A13B08"/>
<path d="M7.11388 31.6119C7.41568 31.959 7.37883 32.487 7.03155 32.7888C6.68427 33.0906 6.15648 33.0538 5.85468 32.7065C5.55288 32.3592 5.58973 31.8314 5.93701 31.5296C6.28405 31.2278 6.81208 31.2647 7.11388 31.6119ZM6.14901 32.4506C6.30971 32.6356 6.59098 32.6552 6.7757 32.4945C6.96065 32.3338 6.98024 32.0525 6.81955 31.8678C6.65885 31.6828 6.37758 31.6632 6.19286 31.8239C6.00791 31.9846 5.98832 32.2659 6.14901 32.4506Z" fill="#A13B08"/>
<path d="M3.17948 16.1972C3.36638 16.1972 3.51789 16.0457 3.51789 15.8588C3.51789 15.6719 3.36638 15.5204 3.17948 15.5204C2.99258 15.5204 2.84106 15.6719 2.84106 15.8588C2.84106 16.0457 2.99258 16.1972 3.17948 16.1972Z" fill="#A13B08"/>
<path d="M11.507 6.45571C11.7374 6.61943 11.8897 6.38877 12.0107 6.22061C12.171 6.35239 12.3771 6.53594 12.5579 6.3188C12.7223 6.09094 12.4888 5.93328 12.3228 5.81503C12.4553 5.65457 12.6376 5.44699 12.421 5.26787C12.1908 5.10415 12.0382 5.33458 11.9172 5.50297C11.757 5.37119 11.5508 5.18764 11.37 5.40478C11.2063 5.63498 11.4367 5.78751 11.6051 5.90855C11.4734 6.06855 11.2896 6.27496 11.507 6.45571Z" fill="#A13B08"/>
<path d="M40.2451 25.9269C39.7723 27.9591 33.8808 25.0788 33.8808 25.0788C33.518 24.9287 33.2349 24.6429 33.0685 24.3045C30.2877 23.2471 29.1743 22.4628 26.8695 20.0311C24.1273 17.0754 28.6944 12.9929 30.7686 16.5413C32.0014 18.8483 32.2782 19.9566 33.8497 21.3448C34.5172 20.2674 36.6017 18.9518 37.1326 20.2121C37.2811 20.5643 36.7837 20.7372 36.3263 20.9783C36.6398 21.1012 36.9097 21.3038 37.0963 21.5767C37.2242 21.506 37.3339 21.4638 37.521 21.3594C37.8533 21.1558 37.2855 20.8474 37.2506 20.5532C37.1056 19.325 39.3358 20.6182 38.92 21.7026C38.7394 22.1742 38.4107 22.5087 38.0388 22.7266L38.9467 22.434C39.6926 22.1929 40.6098 22.473 40.7315 23.2003" fill="#FCBD41"/>
<path d="M35.8027 24.8125C35.8188 24.7889 35.8335 24.7648 35.849 24.741L35.8932 24.6688C35.9227 24.6206 35.9508 24.5719 35.979 24.523C36.0347 24.4252 36.0882 24.3262 36.1391 24.2255C36.2404 24.0241 36.3304 23.8149 36.3958 23.5962C36.4617 23.378 36.5005 23.1491 36.4986 22.9192C36.4962 22.6898 36.4507 22.457 36.3446 22.2495C36.3309 22.2225 36.2956 22.2108 36.2658 22.2232C36.2415 22.2334 36.2283 22.257 36.2321 22.2801L36.2324 22.2809C36.268 22.4928 36.2736 22.702 36.2519 22.9104C36.2302 23.1187 36.1847 23.3242 36.1225 23.5286C36.0607 23.7329 35.9856 23.9365 35.9085 24.1423C35.8319 24.3481 35.7539 24.5571 35.6942 24.7717C35.6862 24.8006 35.7055 24.8298 35.7371 24.8371C35.7628 24.8429 35.7888 24.8327 35.8022 24.8133L35.8027 24.8125Z" fill="#A13B08"/>
<path opacity="0.35" d="M40.7263 23.2449C40.8402 24.8781 39.0164 24.5418 38.0222 24.6369C40.7521 24.5208 41.3905 21.8757 37.5971 23.5182C36.9642 23.7921 36.5482 23.1758 36.9426 22.8144C37.3375 22.4532 38.7445 21.6033 38.5785 21.3495C38.4128 21.0956 38.4591 20.9176 37.8846 21.5038C37.2491 22.1521 36.8059 21.9133 36.1136 21.2112C35.4212 20.5093 37.135 20.5035 36.667 20.0145C36.3111 19.6428 33.0941 22.1123 33.0715 22.1296C33.0748 22.1221 35.7596 18.2683 37.1278 20.0835C37.3665 20.4003 36.779 20.6391 36.3216 20.8941C36.6351 21.0241 36.9049 21.2385 37.0916 21.5272C37.2194 21.4524 37.3858 21.416 37.5162 21.2973C37.8365 21.0058 37.2808 20.7556 37.2459 20.4444C37.1483 18.8668 40.5083 21.1997 38.034 22.7437C38.3977 22.6354 39.121 22.3157 39.4973 22.3435C40.0964 22.3472 40.6533 22.4662 40.7263 23.2449Z" fill="#A13B08"/>
<path opacity="0.35" fill-rule="evenodd" clip-rule="evenodd" d="M34.2541 23.9231C33.6449 23.1187 32.9233 22.3715 32.3003 21.9775C31.9913 21.7822 31.8469 21.4071 31.9386 21.0527C32.0999 20.4283 32.1803 19.9427 32.0958 19.1797C31.7073 18.4671 31.34 17.643 30.7635 16.5534C28.6915 12.9737 24.1293 17.0923 26.8686 20.0741C29.1707 22.5273 30.2831 23.3182 33.0609 24.3852C33.2272 24.7263 33.51 25.0149 33.8724 25.1661C33.8724 25.1661 39.2015 27.5684 39.7237 26.6416C38.8047 26.3561 37.6412 25.9865 36.6301 25.6403C35.6851 25.317 34.8573 24.7198 34.2541 23.9231Z" fill="#A13B08"/>
<path d="M26.5563 20.1798C28.9693 22.7195 30.144 23.5209 32.9771 24.5875C33.3061 25.2041 34.8622 25.6131 36.1649 26.0981C37.1696 26.4722 39.0439 27.2252 39.8826 26.638C40.7899 26.1139 40.5023 25.0431 39.6534 24.5938C41.8861 24.0369 40.9318 21.5389 38.8266 22.184C39.1567 21.7219 39.2303 21.2865 39.0446 20.8871C38.7969 20.2828 37.7948 19.4687 37.1975 19.9018C36.6493 18.9964 35.259 19.3726 33.7971 20.8876C32.4149 19.6077 30.9169 16.283 30.9169 16.283C30.4985 15.2389 29.2768 14.6392 28.2501 14.7805C26.1318 15.0726 24.5076 17.9898 26.5563 20.1798Z" fill="#A13B08"/>
<path d="M37.3007 21.2882C36.9094 21.5078 37.2238 21.44 36.7002 21.0411C36.8184 20.9707 36.9351 20.8961 37.0333 20.807C37.1146 20.9751 37.3382 21.2017 37.3007 21.2882Z" fill="#A13B08"/>
<path d="M40.515 23.2151C40.6451 23.9986 39.9008 24.3278 39.5098 24.3574C38.52 24.4328 37.4672 24.1072 37.058 24.4942C36.994 24.5646 37.0192 24.6595 37.0596 24.729C37.1362 24.8601 37.1923 24.8248 37.9999 24.8137C39.6618 24.8441 39.9944 25.4928 40.0372 25.9347C40.0741 26.3164 39.6165 26.5561 39.2415 26.622C38.641 26.7275 38.3437 26.5801 36.4365 25.918C33.8759 25.0287 33.2624 24.9965 33.0349 23.7187C32.9999 23.5221 32.7523 23.5788 32.7521 23.737C32.7521 23.7973 32.7535 23.8727 32.7612 23.9586C30.326 22.9881 29.2087 22.1836 26.9888 19.803C25.2778 17.9267 26.7221 15.6162 28.3536 15.3874C30.8577 15.0358 30.7709 18.8593 33.3845 21.3842C33.2831 21.4659 32.995 21.8671 32.9092 22.115C32.8653 22.2417 33.0379 22.3585 33.1204 22.2226C33.2313 22.0402 34.7589 20.5943 35.0738 20.3803C35.3543 20.2034 35.7683 19.9614 36.1287 19.8983C36.5019 19.8329 36.9186 19.8865 36.9338 20.3362C36.9429 20.607 36.5788 20.6155 36.1864 20.8224C36.0624 20.8867 36.0493 21.1156 36.2182 21.1853C36.9545 21.4791 36.8438 21.9674 37.1671 21.7857C37.5739 21.557 38.1038 21.472 37.5725 20.7673C37.5099 20.6842 37.4506 20.6056 37.4247 20.5314C37.3385 20.3282 37.5139 20.2614 37.5517 20.2548C37.9567 20.1837 38.9904 21.1054 38.7127 21.658C38.1211 22.9721 37.1738 22.5688 37.1344 22.997C37.1164 23.1969 37.2416 23.2789 37.4434 23.2433C37.7542 23.1887 38.6412 22.597 39.4846 22.5996C39.9428 22.6024 40.4213 22.6521 40.515 23.2151Z" fill="#A13B08"/>
<path d="M1.66154 24.5192C3.3289 24.544 3.13415 24.5255 2.33301 24.5745C0.603851 24.6088 0.634171 25.6583 0.704839 25.9653C1.17923 28.0214 7.09088 25.1072 7.09088 25.1072C7.45495 24.9554 7.73902 24.6662 7.90601 24.3238C10.6964 23.254 11.8135 22.4605 14.1262 20.0002C16.8779 17.0097 12.2951 12.8793 10.2138 16.4693C8.97677 18.8035 8.69899 19.9249 7.12213 21.3294C6.4523 20.2393 4.3607 18.9082 3.82801 20.1833C3.67897 20.5397 4.17808 20.7146 4.63708 20.9585C4.32245 21.0828 4.05167 21.2879 3.86439 21.564C3.73612 21.4924 3.62603 21.4497 3.43828 21.3441C3.10476 21.1381 3.67454 20.8261 3.70953 20.5285C3.85506 19.2858 1.61723 20.5942 2.03448 21.6913C2.2157 22.1685 2.54548 22.5069 2.91865 22.7273L2.00766 22.4314C1.25922 22.1874 0.338903 22.4708 0.216691 23.2066C0.0993771 23.9154 0.836147 24.5073 1.66154 24.5192Z" fill="#FCBD41"/>
<path d="M5.01639 24.7231C5.00239 24.7005 4.98956 24.6774 4.97604 24.6545L4.93755 24.5852C4.9119 24.5391 4.88741 24.4924 4.86292 24.4455C4.81441 24.3518 4.76776 24.2569 4.72345 24.1603C4.63529 23.9672 4.55692 23.7666 4.50002 23.5569C4.44264 23.3477 4.40882 23.1283 4.41046 22.9079C4.41256 22.6879 4.4522 22.4647 4.54456 22.2658C4.55646 22.2399 4.58724 22.2287 4.61313 22.2406C4.63436 22.2504 4.64578 22.273 4.64252 22.2952L4.64229 22.2959C4.61127 22.499 4.60637 22.6996 4.62526 22.8995C4.64415 23.0991 4.6838 23.2962 4.73791 23.4921C4.79179 23.688 4.85709 23.8832 4.92426 24.0805C4.99096 24.2778 5.05883 24.4782 5.11084 24.6839C5.11784 24.7117 5.10105 24.7396 5.07353 24.7466C5.05114 24.7522 5.02851 24.7424 5.01685 24.7238L5.01639 24.7231Z" fill="#A13B08"/>
<path opacity="0.35" d="M0.21678 23.2067C0.102498 24.7687 1.93265 24.447 2.9304 24.538C0.190892 24.427 -0.449788 21.8974 3.35697 23.4682C3.99206 23.7301 4.40954 23.1407 4.01375 22.7951C3.61749 22.4497 2.20552 21.6369 2.37205 21.3941C2.53834 21.1513 2.49193 20.981 3.06847 21.5417C3.70612 22.1616 4.15089 21.9333 4.84567 21.2618C5.54046 20.5906 3.82063 20.585 4.29036 20.1174C4.64743 19.7619 7.87578 22.1236 7.89841 22.1402C7.89514 22.1329 5.20088 18.4475 3.82786 20.1834C3.58834 20.4863 4.17794 20.7147 4.63693 20.9586C4.32231 21.0829 4.05153 21.288 3.86425 21.5641C3.73597 21.4925 3.56898 21.4577 3.43814 21.3442C3.11675 21.0655 3.6744 20.8262 3.70938 20.5286C3.80734 19.0198 0.435549 21.2509 2.9185 22.7274C2.5535 22.6239 1.82769 22.3181 1.45009 22.3447C0.848831 22.3482 0.289781 22.462 0.21678 23.2067Z" fill="#FEFEFE"/>
<path opacity="0.35" fill-rule="evenodd" clip-rule="evenodd" d="M6.70682 23.8604C7.31881 23.0536 8.04369 22.3043 8.66944 21.9092C8.97987 21.7133 9.12494 21.3371 9.03281 20.9816C8.87072 20.3554 8.79002 19.8684 8.87492 19.1032C9.26511 18.3886 9.63408 17.562 10.2132 16.4693C12.2945 12.8793 16.8772 17.0097 14.1256 20.0002C11.8131 22.4605 10.6957 23.2537 7.90538 24.3238C7.73839 24.6659 7.45432 24.9554 7.09025 25.107C7.09025 25.107 1.73718 27.5162 1.21265 26.5868C2.13577 26.3004 3.30448 25.9298 4.32019 25.5825C5.26943 25.2583 6.10066 24.6594 6.70682 23.8604Z" fill="#A13B08"/>
<path d="M12.6339 14.7877C11.6112 14.6454 10.3944 15.2493 9.97744 16.3007C9.97744 16.3007 8.48524 19.6484 7.10849 20.9373C5.65221 19.4117 4.26729 19.0329 3.7213 19.9446C3.12634 19.5085 2.12812 20.3285 1.88136 20.9368C1.69641 21.3386 1.76964 21.7773 2.0985 22.2426C0.00153597 21.5931 -0.949338 24.1085 1.27497 24.6691C0.429278 25.1216 0.142873 26.1998 1.04663 26.7276C1.88206 27.3189 3.74906 26.5606 4.74984 26.184C6.04753 25.6956 7.59757 25.2837 7.92525 24.6628C10.7473 23.5886 11.9172 22.7816 14.3211 20.2245C16.3614 18.0191 14.7435 15.0816 12.6339 14.7877ZM3.84911 20.7497C3.95103 20.83 4.07208 20.8971 4.19476 20.9606C3.65157 21.3197 3.97762 21.3809 3.57157 21.1831C3.53286 21.1052 3.76492 20.9011 3.84911 20.7497ZM13.9302 19.7772C11.7131 22.1353 10.5976 22.9323 8.16571 23.8937C8.17341 23.8085 8.17481 23.7337 8.17481 23.6742C8.17458 23.5172 7.92735 23.4613 7.89237 23.656C7.66544 24.9217 7.05275 24.9537 4.49539 25.8346C2.59108 26.4907 2.29394 26.6364 1.69431 26.5319C1.31975 26.4666 0.86285 26.2292 0.899701 25.8511C0.942382 25.4136 1.2745 24.7711 2.93416 24.7407C3.74066 24.7517 3.79664 24.7867 3.87314 24.6568C3.91372 24.588 3.93867 24.494 3.87477 24.4243C3.46615 24.0408 2.41476 24.3634 1.42633 24.2887C1.03614 24.2594 0.292606 23.9333 0.422514 23.1571C0.515806 22.5992 0.993692 22.5503 1.45129 22.5475C2.29324 22.5449 3.17905 23.1312 3.48971 23.1851C3.69122 23.2201 3.81623 23.1389 3.79827 22.9412C3.75885 22.5169 2.81288 22.9164 2.22211 21.6148C1.94457 21.0674 2.97707 20.1543 3.38149 20.2247C3.41927 20.2313 3.59443 20.2975 3.50837 20.4988C3.48248 20.5722 3.42324 20.6499 3.36073 20.7325C2.83014 21.4305 3.3591 21.515 3.76562 21.7412C4.08841 21.921 3.97786 21.4375 4.71323 21.1465C4.88185 21.0774 4.86879 20.8507 4.74495 20.7871C4.35312 20.582 3.98975 20.5736 3.99861 20.3054C4.01377 19.86 4.42985 19.8068 4.80255 19.8716C5.16243 19.9344 5.57594 20.1739 5.85605 20.349C6.17044 20.5608 7.69599 21.9933 7.80678 22.1741C7.8891 22.3084 8.06146 22.193 8.01761 22.0675C7.93202 21.8219 7.64421 21.4247 7.54299 21.3435C10.1531 18.8424 10.0663 15.055 12.567 15.4032C14.1963 15.6299 15.6388 17.9186 13.9302 19.7772Z" fill="#A13B08"/>
<path d="M20.4735 1.0531C19.3045 1.0531 18.3569 2.04578 18.3569 3.27042C18.3569 4.49506 19.3045 5.48774 20.4735 5.48774C21.6424 5.48774 22.59 4.49506 22.59 3.27042C22.59 2.04578 21.6424 1.0531 20.4735 1.0531Z" fill="#F6AF18"/>
<path d="M20.4735 4.2782C20.9745 4.2782 21.3806 3.82696 21.3806 3.27032C21.3806 2.71369 20.9745 2.26245 20.4735 2.26245C19.9725 2.26245 19.5664 2.71369 19.5664 3.27032C19.5664 3.82696 19.9725 4.2782 20.4735 4.2782Z" fill="#F6AF18"/>
<path opacity="0.35" d="M20.511 1.0531C19.3213 1.0531 18.3569 2.03156 18.3569 3.23864C18.3569 4.0151 18.756 4.69682 19.3574 5.08459C19.025 4.70007 18.8234 4.19601 18.8234 3.64424C18.8234 2.43716 19.7877 1.45871 20.9774 1.45871" fill="#FBE69F"/>
<path opacity="0.35" d="M21.3841 1.25452C21.7418 1.65309 21.9613 2.19135 21.9613 2.78403C21.9613 4.01155 21.02 5.00656 19.8587 5.00656C19.5378 5.00656 19.2338 4.93048 18.9617 4.79456C19.3448 5.2214 19.8865 5.48758 20.4874 5.48758C21.6487 5.48758 22.59 4.49257 22.59 3.26505C22.59 2.37674 22.0968 1.61022 21.3841 1.25452Z" fill="#EE6723"/>
<path d="M20.4732 4.47969C19.8617 4.47969 19.3645 3.93701 19.3645 3.27024C19.3645 2.60347 19.862 2.06079 20.4732 2.06079C21.0846 2.06079 21.5818 2.60347 21.5818 3.27024C21.5818 3.93701 21.0846 4.47969 20.4732 4.47969ZM20.4732 2.42003C20.0434 2.42003 19.6938 2.80143 19.6938 3.27024C19.6938 3.73905 20.0434 4.12045 20.4732 4.12045C20.9029 4.12045 21.2525 3.73905 21.2525 3.27024C21.2525 2.80143 20.9029 2.42003 20.4732 2.42003Z" fill="#A13B08"/>
<path d="M20.4733 0.851318C21.8628 0.851318 22.993 1.93654 22.993 3.27021C22.993 4.60389 21.8625 5.68911 20.4733 5.68911C19.0838 5.68911 17.9536 4.60389 17.9536 3.27021C17.9536 1.93654 19.0841 0.851318 20.4733 0.851318Z" fill="#A13B08"/>
<path d="M20.4733 1.25452C19.4173 1.25452 18.5583 2.11367 18.5583 3.16948C18.5583 4.22528 19.4175 5.08443 20.4733 5.08443C21.5293 5.08443 22.3883 4.22528 22.3883 3.16948C22.3883 2.11367 21.5293 1.25452 20.4733 1.25452Z" fill="#A13B08"/>
<path d="M18.6963 29.1961C19.1063 29.9949 19.938 30.5414 20.8977 30.5414C21.8572 30.5414 22.6892 29.9949 23.0992 29.1961C21.6319 29.1399 20.1633 29.1399 18.6963 29.1961Z" fill="#F69021"/>
<path d="M18.6963 29.1962C18.7991 29.3968 18.9288 29.5815 19.0802 29.7454C19.7845 29.7384 20.4889 29.7438 21.193 29.7627C21.5018 29.7709 21.6578 30.1415 21.4444 30.3649C21.3964 30.4153 21.3458 30.4635 21.2938 30.5097C22.0828 30.3826 22.7468 29.8828 23.0992 29.1964C21.6319 29.14 20.1633 29.14 18.6963 29.1962Z" fill="#EE6723"/>
<path d="M29.2792 29.9762C23.4144 28.8798 17.422 28.8798 11.5573 29.9762C10.118 30.2435 8.69228 29.2754 8.36039 27.7186C8.02851 26.1643 9.05518 24.5742 10.6675 24.2738C17.1212 23.0673 23.7152 23.0673 30.1687 24.2738C31.781 24.5742 32.8077 26.1643 32.4758 27.7186C32.1441 29.2754 30.7184 30.2435 29.2792 29.9762Z" fill="#F6AF18"/>
<path opacity="0.35" d="M30.1688 24.2736C23.7152 23.0672 17.1211 23.0672 10.6676 24.2736C9.7072 24.4525 8.9548 25.0892 8.57324 25.9032C8.88414 25.6977 9.24051 25.5489 9.6314 25.4759C16.0851 24.2694 22.6792 24.2694 29.1326 25.4759C30.7449 25.7763 31.7716 27.3665 31.4397 28.9207C31.3898 29.1547 31.3152 29.3753 31.2195 29.5805C31.8334 29.1805 32.3031 28.5294 32.4759 27.7184C32.8078 26.164 31.7809 24.574 30.1688 24.2736Z" fill="#FBE69F"/>
<path opacity="0.35" d="M29.6315 29.1137C23.7667 28.0173 17.7744 28.0173 11.9096 29.1137C10.4704 29.381 9.04462 28.4128 8.71274 26.856C8.62365 26.4383 8.63274 26.018 8.72463 25.6208C8.35193 26.2333 8.20267 26.9796 8.36033 27.7183C8.69222 29.2751 10.1179 30.2432 11.5572 29.9759C17.422 28.8795 23.4143 28.8795 29.2791 29.9759C30.6936 30.2385 32.0951 29.308 32.4578 27.7978C31.8633 28.7816 30.7515 29.3217 29.6315 29.1137Z" fill="#EE6723"/>
<path d="M10.174 24.4119C10.3312 24.3524 10.4961 24.3057 10.6675 24.2738C17.1212 23.0673 23.7153 23.0673 30.1687 24.2738C30.3749 24.3123 30.5715 24.372 30.7569 24.4496L31.0809 17.2452C31.3642 10.9431 26.6183 5.58167 20.4664 5.58167C14.3145 5.58167 9.56853 10.9429 9.8519 17.2452L10.174 24.4119Z" fill="#FCBD41"/>
<path opacity="0.35" d="M12.5363 11.255C11.3092 13.6783 11.3358 16.6781 12.6055 19.0801C12.5013 17.1184 13.2805 15.1271 14.6948 13.7408C14.6925 14.2537 14.6901 14.7665 14.688 15.2792C15.8642 12.246 18.6385 9.86336 21.8519 9.12682C22.268 9.03143 22.7004 8.95819 23.0644 8.73803C23.4285 8.51809 23.7121 8.10411 23.6275 7.692C23.5365 7.24793 23.0749 6.98158 22.64 6.83231C18.805 5.65288 14.2603 7.70202 12.5363 11.255Z" fill="#FEFEFE"/>
<path opacity="0.35" d="M27.8309 8.67383C28.8634 10.4925 29.4134 12.6394 29.3115 14.9083L29.1503 18.4902C29.0561 20.5862 27.2241 22.1694 25.1355 21.9707C24.4927 21.9096 23.8492 21.8583 23.2053 21.8167C23.2121 21.7836 23.2155 21.7503 23.2155 21.7165C23.2155 21.1126 22.1264 20.6233 20.783 20.6233C19.4587 20.6233 18.3819 21.0989 18.3511 21.6906C15.5866 21.7244 12.8238 21.9387 10.0806 22.3343L10.1741 24.4116C10.3313 24.3522 10.4962 24.3055 10.6676 24.2736C17.1213 23.0671 23.7154 23.0671 30.1688 24.2736C30.375 24.3121 30.5716 24.3718 30.757 24.4494L31.081 17.245C31.2312 13.904 29.9678 10.8275 27.8309 8.67383Z" fill="#EE6723"/>
<path opacity="0.35" d="M20.4232 20.0605C21.1017 20.0605 21.6517 19.8134 21.6517 19.5085C21.6517 19.2036 21.1017 18.9564 20.4232 18.9564C19.7448 18.9564 19.1948 19.2036 19.1948 19.5085C19.1948 19.8134 19.7448 20.0605 20.4232 20.0605Z" fill="#EE6723"/>
<path opacity="0.35" d="M17.6397 20.6017C18.1319 20.6017 18.5309 20.4224 18.5309 20.2012C18.5309 19.9801 18.1319 19.8008 17.6397 19.8008C17.1475 19.8008 16.7485 19.9801 16.7485 20.2012C16.7485 20.4224 17.1475 20.6017 17.6397 20.6017Z" fill="#EE6723"/>
<path d="M32.2726 25.3667C31.9562 24.892 31.5314 24.5205 31.0372 24.277L31.3528 17.2571C31.4263 15.621 31.1748 14.0257 30.6055 12.5153C30.0537 11.0515 29.2339 9.74452 28.169 8.63062C26.1212 6.48888 23.3859 5.3092 20.4664 5.3092C17.547 5.3092 14.8115 6.48864 12.7638 8.63062C11.6988 9.74452 10.879 11.0515 10.3272 12.5153C9.75766 14.0257 9.50624 15.6212 9.57994 17.2571L9.89364 24.2327C9.35908 24.4741 8.90032 24.8622 8.564 25.3667C8.09054 26.0768 7.91935 26.9547 8.09451 27.775C8.2685 28.5906 8.72796 29.2935 9.38823 29.7544C10.0462 30.2134 10.8342 30.3871 11.6076 30.2435C13.9269 29.8099 16.2589 29.5484 18.5938 29.4589C19.0798 30.2654 19.9465 30.7589 20.8976 30.7589C21.831 30.7589 22.6827 30.2834 23.1735 29.5037C25.1972 29.621 27.2181 29.8677 29.2292 30.2437H29.2295C29.4065 30.2766 29.5842 30.2929 29.761 30.2929C30.3567 30.2929 30.9414 30.1087 31.4487 29.7546C32.1089 29.2938 32.5684 28.5908 32.7424 27.7752C32.9173 26.9547 32.7463 26.0768 32.2726 25.3667ZM13.1574 9.00681C15.1014 6.97352 17.6972 5.85379 20.4664 5.85379C23.2357 5.85379 25.8313 6.97352 27.7753 9.00681C29.841 11.1677 30.9467 14.1658 30.8089 17.2328L30.5013 24.0722C30.501 24.0722 30.501 24.0722 30.5008 24.0722C30.4787 24.0659 30.4565 24.0599 30.4341 24.0543C30.4294 24.0531 30.4245 24.0519 30.4199 24.0508C30.4015 24.0461 30.383 24.0414 30.3644 24.037C30.3541 24.0347 30.3438 24.0324 30.3336 24.03C30.3198 24.027 30.3063 24.0237 30.2925 24.0209C30.2678 24.0158 30.2433 24.0109 30.2184 24.0062C30.1174 23.9873 30.0166 23.9689 29.9156 23.9505C26.7843 23.3837 23.5905 23.0966 20.4179 23.0966C17.1429 23.0966 13.8455 23.4026 10.6173 24.0062C10.6171 24.0062 10.6169 24.0062 10.6166 24.0065C10.5873 24.0121 10.5579 24.0179 10.5287 24.0242C10.5222 24.0256 10.5157 24.0272 10.5089 24.0286C10.4846 24.034 10.4604 24.0396 10.4361 24.0456C10.434 24.0461 10.4317 24.0466 10.4296 24.0473L10.1231 17.2333C9.986 14.1658 11.0917 11.1677 13.1574 9.00681ZM20.8976 30.3232C20.186 30.3232 19.5309 29.9935 19.1085 29.4419C20.2921 29.4092 21.4763 29.4209 22.6594 29.4766C22.2363 30.0072 21.594 30.3232 20.8976 30.3232ZM32.2097 27.6614C31.9128 29.054 30.6473 29.9531 29.3288 29.7082C23.4162 28.6029 17.4199 28.6029 11.5076 29.7082C10.1891 29.9531 8.92364 29.054 8.62674 27.6614C8.48214 26.9839 8.62417 26.2576 9.0167 25.6687C9.32596 25.2048 9.75976 24.8596 10.2656 24.6677C10.2673 24.6672 10.2689 24.6667 10.2703 24.6663C10.3417 24.6392 10.4144 24.6154 10.4881 24.5947C10.4902 24.594 10.4923 24.5935 10.4944 24.5928C10.5103 24.5884 10.5262 24.5842 10.542 24.58C10.5474 24.5786 10.5527 24.5772 10.5583 24.5758C10.5716 24.5725 10.5852 24.569 10.5987 24.566C10.608 24.5639 10.6173 24.5618 10.6267 24.5597C10.6369 24.5574 10.647 24.555 10.6572 24.5529C10.6773 24.5487 10.6973 24.5448 10.7176 24.5408C17.1545 23.3373 23.6819 23.3373 30.119 24.5408C30.1416 24.545 30.1643 24.5494 30.1867 24.5543C30.1892 24.5548 30.1918 24.5555 30.1943 24.5562C30.2146 24.5606 30.2349 24.565 30.255 24.5699C30.2557 24.5702 30.2562 24.5702 30.2566 24.5704C30.3917 24.6033 30.5239 24.6467 30.6515 24.7001C30.6533 24.7008 30.6552 24.7015 30.6571 24.7022C31.1259 24.8997 31.528 25.2314 31.8195 25.6685C32.2122 26.2576 32.3545 26.9839 32.2097 27.6614Z" fill="#A13B08"/>
<path d="M21.727 27.6016C24.2797 26.2334 26.9873 25.1018 29.8103 24.2407C34.2076 23.0114 35.1528 30.3075 30.6028 30.3758C27.6459 30.2881 24.6267 30.5405 21.6225 31.1478C20.7223 31.2898 19.9843 30.8999 19.4901 30.2018C15.6889 24.8327 21.254 21.9584 21.727 27.6016Z" fill="#FCBD41"/>
<path opacity="0.35" d="M21.6226 30.0324C24.627 29.4253 27.6462 29.1727 30.6028 29.2604C32.4094 29.2333 33.3493 28.0667 33.5513 26.7469C33.8053 28.4455 32.9116 30.3409 30.6028 30.3757C27.646 30.288 24.6268 30.5403 21.6226 31.1477C20.7223 31.2897 19.9844 30.8997 19.4902 30.2017C18.6594 29.0283 18.0234 27.5958 18.234 26.1738C18.436 28.3963 19.4263 30.3787 21.6226 30.0324Z" fill="#A13B08"/>
<path opacity="0.35" d="M21.6504 28.4366C24.2031 27.0685 27.0217 25.9445 29.8447 25.0835C32.0039 24.4799 33.3307 25.9317 33.5833 27.5741C33.7221 25.6402 32.3355 23.5343 29.8101 24.2406C26.9871 25.1016 24.2796 26.2335 21.7269 27.6014C21.367 23.3067 17.7508 23.7664 18.2373 27.3155C18.4106 24.5074 21.3255 24.5615 21.6504 28.4366Z" fill="#FEFEFE"/>
<path d="M18.0942 27.8862C18.6329 29.6438 20.0395 31.685 21.2418 31.4896C24.3407 30.986 27.4779 30.5375 30.5948 30.6852C31.7994 30.7244 32.9569 30.0296 33.5314 28.9077C34.9776 26.2895 32.4417 22.9835 29.7295 23.9432C27.0052 24.7742 24.3592 25.866 21.8415 27.1951C21.751 25.9644 21.1257 24.2644 19.7093 24.2646C18.003 24.2905 17.6732 26.5129 18.0942 27.8862ZM21.7137 29.4423C21.7246 29.5939 21.9464 29.5755 21.9383 29.4264C21.9352 28.907 21.9254 28.3774 21.8928 27.8594C24.4585 26.4875 27.1626 25.3662 29.9476 24.5207C33.8982 23.4922 34.6649 30.0163 30.6102 30.066C24.2176 29.8766 22.4115 31.0607 20.791 30.8202C19.0525 30.4834 17.0843 25.9698 19.3571 24.8573C21.1691 24.0624 21.6232 27.4652 21.7137 29.4423Z" fill="#A13B08"/>
<path d="M19.1093 27.6017C16.5566 26.2336 13.8491 25.1019 11.0261 24.2409C6.62879 23.0115 5.68352 30.3076 10.2336 30.3759C13.1905 30.2882 16.2096 30.5406 19.2138 31.1479C20.1141 31.29 20.852 30.9 21.3462 30.202C25.1472 24.8328 19.5823 21.9585 19.1093 27.6017Z" fill="#FCBD41"/>
<path opacity="0.35" d="M21.3463 29.0865C20.8521 29.7846 20.114 30.1745 19.2139 30.0325C16.2095 29.4254 13.1903 29.1728 10.2337 29.2605C8.4271 29.2334 7.48718 28.0668 7.28521 26.747C7.03122 28.4456 7.92495 30.3411 10.2337 30.3758C13.1906 30.2881 16.2097 30.5405 19.2139 31.1478C20.1142 31.2898 20.8521 30.8999 21.3463 30.2018C22.1771 29.0284 22.8131 27.5959 22.6025 26.174C22.4633 27.2354 21.9604 28.2191 21.3463 29.0865Z" fill="#A13B08"/>
<path opacity="0.35" d="M19.1861 28.4367C16.6334 27.0686 13.8148 25.9447 10.9918 25.0836C8.83258 24.48 7.50574 25.9318 7.25316 27.5742C7.11439 25.6403 8.50093 23.5345 11.0263 24.2407C13.8493 25.1018 16.5569 26.2336 19.1096 27.6015C19.4695 23.3068 23.0857 23.7665 22.5992 27.3156C22.4256 24.5075 19.5107 24.5616 19.1861 28.4367Z" fill="#FEFEFE"/>
<path d="M21.1269 24.2647C19.7105 24.2645 19.0853 25.9645 18.9948 27.1953C16.4771 25.8663 13.8311 24.7743 11.1067 23.9433C8.39451 22.9836 5.85862 26.2899 7.30487 28.9079C7.87931 30.0297 9.03683 30.7245 10.2415 30.6853C13.3583 30.5377 16.4955 30.9862 19.5944 31.4897C20.7967 31.6851 22.2035 29.6439 22.7421 27.8863C23.163 26.5133 22.8335 24.2909 21.1269 24.2647ZM21.4791 24.8576C23.7517 25.9703 21.7837 30.4838 20.0452 30.8206C18.4248 31.061 16.6184 29.8769 10.2261 30.0663C6.17138 30.0166 6.938 23.4925 10.8887 24.5211C13.6739 25.3665 16.3779 26.4879 18.9435 27.8597C18.9108 28.3777 18.901 28.9074 18.898 29.4268C18.89 29.5756 19.1116 29.5942 19.1226 29.4426C19.2131 27.4656 19.6672 24.0628 21.4791 24.8576Z" fill="#A13B08"/>
<path d="M28.3255 16.0499C28.5298 16.0499 28.6954 15.8842 28.6954 15.68C28.6954 15.4757 28.5298 15.3101 28.3255 15.3101C28.1212 15.3101 27.9556 15.4757 27.9556 15.68C27.9556 15.8842 28.1212 16.0499 28.3255 16.0499Z" fill="#EE3675"/>
<path d="M26.0701 16.1564C26.7848 16.1564 27.3643 15.5769 27.3643 14.8622C27.3643 14.1474 26.7848 13.568 26.0701 13.568C25.3553 13.568 24.7759 14.1474 24.7759 14.8622C24.7759 15.5769 25.3553 16.1564 26.0701 16.1564Z" fill="#EE3675"/>
<path d="M12.607 16.0497C12.8113 16.0497 12.9769 15.8841 12.9769 15.6798C12.9769 15.4755 12.8113 15.3099 12.607 15.3099C12.4027 15.3099 12.2371 15.4755 12.2371 15.6798C12.2371 15.8841 12.4027 16.0497 12.607 16.0497Z" fill="#EE3675"/>
<path d="M14.8625 16.1564C15.5773 16.1564 16.1567 15.5769 16.1567 14.8622C16.1567 14.1474 15.5773 13.568 14.8625 13.568C14.1478 13.568 13.5684 14.1474 13.5684 14.8622C13.5684 15.5769 14.1478 16.1564 14.8625 16.1564Z" fill="#EE3675"/>
<path d="M18.383 17.1572C18.421 17.116 18.4681 17.1327 18.5106 17.1467C19.1165 17.3478 19.7765 17.3333 20.3743 17.1376C20.9576 16.9476 21.495 16.5767 21.8488 16.0709C21.9663 15.9029 22.1699 15.8388 22.3507 15.8962C22.4435 15.9256 22.5202 15.9902 22.5778 16.0685C23.1434 16.8361 21.0068 17.6127 20.4835 17.6813C20.1182 17.7291 19.7504 17.7177 19.3961 17.6505C19.2581 17.6242 18.1847 17.3723 18.383 17.1572Z" fill="#FBD667"/>
<path d="M18.2846 16.9386C18.3226 16.8973 18.3697 16.9141 18.4122 16.9281C19.0181 17.1292 19.6782 17.1147 20.2759 16.919C20.8592 16.7289 21.3966 16.3581 21.7504 15.8522C21.8679 15.6843 22.0715 15.6202 22.2523 15.6775C22.3451 15.7069 22.4219 15.7715 22.4795 15.8499C23.045 16.6175 20.9084 17.3941 20.3851 17.4627C20.0198 17.5105 19.652 17.4991 19.2978 17.4319C19.1594 17.4053 18.0864 17.1534 18.2846 16.9386Z" fill="#A13B08"/>
<path d="M22.8127 12.2545C23.6689 13.2984 25.2056 13.7177 26.3657 12.932C26.7601 12.6841 27.0827 12.3505 27.3411 11.9485C27.4528 11.7432 27.7868 11.851 27.7609 12.08C27.582 14.0522 24.9855 15.0789 23.4406 13.8966C22.9436 13.5505 22.5424 13.0341 22.4141 12.441C22.36 12.2143 22.676 12.0702 22.8127 12.2545Z" fill="#FBD667"/>
<path d="M22.6838 11.9962C23.54 13.0401 25.0767 13.4594 26.2368 12.6737C26.6312 12.4258 26.9538 12.0922 27.2122 11.6902C27.3239 11.4849 27.6579 11.5927 27.632 11.8217C27.4531 13.7939 24.8566 14.8206 23.3117 13.6383C22.8147 13.2922 22.4135 12.7758 22.2852 12.1827C22.2311 11.9558 22.5469 11.8117 22.6838 11.9962Z" fill="#A13B08"/>
<path d="M13.7039 12.2546C14.5601 13.2985 16.0968 13.7179 17.2569 12.9321C17.6513 12.6842 17.9738 12.3507 18.2322 11.9486C18.344 11.7433 18.678 11.8511 18.6521 12.0801C18.4732 14.0523 15.8766 15.079 14.3317 13.8967C13.8347 13.5509 13.4336 13.0343 13.3053 12.4414C13.2509 12.2145 13.567 12.0703 13.7039 12.2546Z" fill="#FBD667"/>
<path d="M13.5747 11.9963C14.4309 13.0402 15.9676 13.4596 17.1277 12.6738C17.5221 12.4259 17.8446 12.0924 18.1031 11.6903C18.2148 11.485 18.5488 11.5928 18.5229 11.8218C18.344 13.794 15.7474 14.8207 14.2025 13.6384C13.7055 13.2923 13.3044 12.776 13.1761 12.1829C13.122 11.9559 13.4378 11.8118 13.5747 11.9963Z" fill="#A13B08"/>
</svg>
