<svg width="22" height="22" viewBox="0 0 22 22" fill="none" xmlns="http://www.w3.org/2000/svg">
<g clip-path="url(#clip0_413_1858)">
<path d="M22 11C22 17.0758 17.0758 22 11 22C4.92422 22 0 17.0758 0 11C0 4.92422 4.92422 0 11 0C17.0758 0 22 4.92422 22 11ZM14.6051 16.0402C13.9133 15.2711 12.7059 14.4375 11 14.4375C9.29414 14.4375 8.08672 15.2711 7.39492 16.0402C7.14141 16.3238 7.16289 16.7191 7.44648 17.0113C7.73008 17.2648 8.12539 17.2434 8.41758 16.9598C8.92031 16.4012 9.77539 15.8125 10.9613 15.8125C12.2246 15.8125 13.0797 16.4012 13.5824 16.9598C13.8359 17.2434 14.2699 17.2648 14.5535 17.0113C14.8371 16.7191 14.8586 16.3238 14.6051 16.0402ZM7.57969 11.6875C8.33594 11.6875 8.95469 11.073 8.95469 10.3125C8.95469 10.248 8.95039 10.1836 8.9418 10.1234L9.40586 10.2781C9.7668 10.3598 10.1578 10.2008 10.2781 9.84414C10.3598 9.4832 10.2008 9.09219 9.84414 8.97188L5.71914 7.59688C5.3582 7.47656 4.96719 7.67422 4.84688 8.03086C4.72656 8.3918 4.92422 8.78281 5.28086 8.90312L6.6043 9.34141C6.35508 9.59062 6.20469 9.93437 6.20469 10.3125C6.20469 11.073 6.81914 11.6875 7.57969 11.6875ZM15.4215 9.33281L16.7191 8.90312C17.0758 8.78281 17.2348 8.3918 17.1531 8.03086C17.0328 7.67422 16.6418 7.47656 16.2809 7.59688L12.1559 8.97188C11.7992 9.09219 11.6016 9.4832 11.7219 9.84414C11.8422 10.2008 12.2332 10.3598 12.5941 10.2781L13.0926 10.1105C13.084 10.175 13.0797 10.2437 13.0797 10.3125C13.0797 11.073 13.6941 11.6875 14.4547 11.6875C15.2109 11.6875 15.8297 11.073 15.8297 10.3125C15.8297 9.93008 15.6707 9.58203 15.4215 9.33281Z" fill="white"/>
</g>
<defs>
<clipPath id="clip0_413_1858">
<rect width="22" height="22" fill="white"/>
</clipPath>
</defs>
</svg>
