<svg width="30" height="30" viewBox="0 0 30 30" fill="none" xmlns="http://www.w3.org/2000/svg">
<path d="M23.5009 14.7083C23.5009 16.8855 22.636 18.9736 21.0965 20.5131C19.5569 22.0527 17.4689 22.9176 15.2916 22.9176C13.1144 22.9176 11.0263 22.0527 9.48678 20.5131C7.94724 18.9736 7.08234 16.8855 7.08234 14.7083C7.08234 12.5311 7.94724 10.443 9.48678 8.90347C11.0263 7.36393 13.1144 6.49902 15.2916 6.49902C17.4689 6.49902 19.5569 7.36393 21.0965 8.90347C22.636 10.443 23.5009 12.5311 23.5009 14.7083Z" fill="#FFC20E"/>
<path fill-rule="evenodd" clip-rule="evenodd" d="M15.2917 0C15.5638 0 15.8248 0.108113 16.0173 0.300555C16.2097 0.492998 16.3178 0.754005 16.3178 1.02616V2.39437C16.3178 2.66653 16.2097 2.92754 16.0173 3.11998C15.8248 3.31242 15.5638 3.42053 15.2917 3.42053C15.0195 3.42053 14.7585 3.31242 14.5661 3.11998C14.3736 2.92754 14.2655 2.66653 14.2655 2.39437V1.02616C14.2655 0.754005 14.3736 0.492998 14.5661 0.300555C14.7585 0.108113 15.0195 0 15.2917 0ZM4.89188 4.3085C5.08428 4.11634 5.3451 4.0084 5.61703 4.0084C5.88896 4.0084 6.14978 4.11634 6.34218 4.3085L6.87989 4.84484C7.06691 5.03829 7.17046 5.29745 7.16825 5.56651C7.16604 5.83557 7.05824 6.09299 6.86807 6.28334C6.6779 6.47369 6.42058 6.58173 6.15152 6.5842C5.88247 6.58666 5.62321 6.48335 5.42958 6.29652L4.89188 5.75881C4.69971 5.5664 4.59177 5.30559 4.59177 5.03366C4.59177 4.76172 4.69971 4.50091 4.89188 4.3085ZM25.6915 4.3085C25.8836 4.50091 25.9916 4.76172 25.9916 5.03366C25.9916 5.30559 25.8836 5.5664 25.6915 5.75881L25.1537 6.29652C24.9592 6.47778 24.7019 6.57646 24.4361 6.57177C24.1702 6.56708 23.9166 6.45938 23.7286 6.27137C23.5406 6.08336 23.4329 5.82972 23.4282 5.56387C23.4235 5.29802 23.5222 5.04074 23.7034 4.84621L24.2411 4.3085C24.4336 4.11634 24.6944 4.0084 24.9663 4.0084C25.2382 4.0084 25.499 4.11634 25.6915 4.3085ZM0.583374 14.7083C0.583374 14.4361 0.691487 14.1751 0.883929 13.9827C1.07637 13.7902 1.33738 13.6821 1.60953 13.6821H2.97775C3.2499 13.6821 3.51091 13.7902 3.70335 13.9827C3.89579 14.1751 4.00391 14.4361 4.00391 14.7083C4.00391 14.9804 3.89579 15.2415 3.70335 15.4339C3.51091 15.6263 3.2499 15.7345 2.97775 15.7345H1.60953C1.33738 15.7345 1.07637 15.6263 0.883929 15.4339C0.691487 15.2415 0.583374 14.9804 0.583374 14.7083ZM26.5794 14.7083C26.5794 14.4361 26.6875 14.1751 26.88 13.9827C27.0724 13.7902 27.3334 13.6821 27.6056 13.6821H28.9738C29.246 13.6821 29.507 13.7902 29.6994 13.9827C29.8918 14.1751 30 14.4361 30 14.7083C30 14.9804 29.8918 15.2415 29.6994 15.4339C29.507 15.6263 29.246 15.7345 28.9738 15.7345H27.6056C27.3334 15.7345 27.0724 15.6263 26.88 15.4339C26.6875 15.2415 26.5794 14.9804 26.5794 14.7083ZM23.7034 23.1201C23.8958 22.9279 24.1567 22.82 24.4286 22.82C24.7005 22.82 24.9613 22.9279 25.1537 23.1201L25.6915 23.6578C25.7923 23.7517 25.8731 23.865 25.9292 23.9909C25.9853 24.1168 26.0155 24.2526 26.0179 24.3904C26.0203 24.5282 25.995 24.6651 25.9434 24.7928C25.8918 24.9206 25.8149 25.0367 25.7175 25.1341C25.6201 25.2316 25.504 25.3084 25.3762 25.36C25.2484 25.4116 25.1116 25.437 24.9738 25.4345C24.836 25.4321 24.7001 25.4019 24.5743 25.3458C24.4484 25.2898 24.3351 25.2089 24.2411 25.1081L23.7034 24.5704C23.5113 24.378 23.4033 24.1172 23.4033 23.8452C23.4033 23.5733 23.5113 23.3125 23.7034 23.1201ZM6.87989 23.1201C7.07206 23.3125 7.18 23.5733 7.18 23.8452C7.18 24.1172 7.07206 24.378 6.87989 24.5704L6.34218 25.1081C6.24824 25.2089 6.13495 25.2898 6.00908 25.3458C5.8832 25.4019 5.74732 25.4321 5.60954 25.4345C5.47175 25.437 5.33489 25.4116 5.20712 25.36C5.07934 25.3084 4.96327 25.2316 4.86583 25.1341C4.76839 25.0367 4.69157 24.9206 4.63996 24.7928C4.58835 24.6651 4.563 24.5282 4.56543 24.3904C4.56786 24.2526 4.59802 24.1168 4.65411 23.9909C4.71019 23.865 4.79106 23.7517 4.89188 23.6578L5.42822 23.1201C5.52351 23.0247 5.63667 22.9491 5.76121 22.8975C5.88575 22.8458 6.01924 22.8193 6.15405 22.8193C6.28887 22.8193 6.42236 22.8458 6.5469 22.8975C6.67144 22.9491 6.7846 23.0247 6.87989 23.1201ZM15.2917 25.996C15.5638 25.996 15.8248 26.1042 16.0173 26.2966C16.2097 26.489 16.3178 26.7501 16.3178 27.0222V28.3904C16.3178 28.6626 16.2097 28.9236 16.0173 29.116C15.8248 29.3085 15.5638 29.4166 15.2917 29.4166C15.0195 29.4166 14.7585 29.3085 14.5661 29.116C14.3736 28.9236 14.2655 28.6626 14.2655 28.3904V27.0222C14.2655 26.7501 14.3736 26.489 14.5661 26.2966C14.7585 26.1042 15.0195 25.996 15.2917 25.996Z" fill="#FFC20E"/>
</svg>
