<svg width="16" height="16" viewBox="0 0 16 16" fill="none" xmlns="http://www.w3.org/2000/svg">
<path d="M15.25 13.1991V13.2V15.25H0.75V13.2C0.75 12.7696 0.858788 12.3854 1.07681 12.031C1.29845 11.6707 1.58413 11.4044 1.94086 11.2181C2.92442 10.7268 3.91939 10.3605 4.92632 10.117C5.93527 9.87294 6.95956 9.75063 8.00045 9.75C9.04089 9.75004 10.0647 9.87231 11.0732 10.1169C12.0806 10.3612 13.076 10.7276 14.0599 11.2185C14.4168 11.404 14.7024 11.67 14.9239 12.0306C15.1421 12.3857 15.2505 12.7699 15.25 13.1991ZM8 7.25C7.10049 7.25 6.34913 6.93847 5.70533 6.29467C5.06153 5.65087 4.75 4.89951 4.75 4C4.75 3.10049 5.06153 2.34913 5.70533 1.70533C6.34913 1.06153 7.10049 0.75 8 0.75C8.89951 0.75 9.65087 1.06153 10.2947 1.70533C10.9385 2.34913 11.25 3.10049 11.25 4C11.25 4.89951 10.9385 5.65087 10.2947 6.29467C9.65087 6.93847 8.89951 7.25 8 7.25Z" stroke="#253A60" stroke-width="1.5"/>
</svg>
