<svg width="39" height="39" viewBox="0 0 39 39" fill="none" xmlns="http://www.w3.org/2000/svg">
<path fill-rule="evenodd" clip-rule="evenodd" d="M11.5112 8.2964C11.5112 8.2964 12.0155 6.83628 16.9095 7.7676C21.8031 8.69891 20.2865 10.0573 25.1853 10.6072C30.0842 11.157 30.4895 11.0528 30.6546 11.8908C30.8196 12.7292 29.0413 13.8788 24.4064 12.8118C19.7715 11.7445 19.8938 10.7286 16.0706 10.4754C12.2473 10.2225 11.6893 9.25232 11.5112 8.2964Z" fill="#92D9F8"/>
<path fill-rule="evenodd" clip-rule="evenodd" d="M11.3428 9.0824C11.3428 9.0824 12.0701 10.4233 13.9652 10.6947C15.8603 10.9657 17.1509 10.8401 18.5592 11.2368C19.9679 11.6335 24.3255 13.9035 27.4091 13.7212C30.4926 13.5388 29.9657 13.407 29.9657 13.407C29.9657 13.407 27.4256 22.8452 26.1421 25.439C24.8586 28.0328 24.4325 29.6626 23.7029 29.8507C22.9733 30.0389 19.8323 30.9356 16.3876 29.855C12.9428 28.7744 10.178 27.1125 10.178 27.1125C10.178 27.1125 10.3064 16.2411 11.3428 9.0824Z" fill="#70CBF5"/>
<path fill-rule="evenodd" clip-rule="evenodd" d="M24.0676 29.6186C23.9512 29.739 23.8319 29.8177 23.7032 29.8507C22.9735 30.0389 19.8326 30.9356 16.3878 29.855C12.943 28.7744 10.1782 27.1128 10.1782 27.1128C10.1782 27.1128 10.3066 16.2411 11.343 9.0824C11.343 9.0824 10.7143 25.2978 11.9296 26.3787C12.9985 27.3295 18.8059 30.0833 24.0676 29.6186Z" fill="#59BDEB"/>
<path fill-rule="evenodd" clip-rule="evenodd" d="M14.6667 14.0369C14.4294 13.9861 14.2783 13.7529 14.3288 13.5159C14.3798 13.2788 14.6132 13.1279 14.8506 13.1784C15.088 13.2293 15.2391 13.4624 15.1885 13.6995C15.1376 13.9365 14.9041 14.0877 14.6667 14.0369ZM25.088 19.5105C24.8698 19.4638 24.7303 19.2491 24.7774 19.0312C24.8241 18.813 25.0391 18.674 25.2573 18.721C25.4755 18.7676 25.615 18.9823 25.568 19.2002C25.5213 19.4182 25.3063 19.5574 25.088 19.5105ZM18.0781 16.145C17.8408 16.0941 17.6897 15.861 17.7402 15.624C17.7912 15.3869 18.0246 15.236 18.262 15.2865C18.4994 15.3374 18.6505 15.5705 18.5999 15.8076C18.549 16.0446 18.3155 16.1955 18.0781 16.145ZM18.7004 20.1202C18.501 20.0775 18.3739 19.8816 18.4167 19.6824C18.4595 19.4833 18.6557 19.3563 18.8551 19.3991C19.0545 19.4418 19.1816 19.6377 19.1388 19.8369C19.096 20.036 18.8999 20.163 18.7004 20.1202Z" fill="#59BDEB"/>
<path fill-rule="evenodd" clip-rule="evenodd" d="M22.0179 5.70847C17.3665 4.64212 12.8558 2.93655 11.2895 1.34302C10.8709 5.24475 8.57985 26.9295 9.26083 28.0635C9.64445 28.7024 12.1881 29.7306 15.0028 30.5162C17.5604 31.2302 20.3193 31.7269 21.8807 31.5356C23.0536 31.3918 23.8977 31.2195 24.4992 31.054C25.5032 30.7781 25.7357 30.6091 25.7432 30.5864L33.6909 6.24828C31.5098 7.20906 26.6803 6.7774 22.0179 5.70847ZM16.9095 7.76798C21.8032 8.69929 20.2866 10.0577 25.1854 10.6076C30.0843 11.1574 30.4896 11.0532 30.6547 11.8912C30.8197 12.7296 29.0414 13.8792 24.4065 12.8122C19.7716 11.7448 19.8939 10.729 16.0706 10.4758C12.2474 10.2226 11.6893 9.25238 11.5116 8.29678C11.5113 8.29678 12.0156 6.83666 16.9095 7.76798ZM29.9497 13.4672C29.9604 13.4281 29.9659 13.4077 29.9659 13.4077C29.9659 13.4077 30.0525 13.429 29.9497 13.4672ZM18.5591 11.2371C19.9678 11.6338 24.3254 13.9038 27.409 13.7215C29.2415 13.6133 29.7986 13.5226 29.9494 13.4672C29.7318 14.2713 27.3658 22.9663 26.142 25.4393C25.285 27.1708 24.8105 28.4729 24.3724 29.2031L24.2638 29.3731C24.2265 29.4278 24.1889 29.4783 24.1516 29.524C24.0086 29.6992 23.863 29.8096 23.7028 29.851C22.9732 30.0392 19.8323 30.9358 16.3875 29.8553C12.9427 28.7747 10.1779 27.1128 10.1779 27.1128L10.1821 26.8207L10.1844 26.6821C10.2207 24.5977 10.4282 15.3959 11.3427 9.08237C11.3427 9.08237 12.07 10.4233 13.9651 10.6947C15.8602 10.966 17.1508 10.8404 18.5591 11.2371Z" fill="#E6E6E6"/>
<path fill-rule="evenodd" clip-rule="evenodd" d="M31.6501 7.64533C31.6501 7.64533 31.0094 7.34838 30.4276 8.11941C29.8462 8.89043 28.7537 13.8371 28.5812 14.3439C28.4087 14.8507 29.3523 15.8277 30.2318 13.9654C31.1109 12.1031 32.4803 8.25444 31.6501 7.64533ZM28.7618 15.7419C28.6765 15.6917 28.0137 15.646 27.9135 16.2639C27.813 16.882 28.5634 17.0423 28.8101 16.7114C29.0572 16.3804 28.7618 15.7419 28.7618 15.7419Z" fill="white"/>
<path fill-rule="evenodd" clip-rule="evenodd" d="M18.3721 8.56294C18.3721 8.56294 19.4143 8.42111 20.2827 9.2964C21.1511 10.1717 23.4165 10.8459 25.2185 10.9249C27.0205 11.0042 28.1438 11.034 28.1007 11.2351C28.0576 11.4362 27.2401 11.319 26.4138 11.3336C25.5872 11.3481 22.7261 11.1189 21.3998 10.3385C20.0735 9.55772 19.9912 9.1387 19.3621 8.94699C18.733 8.75464 18.3721 8.56294 18.3721 8.56294Z" fill="white"/>
<path fill-rule="evenodd" clip-rule="evenodd" d="M11.5242 0.86463C12.856 2.41768 17.4062 4.14171 22.1277 5.22393C26.9448 6.32816 31.9101 6.7582 33.7744 5.64813C33.8107 5.62644 33.8458 5.60442 33.8795 5.58143L33.8772 5.57236C33.7884 5.25534 33.23 4.83987 32.3366 4.3781C31.3949 3.8914 30.1013 3.37717 28.5973 2.88722C23.4433 1.20885 15.863 -0.165773 11.5242 0.86463Z" fill="white"/>
<path fill-rule="evenodd" clip-rule="evenodd" d="M11.5243 0.864469C12.8561 2.41752 17.4063 4.14155 22.1278 5.22377C26.9449 6.328 31.9102 6.75804 33.7745 5.64797C33.8108 5.62628 33.8458 5.60426 33.8796 5.58127L33.8773 5.5722C33.7884 5.25518 33.23 4.83971 32.3367 4.37794C31.395 3.89124 30.1014 3.37701 28.5974 2.88706C23.4434 1.20869 15.8631 -0.165934 11.5243 0.864469ZM9.22059 17.574C7.10015 17.4183 4.6577 19.0779 3.28374 20.5645C3.37291 20.7838 3.41604 21.14 3.33692 21.7173C3.11219 23.3559 2.30118 23.4883 2.07581 23.1039C1.85043 22.7199 1.84006 22.9346 1.04688 23.7205C0.253695 24.5061 -0.574184 22.2202 0.541652 21.1562C1.65749 20.0921 2.80024 20.2203 2.80024 20.2203C2.80024 20.2203 2.92541 20.197 3.05901 20.2783C4.3746 18.4733 7.65466 16.997 9.25724 17.1346C9.90125 9.48333 10.8546 0.731055 10.8595 0.687662L10.8776 0.52057L11.0395 0.475235C15.4107 -0.748814 23.3879 0.667909 28.7505 2.41396C30.2778 2.91135 31.5973 3.43659 32.5646 3.93657C33.5806 4.46149 34.2282 4.9796 34.3566 5.43749C34.3939 5.56993 34.3932 5.69914 34.3527 5.82381L29.7444 19.936C31.846 20.0963 34.2849 18.507 35.6748 17.0653C35.5901 16.8441 35.5545 16.4873 35.6456 15.9115C35.9047 14.2778 36.7183 14.1629 36.9355 14.5515C37.1525 14.9401 37.1677 14.7257 37.9771 13.9569C38.7865 13.1879 39.5664 15.4909 38.4285 16.531C37.2906 17.5714 36.1508 17.4196 36.1508 17.4196C36.1508 17.4196 36.0253 17.4403 35.8933 17.3561C34.5327 19.143 31.1929 20.5561 29.6036 20.3664L26.2166 30.7397C26.1958 30.8038 25.8508 31.1992 24.6312 31.5343C24.0164 31.7034 23.1499 31.8799 21.9403 32.0282C21.8836 32.035 21.8252 32.0411 21.7656 32.0463L22.3324 34.394L21.7798 37.3538C21.7798 37.3538 22.3441 37.2679 22.9715 37.9373C23.599 38.6063 21.381 38.4975 21.1374 37.9182C20.8939 37.3389 21.3375 37.3528 21.3375 37.3528C21.3881 35.8234 21.8369 35.552 21.8875 34.0226L20.8829 32.069C19.2346 32.0269 16.9796 31.5845 14.8698 30.9955C14.3665 30.855 13.8707 30.7057 13.3924 30.5506L10.1629 32.5722C9.17292 33.7402 9.32339 34.2418 8.33337 35.4102C8.33337 35.4102 8.67159 35.6974 8.10184 35.9636C7.53208 36.2298 5.81439 34.8247 6.72918 34.7489C7.64396 34.6731 8.00488 35.1145 8.00488 35.1145L9.58378 32.5495L12.272 30.1659C10.5018 29.5205 9.14147 28.8317 8.83308 28.3185C8.49065 27.7479 8.77082 22.9874 9.22059 17.574ZM33.6905 6.24834C31.5097 7.2088 26.6803 6.77714 22.0178 5.70821C17.3664 4.64186 12.8557 2.93629 11.2895 1.34276C10.8708 5.24449 8.57982 26.9293 9.2608 28.0633C9.64442 28.7022 12.188 29.7303 15.0028 30.5159C17.5603 31.2299 20.3196 31.7267 21.8807 31.5353C23.0536 31.3915 23.8977 31.2193 24.4992 31.0538C25.5032 30.7779 25.7357 30.6089 25.7431 30.5865L33.6905 6.24834Z" fill="#1683B5"/>
<path d="M16.6669 19.0982C16.5194 19.7083 15.8993 20.0826 15.2816 19.9336C14.6642 19.7847 14.2832 19.1691 14.431 18.559C14.5786 17.9486 15.1989 17.5749 15.8163 17.7239C16.4338 17.8725 16.8145 18.4881 16.6669 19.0982Z" fill="#231F20"/>
<path d="M16.517 18.614C16.4535 18.877 16.1921 19.0392 15.933 18.9767C15.6742 18.9142 15.5156 18.6506 15.5792 18.3877C15.6428 18.1247 15.9045 17.9625 16.1629 18.025C16.4223 18.0875 16.5806 18.3511 16.517 18.614Z" fill="white"/>
<path d="M15.3294 18.6492C15.3064 18.7444 15.212 18.803 15.1183 18.7804C15.0246 18.7577 14.9672 18.6625 14.9902 18.5673C15.0132 18.4721 15.1079 18.4135 15.2016 18.4361C15.2953 18.4588 15.3524 18.554 15.3294 18.6492Z" fill="white"/>
<path d="M15.7437 19.1924C15.7207 19.2876 15.626 19.3462 15.5326 19.3236C15.4389 19.3009 15.3815 19.2057 15.4045 19.1105C15.4275 19.0153 15.5222 18.9567 15.6159 18.9794C15.7093 19.002 15.7667 19.0972 15.7437 19.1924Z" fill="white"/>
<path d="M24.1062 20.8926C23.9586 21.5027 23.3386 21.877 22.7212 21.7281C22.1038 21.5791 21.7231 20.9635 21.8706 20.3535C22.0182 19.743 22.6382 19.3694 23.2556 19.5183C23.873 19.667 24.2541 20.2822 24.1062 20.8926Z" fill="#231F20"/>
<path d="M23.9563 20.4089C23.8927 20.6719 23.631 20.8341 23.3722 20.7716C23.1135 20.7091 22.9549 20.4455 23.0188 20.1826C23.0823 19.9196 23.3437 19.7574 23.6025 19.8199C23.8613 19.8824 24.0198 20.146 23.9563 20.4089Z" fill="white"/>
<path d="M22.7688 20.4437C22.7458 20.5389 22.6511 20.5975 22.5577 20.5748C22.4637 20.5521 22.4066 20.4569 22.4293 20.3617C22.4523 20.2665 22.547 20.2079 22.6407 20.2306C22.7344 20.2532 22.7918 20.3488 22.7688 20.4437Z" fill="white"/>
<path d="M23.1831 20.9871C23.1601 21.0823 23.0657 21.1409 22.972 21.1183C22.8783 21.0956 22.8212 21.0004 22.8442 20.9052C22.8672 20.81 22.9619 20.7514 23.0553 20.774C23.149 20.7964 23.2061 20.8919 23.1831 20.9871Z" fill="white"/>
<path d="M15.3713 21.3007C15.3162 21.528 14.8521 21.6106 14.3343 21.4856C13.8164 21.3606 13.4412 21.0757 13.4963 20.8483C13.5511 20.6213 14.0155 20.5384 14.5334 20.6631C15.0512 20.7884 15.4264 21.0737 15.3713 21.3007Z" fill="#D96283"/>
<path d="M23.8914 23.3563C23.8365 23.5836 23.3719 23.6662 22.8543 23.5412C22.3364 23.4162 21.9613 23.1312 22.0161 22.9039C22.0709 22.6769 22.5352 22.594 23.0531 22.7187C23.571 22.8436 23.9465 23.1293 23.8914 23.3563Z" fill="#D96283"/>
<path d="M16.1353 15.4158C16.1301 15.4135 16.0506 15.3766 15.9255 15.3461C15.7708 15.3092 15.5451 15.2811 15.3051 15.3507C15.0655 15.4193 14.8177 15.5942 14.6429 15.93C14.6131 15.9867 14.6352 16.0566 14.6919 16.0861C14.7487 16.1159 14.8184 16.0939 14.8482 16.0372C15 15.7496 15.1864 15.6272 15.3703 15.5722C15.5538 15.5181 15.7409 15.5388 15.871 15.5706C15.9235 15.5832 15.9663 15.5974 15.9952 15.6081C16.0098 15.6133 16.0208 15.6178 16.0279 15.6211L16.0357 15.6243L16.037 15.625C16.0947 15.6522 16.1638 15.6272 16.191 15.5696C16.218 15.5116 16.1933 15.4426 16.1353 15.4158Z" fill="#231F20"/>
<path d="M23.8675 17.514H23.8688C23.8805 17.5147 23.9479 17.5195 24.0397 17.5416C24.1697 17.5727 24.3455 17.6394 24.4843 17.7712C24.6224 17.9039 24.7323 18.0979 24.7365 18.423C24.7372 18.4868 24.7894 18.5383 24.8533 18.5376C24.9172 18.537 24.9684 18.4849 24.9681 18.4211C24.9661 18.0422 24.8254 17.7741 24.6438 17.6037C24.4622 17.4324 24.2485 17.3544 24.0942 17.3168C23.969 17.2867 23.8814 17.2835 23.8759 17.2832C23.8117 17.2809 23.7582 17.3308 23.7559 17.3946C23.7537 17.4583 23.8036 17.5118 23.8675 17.514Z" fill="#231F20"/>
<path d="M18.2248 24.4029C17.1589 24.1457 16.4747 23.1817 16.6991 22.254C16.7925 21.8676 16.9945 21.718 17.3165 21.7958C17.4712 21.833 17.6437 21.9188 17.8428 22.0185C18.0987 22.1465 18.3889 22.2909 18.7164 22.3699C19.044 22.4489 19.3682 22.4525 19.6546 22.4554C19.8777 22.4577 20.07 22.4599 20.2246 22.4972C20.547 22.5749 20.6582 22.8003 20.5648 23.1866C20.3404 24.114 19.2907 24.66 18.2248 24.4029Z" fill="white"/>
<path d="M20.2539 22.3777C20.0856 22.3372 19.8865 22.3349 19.6562 22.3323C19.3767 22.3294 19.0599 22.3262 18.7457 22.2504C18.4318 22.1746 18.1484 22.0331 17.898 21.9085C17.6918 21.8055 17.5138 21.7167 17.3455 21.6763C17.122 21.6222 16.7251 21.6219 16.5792 22.2251C16.3389 23.2186 17.0643 24.2494 18.196 24.5223C19.3281 24.7953 20.4442 24.2092 20.6845 23.2157C20.8305 22.6121 20.4776 22.4317 20.2539 22.3777ZM20.1958 22.6166C20.4215 22.6711 20.5298 22.8074 20.4452 23.1578C20.2364 24.0207 19.2554 24.5246 18.2541 24.283C17.2527 24.0415 16.61 23.1458 16.8188 22.2828C16.9035 21.9327 17.0624 21.8605 17.2877 21.9149C17.6182 21.9946 18.0923 22.3456 18.6876 22.4894C19.283 22.6332 19.8654 22.537 20.1958 22.6166Z" fill="#231F20"/>
<path d="M18.2303 24.4041C17.2507 24.1677 16.5801 23.3309 16.6702 22.4576C16.6751 22.4113 16.7056 22.3718 16.749 22.3552C16.7727 22.3462 16.7983 22.3449 16.822 22.3507C16.8418 22.3556 16.8606 22.3653 16.8761 22.3795C17.2332 22.7056 17.8185 22.9841 18.4813 23.1441C19.2038 23.3183 19.9117 23.3241 20.3757 23.1593C20.3987 23.1509 20.4231 23.1499 20.4461 23.1554C20.4675 23.1606 20.4873 23.1713 20.5035 23.1871C20.5372 23.2202 20.5489 23.2694 20.534 23.3141C20.2473 24.1677 19.2356 24.6466 18.2303 24.4041Z" fill="#D96283"/>
<path d="M20.4748 23.0361C20.4291 23.0251 20.3804 23.027 20.3344 23.0435C19.8921 23.2006 19.2101 23.1935 18.51 23.0244C17.8666 22.8693 17.3017 22.6012 16.959 22.2887C16.9275 22.2602 16.8902 22.2408 16.8507 22.2311C16.8033 22.2197 16.7524 22.2223 16.7051 22.2401C16.6182 22.2732 16.5575 22.3525 16.5478 22.4448C16.4515 23.379 17.1623 24.2728 18.2016 24.5234C19.2685 24.7809 20.3441 24.2666 20.6505 23.3531C20.6804 23.2637 20.6567 23.1653 20.5892 23.0992C20.5571 23.0678 20.5173 23.0465 20.4748 23.0361ZM20.4167 23.2751C20.1511 24.0665 19.215 24.515 18.2593 24.2844C17.3299 24.0604 16.7099 23.2725 16.7929 22.4701C17.15 22.7961 17.745 23.0931 18.4523 23.2637C19.2253 23.4503 19.9488 23.4412 20.4167 23.2751Z" fill="#231F20"/>
</svg>
